<svg width="65" height="64" viewBox="0 0 65 64" fill="none" xmlns="http://www.w3.org/2000/svg">
<path d="M41.1479 63.9364C40.4363 63.94 39.7291 63.8243 39.0558 63.5939L18.6367 56.6692C17.0006 56.1147 15.6515 54.9337 14.8854 53.3854C14.1192 51.8371 13.9988 50.0481 14.5504 48.4111L19.4442 34.1091L21.7687 34.9043L16.8749 49.194C16.5289 50.2162 16.6024 51.3339 17.0795 52.3018C17.5566 53.2697 18.3982 54.0089 19.4197 54.3569L39.8388 61.2816C40.2616 61.419 40.7033 61.4892 41.1479 61.4896C41.9977 61.4917 42.8266 61.2255 43.5164 60.7291C44.2061 60.2326 44.7216 59.5311 44.9895 58.7246L56.2695 25.4227C56.4407 24.9174 56.5107 24.3834 56.4754 23.851C56.4402 23.3187 56.3004 22.7985 56.0641 22.3202C55.8278 21.8419 55.4996 21.4149 55.0982 21.0635C54.6968 20.712 54.2301 20.4431 53.7248 20.2721L48.2438 18.4124L49.0268 16.0879L54.5078 17.9475C55.3187 18.2206 56.0677 18.6511 56.7117 19.2144C57.3557 19.7778 57.8821 20.4628 58.2607 21.2301C58.6393 21.9974 58.8625 22.832 58.9176 23.6859C58.9727 24.5397 58.8586 25.3961 58.5818 26.2057L47.3018 59.5198C46.8636 60.8051 46.0351 61.9215 44.9319 62.7133C43.8287 63.505 42.5058 63.9326 41.1479 63.9364ZM43.1298 54.6995L20.7899 47.1264L25.0597 34.5006L27.3842 35.2958L23.8852 45.5971L41.5883 51.592L49.8832 27.1233L45.9927 25.802L46.7757 23.4897L52.9907 25.594L43.1298 54.6995Z" fill="#232323"/>
<path d="M39.4468 39.2723C38.8813 39.239 38.3318 39.0712 37.8441 38.7829C34.6914 37.2007 31.7072 35.3028 28.9375 33.1184C27.8783 33.2523 26.812 33.3218 25.7444 33.3264C14.1217 33.3264 4.65234 25.8512 4.65234 16.6632C4.65234 7.47518 14.1217 0 25.7444 0C37.367 0 46.8364 7.47519 46.8364 16.6754C46.8364 21.8138 43.8145 26.6709 38.6883 29.8273C38.9301 31.9659 39.569 34.0405 40.5724 35.9445C40.8332 36.3138 40.9959 36.7433 41.0451 37.1928C41.0943 37.6422 41.0285 38.0967 40.8538 38.5137C40.7071 38.7531 40.4996 38.9493 40.2525 39.0826C40.0054 39.2158 39.7274 39.2812 39.4468 39.2723ZM29.6594 30.5492L30.0876 30.904C32.5128 32.871 35.1275 34.5923 37.8931 36.0424C36.9226 33.8983 36.3386 31.5996 36.168 29.2523V28.4693L36.8532 28.0901C41.6123 25.3985 44.4507 21.1287 44.4507 16.6632C44.4507 8.82096 36.0946 2.43463 25.8055 2.43463C15.5165 2.43463 7.16039 8.82096 7.16039 16.6632C7.16039 24.5054 15.5287 30.8795 25.8055 30.8795C26.9394 30.8732 28.0715 30.7915 29.1944 30.6348L29.6594 30.5492Z" fill="#232323"/>
<path d="M28.2986 52.9411L28.1337 53.4278C27.932 54.0229 28.251 54.6689 28.8462 54.8705L31.7314 55.8482C32.3265 56.0499 32.9725 55.731 33.1741 55.1358L33.339 54.6491C33.5407 54.054 33.2217 53.4081 32.6266 53.2064L29.7414 52.2287C29.1463 52.027 28.5003 52.346 28.2986 52.9411Z" fill="#232323"/>
<path d="M34.2463 24.4686H17.265C15.2219 24.4686 13.5947 23.3185 13.5947 21.2876V10.7783C13.6007 10.3087 13.7014 9.84514 13.8909 9.41542C14.0805 8.9857 14.3548 8.59869 14.6976 8.27763C15.0404 7.95656 15.4445 7.70805 15.8857 7.54701C16.3269 7.38597 16.796 7.31573 17.265 7.34049H34.2463C34.7157 7.31398 35.1856 7.38302 35.6276 7.54342C36.0695 7.70382 36.4743 7.95223 36.8175 8.27364C37.1606 8.59505 37.435 8.98276 37.6239 9.41328C37.8128 9.84381 37.9124 10.3082 37.9166 10.7783V21.2876C37.9166 23.3185 36.265 24.4686 34.2463 24.4686ZM17.2773 9.53044C16.9379 9.52848 16.6099 9.65252 16.3568 9.87853C16.1037 10.1045 15.9434 10.4165 15.907 10.7539V20.7983C15.9434 21.1357 16.1037 21.4476 16.3568 21.6736C16.6099 21.8996 16.9379 22.0237 17.2773 22.0217H34.2463C34.5708 22.0217 34.882 21.8928 35.1114 21.6634C35.3409 21.4339 35.4697 21.1227 35.4697 20.7983V10.7783C35.4697 10.4539 35.3409 10.1427 35.1114 9.91324C34.882 9.6838 34.5708 9.5549 34.2463 9.5549L17.2773 9.53044Z" fill="#232323"/>
<path d="M25.7436 19.2567C24.9487 19.2603 24.1703 19.0306 23.5047 18.5961L14.4023 12.4789L15.7726 10.448L24.8627 16.5652C25.1302 16.7271 25.437 16.8127 25.7497 16.8127C26.0624 16.8127 26.3692 16.7271 26.6367 16.5652L35.7268 10.448L37.0848 12.4789L27.9947 18.5961C27.3253 19.0323 26.5425 19.262 25.7436 19.2567Z" fill="#232323"/>
</svg>
