<svg width="64" height="64" viewBox="0 0 64 64" fill="none" xmlns="http://www.w3.org/2000/svg">
<g clip-path="url(#clip0_12878_13813)">
<path d="M61.531 35.6777C61.8549 35.068 61.6233 34.3113 61.0137 33.9873C54.0096 30.2653 45.4655 31.1579 39.396 36.1455L37.3764 34.1259L40.6747 30.8276C41.1628 30.3394 41.1628 29.5479 40.6747 29.0597C40.1865 28.5716 39.3952 28.5716 38.9069 29.0597L35.6085 32.358L27.5609 24.3104C29.3914 21.8556 30.543 18.9721 30.9061 15.9017C31.3245 12.3622 30.6586 8.82175 28.9801 5.66339C28.6563 5.05377 27.8993 4.82227 27.2898 5.14614C26.6802 5.47014 26.4487 6.22689 26.7725 6.83651C29.4648 11.9027 29.0434 17.9185 25.7717 22.5212L20.4683 17.2178C19.7242 16.4737 18.6664 16.165 17.6387 16.3914C16.6109 16.618 15.7812 17.3431 15.4189 18.3312L0.191499 59.8726C-0.224375 61.0072 0.0479994 62.2429 0.902621 63.0974C1.49274 63.6876 2.26437 64.0001 3.05924 64.0001C3.41549 64.0001 3.77636 63.9372 4.12748 63.8086L45.6686 48.581C46.6567 48.2189 47.3818 47.389 47.6086 46.3614C47.8351 45.3336 47.5262 44.2759 46.7821 43.5318L41.1746 37.9242C46.4562 33.7099 53.8038 32.987 59.8407 36.195C60.4502 36.519 61.2069 36.2873 61.531 35.6777ZM19.9094 55.3607L8.63934 44.0906L11.7621 35.5718L28.4283 52.238L19.9094 55.3607ZM13.8011 57.5998L6.40023 50.199L7.69097 46.6779L17.3222 56.3091L13.8011 57.5998ZM3.26699 61.4612C2.97074 61.5698 2.76611 61.4253 2.67024 61.3297C2.57449 61.2339 2.43012 61.0292 2.53874 60.7331L5.45173 52.7862L11.2137 58.5482L3.26699 61.4612ZM45.1672 45.823C45.1422 45.9364 45.0623 46.1405 44.8083 46.2336L37.1237 49.0505L30.0141 41.9408C29.526 41.4525 28.7345 41.4526 28.2464 41.9406C27.7583 42.4288 27.7581 43.2203 28.2463 43.7084L34.5365 49.9987L31.0154 51.2895L12.7105 32.9845L14.0012 29.4634L20.2915 35.7537C20.5355 35.9978 20.8556 36.1198 21.1754 36.1198C21.4953 36.1198 21.8153 35.9977 22.0593 35.7537C22.5474 35.2655 22.5474 34.474 22.0592 33.9859L14.9496 26.8763L17.7664 19.1917C17.8596 18.9377 18.0637 18.8578 18.1772 18.8327C18.2117 18.8251 18.2561 18.8186 18.3064 18.8186C18.4213 18.8186 18.5677 18.8526 18.7007 18.9857L45.0143 45.2994C45.2056 45.4907 45.1922 45.7096 45.1672 45.823Z" fill="#232323"/>
<path d="M37.6992 9.97547C38.3896 9.97547 38.9492 9.41584 38.9492 8.72547C38.9492 7.67859 39.801 6.82697 40.8478 6.82697C43.2731 6.82697 45.2463 4.85384 45.2463 2.42847C45.2463 1.73809 44.6866 1.17847 43.9963 1.17847C43.3061 1.17847 42.7463 1.73809 42.7463 2.42847C42.7463 3.47534 41.8946 4.32697 40.8478 4.32697C38.4225 4.32697 36.4492 6.30009 36.4492 8.72547C36.4492 9.41584 37.009 9.97547 37.6992 9.97547Z" fill="#232323"/>
<path d="M48.79 21.7742C51.2949 21.7742 53.3328 19.7364 53.3328 17.2316C53.3328 16.1053 54.249 15.189 55.3754 15.189C56.0657 15.189 56.6254 14.6293 56.6254 13.939C56.6254 13.2486 56.0657 12.689 55.3754 12.689C52.8707 12.689 50.8328 14.7268 50.8328 17.2316C50.8328 18.3578 49.9164 19.2742 48.79 19.2742C48.0998 19.2742 47.54 19.8339 47.54 20.5242C47.54 21.2146 48.0998 21.7742 48.79 21.7742Z" fill="#232323"/>
<path d="M56 24.1855C56 26.3912 57.7944 28.1855 60 28.1855C62.2056 28.1855 64 26.3912 64 24.1855C64 21.9799 62.2056 20.1855 60 20.1855C57.7944 20.1855 56 21.9799 56 24.1855ZM60 22.6855C60.8271 22.6855 61.5 23.3584 61.5 24.1855C61.5 25.0127 60.8271 25.6855 60 25.6855C59.1729 25.6855 58.5 25.0127 58.5 24.1855C58.5 23.3584 59.1729 22.6855 60 22.6855Z" fill="#232323"/>
<path d="M39.3887 21.2317C41.5943 21.2317 43.3887 19.4373 43.3887 17.2317C43.3887 15.0261 41.5943 13.2317 39.3887 13.2317C37.183 13.2317 35.3887 15.0261 35.3887 17.2317C35.3887 19.4373 37.1832 21.2317 39.3887 21.2317ZM39.3887 15.7317C40.2158 15.7317 40.8887 16.4046 40.8887 17.2317C40.8887 18.0588 40.2158 18.7317 39.3887 18.7317C38.5615 18.7317 37.8887 18.0588 37.8887 17.2317C37.8887 16.4046 38.5615 15.7317 39.3887 15.7317Z" fill="#232323"/>
<path d="M16 8C18.2056 8 20 6.20562 20 4C20 1.79437 18.2056 0 16 0C13.7944 0 12 1.79437 12 4C12 6.20562 13.7944 8 16 8ZM16 2.5C16.8271 2.5 17.5 3.17287 17.5 4C17.5 4.82712 16.8271 5.5 16 5.5C15.1729 5.5 14.5 4.82712 14.5 4C14.5 3.17287 15.1729 2.5 16 2.5Z" fill="#232323"/>
<path d="M56.5627 43.882C56.0747 43.3939 55.2834 43.3939 54.7948 43.8819C54.3067 44.37 54.3067 45.1615 54.7948 45.6496L55.9733 46.8281C56.2174 47.0723 56.5373 47.1943 56.8572 47.1943C57.177 47.1943 57.4969 47.0721 57.741 46.8281C58.2292 46.34 58.2292 45.5485 57.741 45.0604L56.5627 43.882Z" fill="#232323"/>
<path d="M62.4552 49.7745C61.967 49.2864 61.1758 49.2864 60.6874 49.7745C60.1993 50.2627 60.1993 51.0542 60.6874 51.5424L61.8659 52.7209C62.11 52.9651 62.4299 53.0871 62.7497 53.0871C63.0696 53.0871 63.3895 52.9651 63.6336 52.7209C64.1217 52.2328 64.1217 51.4413 63.6336 50.953L62.4552 49.7745Z" fill="#232323"/>
<path d="M61.8659 43.882L60.6874 45.0605C60.1993 45.5486 60.1993 46.3401 60.6874 46.8282C60.9315 47.0724 61.2514 47.1944 61.5712 47.1944C61.8911 47.1944 62.2111 47.0722 62.4551 46.8282L63.6336 45.6497C64.1217 45.1616 64.1217 44.3701 63.6336 43.882C63.1455 43.3938 62.354 43.3939 61.8659 43.882Z" fill="#232323"/>
<path d="M55.9733 49.7745L54.7948 50.953C54.3067 51.4412 54.3067 52.2327 54.7948 52.7209C55.0389 52.9651 55.3588 53.0871 55.6787 53.0871C55.9987 53.0871 56.3184 52.9651 56.5625 52.7209L57.741 51.5424C58.2292 51.0543 58.2292 50.2628 57.741 49.7745C57.2528 49.2864 56.4615 49.2864 55.9733 49.7745Z" fill="#232323"/>
<path d="M61.5714 3.67847C61.8912 3.67847 62.2112 3.55647 62.4552 3.31234L63.6337 2.13384C64.1219 1.64572 64.1219 0.854219 63.6337 0.366094C63.1455 -0.122031 62.354 -0.122031 61.8659 0.366094L60.6874 1.54459C60.1993 2.03272 60.1993 2.82422 60.6874 3.31234C60.9316 3.55647 61.2514 3.67847 61.5714 3.67847Z" fill="#232323"/>
<path d="M55.6788 9.57092C55.9988 9.57092 56.3185 9.44892 56.5627 9.2048L57.7412 8.0263C58.2293 7.53817 58.2293 6.74668 57.7412 6.25843C57.2529 5.7703 56.4617 5.7703 55.9733 6.25843L54.7948 7.43692C54.3067 7.92505 54.3067 8.71655 54.7948 9.2048C55.0391 9.44892 55.3589 9.57092 55.6788 9.57092Z" fill="#232323"/>
<path d="M62.4552 6.25867C61.967 5.77055 61.1758 5.77055 60.6874 6.25867C60.1993 6.7468 60.1993 7.5383 60.6874 8.02655L61.8659 9.20505C62.11 9.44918 62.4299 9.57118 62.7497 9.57118C63.0696 9.57118 63.3895 9.44918 63.6336 9.20505C64.1217 8.71693 64.1217 7.92543 63.6336 7.43718L62.4552 6.25867Z" fill="#232323"/>
<path d="M55.9734 3.31234C56.2175 3.55647 56.5374 3.67847 56.8573 3.67847C57.1772 3.67847 57.497 3.55647 57.7412 3.31234C58.2293 2.82422 58.2293 2.03272 57.7412 1.54459L56.5627 0.366094C56.0747 -0.122031 55.2834 -0.122031 54.7948 0.366094C54.3067 0.854219 54.3067 1.64572 54.7948 2.13384L55.9734 3.31234Z" fill="#232323"/>
<path d="M25.1523 37.5974C24.8236 37.5974 24.5011 37.7312 24.2686 37.9637C24.0361 38.1962 23.9023 38.5187 23.9023 38.8474C23.9023 39.1762 24.0361 39.4987 24.2686 39.7312C24.5011 39.9637 24.8236 40.0974 25.1523 40.0974C25.4811 40.0974 25.8036 39.9637 26.0361 39.7312C26.2686 39.4987 26.4023 39.1762 26.4023 38.8474C26.4023 38.5187 26.2686 38.1962 26.0361 37.9637C25.8036 37.7312 25.4811 37.5974 25.1523 37.5974Z" fill="#232323"/>
<path d="M43.3895 24.5768L42.4833 25.483C41.9952 25.9712 41.9952 26.7627 42.4833 27.2509C42.7274 27.495 43.0473 27.617 43.3671 27.617C43.687 27.617 44.0069 27.495 44.251 27.2509L45.1573 26.3447C45.6454 25.8565 45.6454 25.065 45.1573 24.5768C44.669 24.0887 43.8778 24.0887 43.3895 24.5768Z" fill="#232323"/>
</g>
<defs>
<clipPath id="clip0_12878_13813">
<rect width="64" height="64" fill="white"/>
</clipPath>
</defs>
</svg>
