<svg width="65" height="65" viewBox="0 0 65 65" fill="none" xmlns="http://www.w3.org/2000/svg">
<g clip-path="url(#clip0_12914_8209)">
<path d="M32.9375 26.2808V39.717" stroke="#232323" stroke-width="2.90907" stroke-linecap="round" stroke-linejoin="round"/>
<path d="M27.1191 29.6387L38.7554 36.3586" stroke="#232323" stroke-width="2.90907" stroke-linecap="round" stroke-linejoin="round"/>
<path d="M38.7554 29.6387L27.1191 36.3586" stroke="#232323" stroke-width="2.90907" stroke-linecap="round" stroke-linejoin="round"/>
<path d="M15.4824 26.2808V39.717" stroke="#232323" stroke-width="2.90907" stroke-linecap="round" stroke-linejoin="round"/>
<path d="M9.66504 29.6387L21.3013 36.3586" stroke="#232323" stroke-width="2.90907" stroke-linecap="round" stroke-linejoin="round"/>
<path d="M21.3013 29.6387L9.66504 36.3586" stroke="#232323" stroke-width="2.90907" stroke-linecap="round" stroke-linejoin="round"/>
<path d="M50.3906 26.2808V39.717" stroke="#232323" stroke-width="2.90907" stroke-linecap="round" stroke-linejoin="round"/>
<path d="M44.5742 29.6387L56.2105 36.3586" stroke="#232323" stroke-width="2.90907" stroke-linecap="round" stroke-linejoin="round"/>
<path d="M56.2105 29.6387L44.5742 36.3586" stroke="#232323" stroke-width="2.90907" stroke-linecap="round" stroke-linejoin="round"/>
<path d="M15.4826 51.9075H8.20996V59.1802" stroke="#232323" stroke-width="2.90907" stroke-linecap="round" stroke-linejoin="round"/>
<path d="M60.7387 20.5862C62.5257 24.4815 63.461 28.7132 63.4824 32.9988C63.4791 37.0281 62.6787 41.017 61.1272 44.7356C59.5757 48.4543 57.3038 51.8292 54.4424 54.666C48.5406 60.5678 40.7443 63.4678 32.9371 63.5441C24.4044 63.6278 18.1572 61.0223 12.5736 56.2714C11.5845 55.4314 8.20996 51.9078 8.20996 51.9078" stroke="#232323" stroke-width="2.90907" stroke-linecap="round" stroke-linejoin="round"/>
<path d="M5.13619 45.4095C3.3495 41.5147 2.41416 37.2836 2.39258 32.9986C2.39583 28.9693 3.19626 24.9805 4.74774 21.2619C6.29923 17.5432 8.5711 14.1683 11.4325 11.3315C17.3343 5.42971 25.1306 2.52973 32.9379 2.45337C41.4705 2.36973 47.7178 4.97517 53.3014 9.72605C54.2905 10.566 57.665 14.0897 57.665 14.0897" stroke="#232323" stroke-width="2.90907" stroke-linecap="round" stroke-linejoin="round"/>
<path d="M50.3906 14.0898H57.6633V6.81714" stroke="#232323" stroke-width="2.90907" stroke-linecap="round" stroke-linejoin="round"/>
</g>
<defs>
<clipPath id="clip0_12914_8209">
<rect width="63.9996" height="64.0014" fill="white" transform="translate(0.9375 0.99707)"/>
</clipPath>
</defs>
</svg>
