<svg width="102" height="102" viewBox="0 0 102 102" fill="none" xmlns="http://www.w3.org/2000/svg">
<g clip-path="url(#clip0_12605_705)">
<path d="M44.5472 90.6333C44.8795 87.3471 48.5905 85.6065 51.3267 87.4556C53.9618 89.2369 56.969 91.5797 58.4955 93.8464C58.4955 93.8464 57.9934 84.4835 66.9889 92.1208C66.9889 92.1208 65.5142 88.2446 78.0171 89.6892C78.0171 89.6892 73.5248 86.5633 75.5662 81.0891C75.5662 81.0891 66.8033 74.5477 70.6343 72.7349C74.4653 70.922 85.7985 72.6995 85.7985 72.6995C85.7985 72.6995 78.9285 65.0807 91.4197 62.2395C91.4197 62.2395 87.2443 56.2974 96.3804 53.6451C96.3804 53.6451 89.3548 52.6346 88.6887 49.6033C88.6887 49.6033 80.7359 50.4074 82.6244 43.1335L74.9625 48.0594L72.8325 45.7438L70.7292 47.3608C70.2523 47.7274 69.6506 47.8921 69.0535 47.8195C68.4565 47.747 67.9117 47.443 67.5365 46.9728C67.5365 46.9728 78.0131 32.9592 82.7122 33.1109C82.7122 33.1109 74.23 31.9051 78.1442 26.1809C78.1442 26.1809 76.5598 24.0529 80.5945 21.1725C80.5945 21.1725 75.0388 18.839 80.9052 10.8595C74.7486 18.6178 71.0367 13.8703 71.0367 13.8703C69.319 18.522 66.8485 17.5511 66.8485 17.5511C62.3564 22.8327 58.9614 14.9654 58.9614 14.9654C60.3433 19.4612 49.5763 33.2514 49.5763 33.2514C49.024 33.013 48.5873 32.5672 48.3602 32.0101C48.1331 31.453 48.1338 30.8291 48.3621 30.2725L49.3693 27.818L46.5752 26.3717L49.3137 17.6843C42.7919 21.4174 41.4773 13.5341 41.4773 13.5341C38.3775 13.6883 35.5563 7.17532 35.5563 7.17532C35.401 16.6894 28.5697 14.223 28.5697 14.223C29.112 27.0218 19.9553 22.3962 19.9553 22.3962C19.9553 22.3962 24.6494 32.863 23.9075 37.0364C23.1656 41.2098 14.5506 34.4741 14.5506 34.4741C9.80787 37.8825 5.60869 34.3707 5.60869 34.3707C10.2922 46.0538 6.1617 45.6503 6.1617 45.6503C15.8981 52.322 6.72959 54.2986 6.72959 54.2986C9.31663 55.1757 12.367 57.4613 14.7801 59.5353C17.284 61.6891 16.5802 65.7271 13.4963 66.9117C10.5699 68.0359 7.60228 68.7759 7.60228 68.7759C11.7052 68.9685 18.7042 73.9073 18.7042 73.9073C24.7189 72.4536 28.6309 73.3996 28.6309 73.3996L37.7083 67.4005L34.3057 77.7351C34.3057 77.7351 36.2469 81.2615 36.4254 87.4462C36.4254 87.4462 43.0304 92.9008 44.2948 96.8088C44.2974 96.8102 44.2295 93.7526 44.5472 90.6333Z" fill="#62BB9D"/>
<path d="M77.6152 62.4019C77.5733 62.401 77.5305 62.3983 77.4885 62.3968L77.2349 62.3865C76.8975 62.3659 76.5612 62.3338 76.2259 62.2902C75.5572 62.1992 74.8959 62.0607 74.2469 61.8756C73.9226 61.7827 73.6022 61.6798 73.2867 61.5636C73.1291 61.5065 72.9721 61.445 72.8183 61.3807C72.7405 61.3487 72.6638 61.316 72.5875 61.2819C72.5113 61.2479 72.4349 61.2127 72.3651 61.1778L72.21 61.4974C72.2945 61.535 72.3723 61.5665 72.4542 61.5986C72.5362 61.6306 72.6156 61.6612 72.6966 61.6904C72.8586 61.7494 73.0215 61.8053 73.1855 61.8568C73.5133 61.9618 73.8451 62.0524 74.1785 62.1321C74.8454 62.2914 75.5229 62.4029 76.2057 62.4656C76.5467 62.4953 76.8877 62.5128 77.2286 62.5182L77.4849 62.518C77.5273 62.5177 77.5704 62.5179 77.6127 62.517L77.7412 62.513C77.8263 62.51 77.9116 62.5087 77.997 62.5038L78.2524 62.4882C78.3379 62.4839 78.4227 62.4744 78.5077 62.4666C78.5927 62.4588 78.6772 62.4523 78.7618 62.441C78.9308 62.4183 79.1005 62.4004 79.2684 62.3732C79.6058 62.3227 79.938 62.2465 80.268 62.1665C79.9343 62.2321 79.6001 62.2929 79.2624 62.3286C79.0945 62.351 78.9252 62.3623 78.7562 62.3772C78.6717 62.3843 78.5865 62.3861 78.5024 62.3914C78.4182 62.3967 78.3333 62.4009 78.2486 62.4015L77.9946 62.4061C77.9099 62.4067 77.8253 62.4043 77.7404 62.4043L77.6152 62.4019Z" fill="#62BB9D"/>
<path d="M65.7432 83.7963C65.6231 83.6439 65.499 83.4937 65.383 83.3371L65.2079 83.1048L65.0394 82.8674C64.8176 82.5499 64.6045 82.2259 64.4112 81.8926C64.3641 81.8087 64.316 81.7261 64.2699 81.6408C64.2238 81.5556 64.1788 81.4737 64.1372 81.3855C64.099 81.3105 64.0631 81.2341 64.0279 81.1581C64.5843 81.3824 65.1443 81.5926 65.7101 81.7888C66.4145 82.0333 67.1273 82.2564 67.8501 82.4376C68.5712 82.6248 69.3058 82.7559 70.0472 82.8297C69.3098 82.7338 68.5809 82.581 67.8671 82.3726C67.1527 82.1694 66.4499 81.9276 65.756 81.6631C65.1377 81.4271 64.5263 81.1751 63.922 80.9069L63.9096 80.8728L63.875 80.8864C63.8165 80.8601 63.7581 80.8345 63.6997 80.8088C63.0215 80.5058 62.3513 80.1861 61.6858 79.8569C61.0203 79.5276 60.3604 79.1863 59.7053 78.8365C59.1776 78.5553 58.6529 78.2686 58.131 77.9763L58.2053 77.9425L58.3417 77.8854C58.4329 77.8481 58.5263 77.8135 58.6196 77.7789C58.713 77.7443 58.8074 77.7125 58.9024 77.6813C58.9974 77.65 59.0927 77.6212 59.1895 77.5939L59.4776 77.5141C59.6726 77.4665 59.8672 77.416 60.0644 77.3758C60.4579 77.2891 60.8564 77.2257 61.256 77.1668C61.4562 77.14 61.657 77.1132 61.8579 77.0917L62.4627 77.0341L61.8549 77.0472C61.6524 77.057 61.4499 77.0662 61.2471 77.0778C60.8424 77.108 60.437 77.142 60.0337 77.2001C59.8318 77.2271 59.6302 77.2618 59.4291 77.2953L59.1282 77.3553C59.0276 77.3759 58.9282 77.4006 58.8279 77.4236C58.7276 77.4466 58.6292 77.4753 58.5292 77.5006C58.4292 77.5259 58.3314 77.5581 58.2329 77.5904L58.0847 77.6395L57.9379 77.6944C57.889 77.7135 57.8398 77.7338 57.7911 77.7541C57.7809 77.7585 57.7708 77.7634 57.7612 77.7677L57.7502 77.7613C57.1039 77.3964 56.4609 77.0244 55.8214 76.645C55.1818 76.2657 54.5454 75.8826 53.912 75.4956C51.7989 74.1996 49.7153 72.8574 47.6612 71.469C47.7036 71.455 47.7467 71.4421 47.7897 71.4285L47.8752 71.4022C47.9039 71.3935 47.9329 71.3867 47.9617 71.3787L48.135 71.334C48.2508 71.3065 48.3672 71.2838 48.4881 71.258C48.9661 71.1727 49.45 71.1252 49.9355 71.1158C50.0548 71.1142 50.1791 71.1101 50.3011 71.1105L50.667 71.1213L50.8501 71.1273L51.0312 71.1413L51.3976 71.1687C51.4578 71.172 51.5187 71.1806 51.5794 71.188L51.7617 71.2103L52.1262 71.2547L52.8522 71.3751L52.1334 71.2107L51.7707 71.1439L51.5868 71.1088C51.5256 71.0978 51.4642 71.0857 51.4034 71.0783L51.0382 71.0286L50.8556 71.0034L50.6711 70.9863L50.3021 70.9532C50.1816 70.9454 50.055 70.942 49.9312 70.9365C49.435 70.9158 48.938 70.9346 48.4448 70.9925C48.3209 71.0091 48.1971 71.0257 48.0735 71.0488L47.8889 71.0848C47.8578 71.089 47.8271 71.0967 47.7964 71.1038L47.7044 71.1262C47.6432 71.1422 47.5815 71.1546 47.5206 71.1729C47.4597 71.1912 47.3987 71.2084 47.3373 71.2273L47.3128 71.236C47.0191 71.0363 46.7264 70.8376 46.4347 70.64C45.2072 69.8027 43.9885 68.9535 42.7786 68.0924C42.1736 67.6618 41.5709 67.2282 40.9702 66.7915C40.6405 66.5511 40.311 66.3098 39.9818 66.0674C40.1753 66.0575 40.3687 66.0473 40.5621 66.037C41.0449 66.0122 41.5266 65.9836 42.0075 65.9511C42.9701 65.8893 43.9319 65.8204 44.8929 65.7444C45.0431 65.732 45.1936 65.7185 45.3437 65.7062L45.3502 65.7101C45.6408 65.8776 45.9342 66.0401 46.2305 66.1976C46.8229 66.5116 47.4243 66.8081 48.0376 67.078C48.6496 67.351 49.2759 67.5908 49.9138 67.7963C50.5498 68.0049 51.2048 68.1507 51.8693 68.2314C51.2116 68.1218 50.5663 67.9479 49.9426 67.7124C49.319 67.4806 48.7084 67.2151 48.1135 66.9173C47.5171 66.6224 46.9341 66.3019 46.3613 65.965C46.1946 65.8678 46.0283 65.7671 45.8626 65.663C47.461 65.5269 49.0571 65.3713 50.6511 65.1963C52.3975 65.0024 54.1409 64.7831 55.8813 64.5383L56.0546 64.5922C56.2453 64.6504 56.4366 64.7061 56.6285 64.7592C57.012 64.8649 57.3978 64.9615 57.7859 65.049C58.1741 65.1365 58.563 65.2147 58.9527 65.2837C59.344 65.3532 59.7368 65.4124 60.1309 65.4613C60.5247 65.5102 60.9196 65.55 61.3157 65.5759C61.5137 65.5912 61.7118 65.5981 61.9097 65.6081C62.1077 65.6181 62.3065 65.6213 62.5047 65.6199C63.2972 65.6268 64.089 65.5722 64.8731 65.4566C64.0875 65.5423 63.2965 65.567 62.5071 65.5306C62.3103 65.5246 62.1134 65.5092 61.9169 65.4966C61.7205 65.484 61.5238 65.4655 61.3283 65.4427C60.9357 65.402 60.5454 65.3478 60.1569 65.2845C59.7683 65.2212 59.3811 65.1493 58.9963 65.0651C58.6116 64.9809 58.2284 64.8906 57.8486 64.7896C57.4688 64.6887 57.0908 64.5791 56.7164 64.4601L56.6259 64.431C58.4531 64.1626 60.2751 63.8591 62.0918 63.5204C63.9868 63.1647 65.8746 62.7639 67.7453 62.3021C67.9769 62.2466 68.2131 62.1851 68.4466 62.1258C68.6801 62.0665 68.9142 62.0077 69.1465 61.9437L69.845 61.7559L70.5405 61.5594C71.4675 61.2926 72.3886 61.0092 73.3031 60.7022C74.2175 60.3952 75.1215 60.0598 76.0147 59.697C76.9079 59.3343 77.79 58.9415 78.6485 58.5027C79.5088 58.0683 80.3417 57.5817 81.1425 57.0456C81.9445 56.5115 82.6929 55.9011 83.3773 55.2229C82.6785 55.8841 81.9172 56.4758 81.104 56.9899C80.294 57.5056 79.4531 57.9709 78.5859 58.3832C77.7211 58.7977 76.8353 59.1708 75.9384 59.5107C75.0415 59.8505 74.1329 60.1609 73.2177 60.4483C72.3025 60.7357 71.3784 60.9932 70.4496 61.237L69.7523 61.4163L69.0533 61.5869C68.822 61.6447 68.5865 61.6978 68.353 61.7523C68.1195 61.8069 67.8854 61.8615 67.6506 61.9114C66.7222 62.1181 65.7918 62.3099 64.8594 62.4868L64.8826 62.4413C64.9558 62.3006 65.0346 62.1616 65.1154 62.0241C65.2777 61.749 65.4522 61.4805 65.6386 61.2185C66.0121 60.6944 66.4225 60.1976 66.8667 59.7318C67.0901 59.4994 67.3177 59.2711 67.557 59.0539L67.6457 58.9715L67.7366 58.8918L67.9288 58.7382L68.1147 58.5825C68.1764 58.53 68.2383 58.4787 68.3021 58.4289C68.8065 58.0229 69.335 57.6479 69.8848 57.3059C69.3179 57.6233 68.7706 57.9747 68.2461 58.3582C68.1795 58.4053 68.115 58.4546 68.0504 58.5039L67.856 58.6494L67.6656 58.8027L67.5706 58.8788L67.4771 58.9576C67.2259 59.1657 66.9852 59.3855 66.7488 59.6102C66.2761 60.0625 65.8362 60.5479 65.4325 61.0627C65.2305 61.3215 65.0394 61.5885 64.859 61.8636C64.7687 62.0012 64.6819 62.1415 64.5987 62.2845C64.5568 62.3558 64.5163 62.4282 64.4764 62.501L64.4399 62.5716C63.6307 62.7225 62.8199 62.8645 62.0075 62.9975C58.2703 63.6092 54.5066 64.053 50.7346 64.3862C50.8253 64.2157 50.9184 64.0455 51.0131 63.8774C51.1756 63.5888 51.344 63.3033 51.5182 63.0211C51.867 62.4575 52.2382 61.9089 52.6408 61.3806C53.0386 60.8501 53.4843 60.3572 53.9723 59.9081C54.2175 59.6848 54.4827 59.4847 54.7648 59.3103C55.046 59.1321 55.356 59.0041 55.681 58.932C55.3509 58.9904 55.0333 59.1053 54.7422 59.2715C54.4494 59.4355 54.1723 59.626 53.9143 59.8406C53.401 60.2726 52.9283 60.7507 52.5021 61.2689C52.0728 61.7838 51.6697 62.3199 51.2943 62.8754C51.1055 63.1528 50.9224 63.4336 50.7449 63.7179C50.6003 63.95 50.4599 64.1827 50.3234 64.4215C48.4963 64.5779 46.6671 64.7083 44.8358 64.8127C43.8774 64.8672 42.9193 64.9141 41.9613 64.9534C41.4823 64.9733 41.0032 64.9908 40.524 65.0059C40.486 65.0074 40.4472 65.0084 40.4085 65.0094C41.0632 64.1322 41.7157 63.2538 42.3661 62.374C42.7684 62.2007 43.1698 62.0243 43.5705 61.8448C44.2757 61.5297 44.9775 61.2062 45.6761 60.8741C46.3732 60.5418 47.0661 60.1963 47.7469 59.8268C48.0866 59.6415 48.4225 59.4502 48.7498 59.2432C48.9151 59.1392 49.0734 59.0314 49.2282 58.9157C49.3052 58.857 49.3815 58.7972 49.4534 58.732C49.5265 58.6687 49.5931 58.5983 49.6524 58.5219C49.5906 58.5961 49.5214 58.6636 49.4457 58.7235C49.3721 58.7853 49.2943 58.8423 49.2156 58.8971C49.0569 59.0067 48.893 59.1081 48.7267 59.2051C48.3941 59.3984 48.0516 59.5763 47.7058 59.7474C47.0154 60.0896 46.3113 60.4055 45.6041 60.7116C44.8969 61.0178 44.1833 61.3116 43.4676 61.5986C43.22 61.6979 42.9716 61.7964 42.7226 61.8943C43.5319 60.7972 44.3384 59.6974 45.1422 58.5947C45.9274 57.5169 46.7085 56.4364 47.4854 55.3532C48.14 54.4398 48.7912 53.5245 49.4389 52.6072C49.4483 52.606 49.4571 52.6048 49.4659 52.6036C49.558 52.5913 49.6496 52.5743 49.7406 52.5579C49.9233 52.5257 50.104 52.4872 50.2844 52.4463C50.6438 52.3636 51.0002 52.2669 51.3514 52.1584C52.053 51.9394 52.7396 51.6746 53.4067 51.3659C53.7392 51.2114 54.0682 51.0491 54.3898 50.8758C54.5517 50.7908 54.7102 50.6979 54.8697 50.6079C54.949 50.5626 55.0269 50.5145 55.1054 50.4675C55.184 50.4206 55.2627 50.3748 55.3397 50.3251C55.9599 49.9382 56.557 49.5155 57.128 49.0592C56.5404 49.491 55.9281 49.8879 55.2942 50.2481C55.2155 50.2945 55.1352 50.3369 55.0555 50.3804C54.9759 50.4239 54.8959 50.4687 54.8154 50.5106C54.653 50.592 54.4931 50.6786 54.3282 50.755C54.0029 50.918 53.6703 51.0629 53.3352 51.2028C52.6653 51.4802 51.9779 51.7135 51.2775 51.9011C50.9278 51.9937 50.5756 52.0737 50.2209 52.1411C50.0505 52.1723 49.8799 52.201 49.7092 52.2251L49.8027 52.0931C50.569 51.0022 51.3307 49.9076 52.0876 48.8092C52.8445 47.7108 53.5931 46.6063 54.3333 45.4958C55.0733 44.3866 55.8022 43.2698 56.5203 42.1455L56.5776 42.056C56.9958 41.8363 57.4031 41.6068 57.8082 41.3697C58.2473 41.1118 58.681 40.8458 59.1093 40.5718C59.5375 40.2978 59.9599 40.0144 60.3765 39.7216C60.5844 39.5743 60.79 39.4273 60.9957 39.2761C61.2013 39.1249 61.4031 38.9718 61.6026 38.8142C61.802 38.6567 62.0006 38.4975 62.1961 38.338C62.3917 38.1786 62.5863 38.0116 62.7758 37.8422L62.9184 37.7161C62.9666 37.6739 63.0121 37.6301 63.0596 37.5873C63.1526 37.5008 63.2469 37.4153 63.3386 37.3277L63.612 37.0623C63.6581 37.0184 63.7028 36.973 63.7465 36.9247L63.8793 36.7875C64.5862 36.0589 65.2286 35.2595 65.7224 34.373C65.2027 35.245 64.5405 36.0208 63.816 36.7248L63.68 36.8565C63.6346 36.9009 63.5896 36.9446 63.5422 36.9874L63.2627 37.2434C63.1688 37.3277 63.0728 37.4093 62.9776 37.4925C62.93 37.5342 62.8824 37.5764 62.834 37.6163L62.6882 37.7374C62.495 37.9007 62.2959 38.0564 62.0982 38.2131C61.9004 38.3698 61.6979 38.5218 61.4929 38.6694C61.288 38.8169 61.0829 38.9632 60.8767 39.1103C60.6705 39.2574 60.4602 39.3961 60.2486 39.5344C59.827 39.8131 59.3995 40.0824 58.9662 40.3423C58.5329 40.6023 58.0948 40.8533 57.652 41.0954C57.4176 41.2236 57.1811 41.3502 56.9431 41.4735C57.514 40.5689 58.0743 39.6574 58.6238 38.7389C59.3071 37.5934 59.9696 36.4345 60.5883 35.2529L60.8193 34.809L61.0426 34.3609C61.1941 34.0639 61.3321 33.7599 61.4746 33.4587C61.7488 32.8508 62.0096 32.2363 62.2234 31.6053C61.9883 32.229 61.7076 32.833 61.414 33.4298C61.2617 33.7256 61.114 34.0239 60.9534 34.3149L60.7133 34.7539L60.4686 35.1888C59.8125 36.3462 59.1131 37.4783 58.3941 38.5981C57.675 39.7179 56.9346 40.8251 56.1811 41.9196C55.4276 43.0142 54.6636 44.1059 53.8887 45.1872C53.7044 45.4445 53.5196 45.7013 53.3344 45.9575C53.3098 45.5083 53.2895 45.0589 53.2735 44.6092C53.2528 43.932 53.2441 43.2543 53.2538 42.5766C53.2635 41.8989 53.2911 41.2211 53.3581 40.5471C53.3907 40.2099 53.4365 39.8739 53.5008 39.5414C53.5594 39.2072 53.6576 38.8811 53.7933 38.5701C53.6436 38.8761 53.5309 39.1989 53.4577 39.5317C53.3783 39.8632 53.3175 40.1988 53.2694 40.5362C53.1732 41.2106 53.1159 41.8899 53.0754 42.57C53.0349 43.25 53.0149 43.9309 53.0061 44.6109C52.9988 45.2059 53.0014 45.8011 53.0137 46.3966C52.5252 47.0715 52.0336 47.7444 51.5389 48.4153C50.7481 49.4863 49.9518 50.5529 49.1502 51.6151C48.3485 52.6772 47.5418 53.7357 46.7301 54.7904C46.069 55.6497 45.4053 56.5073 44.739 57.3633C44.6886 56.796 44.6423 56.2282 44.6002 55.6598C44.535 54.7793 44.4798 53.8982 44.4401 53.0167C44.4005 52.1352 44.3755 51.2518 44.3848 50.3698C44.3909 49.9286 44.4047 49.4869 44.4421 49.0475C44.4605 48.8275 44.485 48.6085 44.521 48.391C44.5531 48.1724 44.6116 47.9585 44.6951 47.754C44.6045 47.9562 44.5388 48.1686 44.4995 48.3867C44.4551 48.6041 44.4241 48.8234 44.3979 49.0432C44.3456 49.4828 44.3169 49.9247 44.2959 50.3667C44.2559 51.2511 44.2519 52.1366 44.2615 53.0215C44.2712 53.9063 44.2969 54.7909 44.3327 55.6752C44.3609 56.3682 44.395 57.0608 44.435 57.753C44.3842 57.8196 44.3329 57.8832 44.2818 57.9474C42.6402 60.0501 40.9859 62.1428 39.3189 64.2254L39.2771 64.0517C39.1658 63.5858 39.0567 63.1189 38.9499 62.6512C38.7356 61.7166 38.5291 60.78 38.3302 59.8414C38.2363 59.399 38.1441 58.9566 38.0534 58.5142C38.3625 57.4566 38.6608 56.3962 38.9484 55.3331C39.126 54.6688 39.2987 54.0033 39.458 53.3355L39.5754 52.8328C39.6128 52.6658 39.6499 52.4965 39.6871 52.3284C39.7244 52.1603 39.7531 51.9909 39.785 51.8223L39.808 51.6956L39.8262 51.5677L39.8669 51.3184L39.8202 51.572L39.797 51.6982L39.7681 51.8216C39.7307 51.9886 39.6934 52.1567 39.6481 52.3223C39.6027 52.4879 39.5641 52.655 39.5172 52.8178L39.3787 53.3144C39.1884 53.9739 38.9876 54.63 38.7818 55.2849C38.5059 56.1556 38.2221 57.0238 37.9304 57.8894C37.6826 56.6598 37.4469 55.4277 37.2231 54.1932C36.5706 50.5757 36.0203 46.9444 35.6256 43.2888L35.6646 43.3123C36.0095 42.7056 36.334 42.094 36.6479 41.4747C36.9618 40.8555 37.2581 40.229 37.538 39.5922C37.678 39.2747 37.8106 38.9543 37.9358 38.6308C38.061 38.3073 38.1766 37.9803 38.2826 37.6498C38.3909 37.3199 38.4809 36.9843 38.552 36.6445C38.6274 36.3055 38.6602 35.9585 38.6498 35.6114C38.6452 35.9571 38.5976 36.3008 38.5083 36.6348C38.4232 36.969 38.3199 37.2982 38.1987 37.621C38.0791 37.9449 37.9495 38.2644 37.81 38.5795C37.6705 38.8945 37.5251 39.2074 37.3739 39.518C37.0707 40.1376 36.7465 40.7469 36.4095 41.3495C36.1382 41.8321 35.8577 42.3124 35.5695 42.7848C35.3744 40.8796 35.2187 38.9704 35.1284 37.0578C35.1157 36.8204 35.1067 36.5784 35.0973 36.3389C35.088 36.0993 35.078 35.8592 35.0727 35.6191L35.0536 34.8998L35.0433 34.1799C35.0345 33.2207 35.0455 32.2613 35.0765 31.3018C35.1129 30.3409 35.1733 29.3857 35.266 28.4304C35.3587 27.475 35.4829 26.5232 35.6578 25.5796C35.8277 24.6345 36.0556 23.7008 36.3403 22.7838C36.6228 21.8642 36.9936 20.9741 37.4475 20.1259C36.973 20.9645 36.5808 21.8471 36.2763 22.7612C35.9696 23.6749 35.7191 24.6064 35.5261 25.5506C35.3285 26.4949 35.1825 27.449 35.0661 28.4057C34.9497 29.3624 34.868 30.3241 34.8091 31.2862C34.7679 31.9993 34.739 32.7124 34.7225 33.4257C34.6234 33.2699 34.5252 33.1121 34.4288 32.9541C34.236 32.6389 34.0489 32.3201 33.8676 31.9978C33.6864 31.6755 33.5102 31.3501 33.3419 31.0206C33.1735 30.6912 33.0142 30.3582 32.8575 30.0224C32.7009 29.6866 32.5607 29.345 32.4267 28.9996C32.2926 28.6543 32.1741 28.3044 32.0682 27.9499L31.9924 27.6828L31.9259 27.4138C31.9019 27.3238 31.8867 27.2326 31.8669 27.1426L31.8392 27.0065L31.8172 26.869C31.7531 26.5035 31.7267 26.1325 31.7383 25.7616C31.7118 26.1331 31.7235 26.5064 31.7732 26.8755L31.7918 27.0141L31.8144 27.1521C31.8308 27.2437 31.8427 27.3365 31.8631 27.427L31.9195 27.7009L31.9846 27.973C32.0764 28.3344 32.1828 28.6919 32.3038 29.0454C32.4247 29.3989 32.5557 29.7479 32.6966 30.0923C32.8376 30.438 32.9868 30.7799 33.144 31.1182C33.3003 31.4558 33.4648 31.7924 33.637 32.1237C33.8092 32.455 33.9825 32.7849 34.1641 33.1108C34.3457 33.4367 34.5222 33.7423 34.715 34.053L34.7125 34.1728L34.7059 34.8961L34.7082 35.6189C34.7079 35.8579 34.7129 36.101 34.7165 36.342C34.72 36.5829 34.7212 36.8242 34.7307 37.0649C34.7771 38.9924 34.8877 40.9179 35.0415 42.8399C35.2542 45.4748 35.549 48.1028 35.906 50.7219C35.7975 50.6169 35.6903 50.5118 35.5836 50.4065C35.2969 50.1222 35.0156 49.8324 34.7394 49.5371C34.1883 48.9464 33.6561 48.3363 33.1575 47.6997C33.0317 47.5415 32.9109 47.3796 32.7889 47.2184C32.667 47.0573 32.5492 46.892 32.4359 46.7279C32.3225 46.5638 32.2117 46.3927 32.0972 46.2246C31.9827 46.0565 31.8806 45.8831 31.78 45.7072C31.6794 45.5312 31.5806 45.3556 31.4839 45.1779L31.3473 44.9069C31.3234 44.8623 31.3029 44.8161 31.2817 44.7699L31.2185 44.632C31.05 44.2637 30.9105 43.8828 30.8013 43.4927C30.8965 43.8878 31.0222 44.275 31.1774 44.6506L31.2362 44.7916C31.2557 44.8386 31.2745 44.8856 31.2968 44.9316L31.4242 45.2092C31.5149 45.3913 31.6039 45.5741 31.7024 45.7522C31.8009 45.9302 31.9017 46.1074 32.003 46.2838C32.1043 46.4603 32.2134 46.6327 32.3252 46.803C32.437 46.9733 32.5499 47.1428 32.6628 47.3124C32.7758 47.4819 32.8952 47.6464 33.0157 47.8107C33.4948 48.4703 34.0074 49.1038 34.5415 49.7195C34.8086 50.0276 35.0815 50.3297 35.3601 50.6259C35.5643 50.8435 35.7699 51.0581 35.9841 51.2696C36.1253 52.2865 36.2759 53.3037 36.436 54.3212C36.7354 56.2256 37.0637 58.1255 37.4208 60.021C37.5982 60.9685 37.7846 61.9148 37.9799 62.8599C38.0766 63.3321 38.1754 63.8043 38.2764 64.2764L38.3995 64.8438C38.0876 64.5971 37.7769 64.3494 37.4671 64.1009C37.07 63.7823 36.6742 63.4622 36.2798 63.1405C36.2559 62.9919 36.2295 62.8439 36.2006 62.6964C36.1378 62.3789 36.0651 62.0642 35.9823 61.7522C35.8995 61.4402 35.8078 61.1309 35.707 60.8245C35.606 60.5193 35.4956 60.2168 35.3758 59.9169C35.258 59.6172 35.1267 59.3234 34.9909 59.0321C34.8551 58.7407 34.7053 58.456 34.5506 58.1749C34.2387 57.6145 33.8895 57.0757 33.5054 56.5621C33.864 57.0914 34.1869 57.6441 34.4719 58.2165C34.6124 58.5031 34.7461 58.7923 34.8686 59.0867C34.991 59.381 35.106 59.6781 35.2091 59.9793C35.3121 60.2804 35.4094 60.5835 35.494 60.8895C35.5785 61.1955 35.6557 61.5042 35.7224 61.815C35.7891 62.1258 35.8469 62.4371 35.8933 62.7482L35.906 62.8433L35.7371 62.7064C34.5889 61.7649 33.4492 60.8123 32.318 59.8486C30.4167 58.2267 28.5457 56.5696 26.7051 54.8774C26.7152 54.8276 26.7247 54.778 26.7324 54.7285C26.7534 54.6004 26.7676 54.4712 26.775 54.3416C26.7913 54.0851 26.7868 53.8277 26.7617 53.5719C26.7115 53.0655 26.5955 52.5678 26.4166 52.0913C26.3292 51.8549 26.229 51.6233 26.1165 51.3977C26.0585 51.2859 26.0034 51.1738 25.9396 51.0628C25.9083 51.0073 25.8781 50.9515 25.8467 50.8996L25.7481 50.7395C25.4833 50.3153 25.1849 49.913 24.8558 49.5365C25.1601 49.9301 25.4326 50.3472 25.671 50.7838L25.7587 50.9478C25.7871 51.0037 25.8137 51.0599 25.841 51.1161C25.8972 51.228 25.9452 51.3411 25.9955 51.4539C26.0921 51.6807 26.1762 51.9126 26.2474 52.1486C26.3924 52.6161 26.4755 53.1006 26.4946 53.5897C26.5042 53.8305 26.4941 54.0717 26.4644 54.3108C26.4527 54.411 26.4361 54.5106 26.4158 54.6083C26.1661 54.3768 25.9173 54.1446 25.6694 53.9117C25.1277 53.4033 24.5908 52.8899 24.0585 52.3716C23.5263 51.8532 22.9982 51.3307 22.4744 50.804C21.9513 50.2764 21.4351 49.7424 20.9257 49.2018C20.4164 48.6612 19.9147 48.1137 19.4206 47.5591C19.2801 47.4022 19.1417 47.2447 19.0054 47.0864L19.0166 47.0849C19.013 46.5791 19.0064 46.0742 18.9968 45.5704C18.9871 45.0666 18.9754 44.562 18.9616 44.0567C18.946 43.5521 18.9279 43.0454 18.9007 42.5435C18.8867 42.2914 18.8704 42.0396 18.8487 41.788C18.8372 41.6622 18.8252 41.5365 18.8078 41.411L18.7952 41.3171L18.7791 41.2236C18.7685 41.1614 18.7518 41.1004 18.7291 41.0415C18.7478 41.1015 18.7609 41.1632 18.768 41.2257L18.7805 41.3191L18.7883 41.413C18.7973 41.5385 18.8023 41.6645 18.8065 41.79C18.8139 42.0418 18.8142 42.2939 18.8138 42.5455C18.8118 43.0489 18.8003 43.5525 18.7858 44.0563C18.7714 44.5602 18.7527 45.0635 18.7322 45.567C18.716 45.946 18.6986 46.3256 18.6802 46.7057C18.4438 46.4274 18.2087 46.1469 17.9748 45.8643C17.5048 45.2896 17.0476 44.7042 16.61 44.1042C16.1724 43.5043 15.7543 42.8897 15.3705 42.2539C14.9817 41.6199 14.6426 40.9566 14.3563 40.2701C14.6223 40.9662 14.9419 41.6407 15.3122 42.2874C15.6782 42.937 16.0809 43.5661 16.5008 44.1816C16.9208 44.797 17.3633 45.3981 17.8183 45.9892C18.0946 46.3484 18.3774 46.7026 18.6635 47.0545L18.6622 47.0762L18.6808 47.0767C18.8595 47.2958 19.0393 47.5141 19.2202 47.7317C19.6981 48.3052 20.1851 48.8696 20.6813 49.4251C20.9451 49.7233 21.2111 50.0191 21.4795 50.3127C21.449 50.3167 21.4208 50.3205 21.3873 50.325C21.2451 50.3386 21.1009 50.346 20.9562 50.3456C20.6659 50.3452 20.3761 50.3202 20.09 50.2709C19.5113 50.1717 18.9492 49.9927 18.4198 49.739C18.1526 49.6131 17.8929 49.4719 17.6419 49.3161C17.5171 49.236 17.3908 49.1585 17.271 49.0717C17.2103 49.029 17.1486 48.9877 17.0889 48.9437L16.9114 48.8091C16.4381 48.4469 15.9956 48.0462 15.5883 47.6111C15.9734 48.0689 16.3954 48.4943 16.8502 48.883L17.0225 49.0273C17.0802 49.0751 17.1406 49.1196 17.2 49.1661C17.3171 49.2597 17.4408 49.3448 17.5631 49.4324C17.8109 49.6036 18.0683 49.7605 18.334 49.9023C18.8683 50.1912 19.4398 50.4051 20.0325 50.5379C20.3316 50.6047 20.6357 50.6462 20.9418 50.6619C21.096 50.669 21.2505 50.6682 21.4046 50.6597C21.4824 50.6559 21.5604 50.6496 21.6382 50.6416C21.6775 50.6363 21.7163 50.6311 21.7556 50.6259C21.8956 50.7788 22.0367 50.9311 22.1789 51.0826C22.6869 51.6285 23.2006 52.1688 23.7199 52.7037C24.2392 53.2385 24.7624 53.7697 25.2895 54.2971C27.0495 56.0535 28.8479 57.7713 30.6848 59.4504C30.545 59.4691 30.4049 59.4849 30.2644 59.4977C29.9525 59.5293 29.6389 59.5521 29.3249 59.5636C29.011 59.5752 28.6978 59.5836 28.3835 59.5796C28.0693 59.5757 27.7551 59.5633 27.4421 59.5377C27.1292 59.512 26.8163 59.478 26.5061 59.4239C26.1951 59.3747 25.887 59.3083 25.5832 59.2253C25.5066 59.2063 25.4316 59.1817 25.3568 59.1588C25.282 59.1359 25.2056 59.1139 25.1325 59.0854C25.0593 59.057 24.9838 59.033 24.9102 59.0052L24.6919 58.9149C24.4023 58.7887 24.1243 58.6374 23.8612 58.4626C24.1169 58.6503 24.3887 58.8151 24.6734 58.955L24.889 59.0564C24.9619 59.0879 25.0358 59.1175 25.1084 59.1466C25.181 59.1757 25.257 59.2038 25.3318 59.2309C25.4065 59.2579 25.4808 59.2862 25.5573 59.3088C25.8599 59.4074 26.1677 59.4892 26.4793 59.5542C26.7907 59.6219 27.1057 59.6712 27.4218 59.7119C27.738 59.7527 28.0555 59.7807 28.3735 59.7991C28.6914 59.8175 29.0101 59.8275 29.3292 59.8278C29.6483 59.8281 29.9664 59.8202 30.2856 59.8032C30.4437 59.7944 30.6031 59.7838 30.7636 59.7715C30.8467 59.7648 30.93 59.7572 31.0133 59.7489C31.2679 59.9813 31.5228 60.2135 31.7782 60.4455C32.8829 61.4462 33.9979 62.4361 35.1232 63.4153C35.6855 63.905 36.2504 64.3917 36.8179 64.8755C37.1478 65.156 37.4777 65.4352 37.8077 65.7129L37.2434 65.7245C36.7924 65.7366 36.3421 65.7516 35.8923 65.7696C35.2699 65.7951 34.6483 65.8269 34.0276 65.8649C33.7706 65.7722 33.5125 65.6818 33.2533 65.5938C32.71 65.4096 32.1632 65.2348 31.6123 65.0742C31.0613 64.9137 30.507 64.7674 29.9473 64.6397C29.3883 64.5139 28.8232 64.4168 28.2543 64.3487C28.8175 64.4456 29.3753 64.5716 29.9254 64.7263C30.4754 64.8797 31.0191 65.058 31.5582 65.2422C32.0974 65.4264 32.6304 65.6318 33.1606 65.8429C33.2154 65.8642 33.27 65.888 33.3248 65.9093C33.281 65.9122 33.2377 65.9144 33.1939 65.9179C31.398 66.0458 29.6052 66.2188 27.8229 66.4704C27.5998 66.5002 27.3768 66.5301 27.1545 66.5658L26.4876 66.6687C26.2653 66.7045 26.044 66.743 25.8219 66.7799C25.711 66.7995 25.6003 66.8167 25.4896 66.8375L25.1578 66.8986L24.826 66.9603L24.6605 66.9915L24.4947 67.025L23.8339 67.16C23.7433 67.1799 23.6528 67.1998 23.5623 67.2202C22.9712 67.1476 22.3812 67.0837 21.7895 67.0248C21.1978 66.9659 20.5895 66.9123 19.9884 66.8678C19.3873 66.8233 18.7829 66.7901 18.1829 66.7723L17.7306 66.7636L17.2784 66.7643C17.1276 66.7672 16.9771 66.7765 16.8267 66.7829L16.7703 66.7851L16.7116 66.7929L16.599 66.805L16.375 66.8278L16.5998 66.8156L16.7126 66.8095L16.7719 66.8064L16.8281 66.8066C16.9783 66.808 17.1269 66.8067 17.2786 66.8103L17.7287 66.8295L18.1781 66.8608C18.7763 66.9079 19.3737 66.9692 19.9702 67.0447C20.5667 67.1203 21.1618 67.2018 21.7556 67.2893C22.0564 67.3347 22.3567 67.3814 22.6563 67.4293L22.5186 67.4633C22.0807 67.5667 21.6478 67.6897 21.2143 67.8081L20.5686 68.002L20.4072 68.0511L20.2477 68.1047L19.9279 68.2108C19.0761 68.4948 18.2431 68.8322 17.4338 69.221C18.2591 68.8737 19.1057 68.579 19.9683 68.3387L20.2908 68.2484L20.4521 68.2035L20.6152 68.1631L21.2653 68.002C21.7018 67.906 22.1354 67.8055 22.5769 67.7244L22.9053 67.6601C23.0146 67.6377 23.1253 67.6211 23.235 67.6011L23.4605 67.5625C23.485 67.567 23.51 67.5709 23.5345 67.5753L23.5382 67.5492L23.8951 67.4882L24.5574 67.3865L24.7231 67.3613L25.5526 67.2503C25.6636 67.2355 25.7743 67.2237 25.8854 67.21C26.1072 67.1839 26.3282 67.1567 26.5502 67.1318L27.2162 67.063C27.4383 67.0393 27.6607 67.0221 27.8832 67.0013C28.4548 66.9503 29.0267 66.9071 29.5988 66.8716C29.5118 66.9485 29.4242 67.0244 29.3358 67.0991C29.2431 67.1791 29.1495 67.2567 29.0554 67.3344C28.6787 67.6454 28.2955 67.9476 27.8999 68.2336C27.8015 68.3065 27.7006 68.3744 27.6007 68.4451L27.4505 68.5507L27.2978 68.6512C27.1956 68.7174 27.0943 68.7871 26.9905 68.8506L26.6772 69.0414C26.2566 69.2921 25.8166 69.5088 25.3615 69.6895C25.8284 69.5357 26.2825 69.3453 26.7194 69.12L27.0458 68.9472C27.1575 68.8887 27.2596 68.8254 27.3669 68.765L27.5272 68.6725L27.6846 68.5761C27.7894 68.5113 27.8958 68.4487 27.9992 68.3817C28.415 68.1175 28.8225 67.8359 29.2187 67.5457C29.3182 67.4726 29.4178 67.3995 29.5156 67.3267C29.6134 67.2538 29.7126 67.1778 29.8101 67.102C29.921 67.0155 30.0306 66.9285 30.1401 66.8404C31.1682 66.7825 32.1974 66.7428 33.2279 66.7212C34.1197 66.7023 35.0118 66.6971 35.904 66.7056C36.3503 66.7092 36.7959 66.7166 37.2407 66.7275L37.3007 66.7291C36.306 67.962 35.308 69.1927 34.3067 70.421C32.6239 72.4838 30.9326 74.5394 29.2327 76.5878C28.3826 77.6122 27.5306 78.6344 26.6768 79.6546C25.8229 80.6747 24.9664 81.6916 24.1073 82.7052L25.759 84.0636C26.5909 83.0148 27.4128 81.9672 28.2349 80.9161C29.0569 79.865 29.8757 78.8125 30.6926 77.7585C32.3263 75.6504 33.951 73.5356 35.5666 71.4141C36.5304 70.147 37.4913 68.8773 38.4493 67.605L38.4671 67.6623C38.5947 68.0895 38.7189 68.5174 38.8396 68.9463C38.9982 69.5063 39.1509 70.0685 39.2977 70.6328L39.2718 70.6889C39.2483 70.741 39.2261 70.7942 39.2033 70.8468C39.1804 70.8995 39.1576 70.9521 39.1384 71.0055L39.0761 71.1644L38.9607 71.4858C38.8126 71.915 38.6942 72.3521 38.5891 72.7904C38.5637 72.9001 38.5372 73.01 38.5137 73.1201L38.4468 73.4512L38.4134 73.617L38.3849 73.7833L38.3272 74.1161C38.2918 74.3384 38.2619 74.5611 38.2289 74.7836L38.1509 75.4513L38.2728 74.7897C38.3204 74.57 38.3645 74.3501 38.4142 74.132L38.4936 73.8053L38.5316 73.6424L38.5757 73.4806L38.6638 73.1568C38.6948 73.0493 38.7284 72.9427 38.7607 72.8361C38.8924 72.4092 39.0373 71.987 39.2097 71.578L39.3422 71.2734L39.413 71.1235L39.42 71.1088C39.4561 71.2492 39.4922 71.3896 39.5271 71.5301C39.959 73.262 40.3459 75.0059 40.6606 76.7636C40.699 76.9838 40.7408 77.2028 40.7763 77.4234L40.885 78.0841C40.9193 78.3048 40.9513 78.5258 40.9844 78.7466C40.9992 78.857 41.0187 78.9673 41.0329 79.0778L41.1439 79.9072L41.1661 80.0734L41.242 80.739L41.2543 80.8617C41.0477 81.1576 40.8494 81.4537 40.6571 81.7579C40.4332 82.1075 40.2134 82.4614 40.0094 82.8215C39.9056 83.0015 39.8055 83.1835 39.709 83.3673C39.614 83.5503 39.5194 83.7368 39.4329 83.9253C39.3463 84.1137 39.2651 84.3062 39.1962 84.5013C39.1247 84.696 39.0732 84.8975 39.0424 85.1027C39.0873 84.9016 39.1528 84.7055 39.2379 84.5178C39.3194 84.3276 39.414 84.1459 39.5129 83.9653C39.6119 83.7848 39.7161 83.6083 39.8248 83.4336C39.9335 83.2589 40.0454 83.0862 40.1606 82.9154C40.3898 82.574 40.6307 82.2394 40.8765 81.9102C41.0164 81.7233 41.1587 81.538 41.3034 81.3541L41.3102 81.4052C41.3197 81.5163 41.3328 81.6274 41.3399 81.7388L41.3649 82.0731C41.4018 82.5181 41.4194 82.9621 41.4417 83.4109L41.4573 84.081L41.4606 84.2486L41.4597 84.416L41.4574 84.7515C41.4522 85.6467 41.3904 86.5408 41.2723 87.4282C41.4347 86.5452 41.5413 85.6528 41.5913 84.7563L41.6102 84.4197L41.6194 84.2518L41.6243 84.0832L41.6423 83.4091C41.6419 82.9598 41.6472 82.5122 41.6315 82.0601L41.6235 81.723C41.6222 81.6108 41.6143 81.4983 41.61 81.386L41.5924 80.9951L41.637 80.9401L41.5883 80.9018L41.579 80.7119L41.5356 80.0389L41.5243 79.8701L41.5108 79.7022L41.4832 79.3659L41.4555 79.0296C41.4459 78.9173 41.434 78.806 41.4231 78.6939C41.4003 78.4699 41.38 78.2461 41.356 78.0223L41.2795 77.3519C41.2549 77.1281 41.2233 76.9053 41.1958 76.6819C41.1497 76.3373 41.1035 75.9921 41.0573 75.6469C41.106 75.6936 41.1542 75.7409 41.2024 75.7888C41.3939 75.9787 41.5812 76.1728 41.7643 76.371C42.1296 76.7703 42.4786 77.1855 42.8043 77.6194C42.9673 77.8366 43.1255 78.0544 43.2755 78.2823C43.3499 78.3919 43.4253 78.5091 43.5004 78.6233C43.5754 78.7376 43.6436 78.8539 43.7107 78.9716C43.9863 79.4413 44.2256 79.9312 44.4267 80.4373C44.2527 79.919 44.0394 79.4147 43.7886 78.9289C43.7281 78.8068 43.6613 78.6872 43.5967 78.5662C43.5321 78.4452 43.4625 78.3272 43.3914 78.2107C43.2528 77.9741 43.1048 77.7435 42.9524 77.5153C42.6476 77.0595 42.3175 76.6202 41.9691 76.1954C41.7949 75.9832 41.6152 75.775 41.4302 75.5707C41.3383 75.4689 41.2441 75.368 41.1507 75.2681C41.0944 75.2093 41.0383 75.1517 40.9809 75.0936C40.7907 73.8415 40.5694 72.5941 40.3243 71.3517C40.1491 70.4681 39.961 69.5874 39.7599 68.7096C39.6612 68.2698 39.5573 67.8312 39.4482 67.3937L39.3113 66.8485C39.6753 67.1005 40.0398 67.3506 40.4048 67.5985C41.0208 68.0192 41.6389 68.4365 42.2591 68.8503C42.5002 69.0112 42.7407 69.1717 42.9808 69.3315C43.0073 69.4714 43.0367 69.6103 43.0666 69.7491C43.1309 70.0393 43.2033 70.3272 43.2837 70.6128C43.3647 70.9008 43.4518 71.1813 43.5485 71.4618C43.6452 71.7422 43.7503 72.0186 43.8645 72.2919C44.0905 72.8392 44.361 73.367 44.6732 73.87C44.8307 74.1201 45.0009 74.362 45.1831 74.5948C45.3666 74.8252 45.5638 75.0445 45.7735 75.2514C45.5751 75.0347 45.3897 74.8065 45.2183 74.5679C45.0496 74.3285 44.8934 74.0806 44.7503 73.8251C44.4675 73.3128 44.2267 72.7785 44.0304 72.2273C43.9318 71.9525 43.8419 71.6749 43.7606 71.3946C43.6793 71.1142 43.6066 70.8315 43.5426 70.5465C43.4782 70.2623 43.4217 69.9765 43.3729 69.689L43.358 69.5781C44.2362 70.1573 45.1184 70.7303 46.0045 71.2969C48.115 72.6455 50.2503 73.9546 52.4105 75.2245C52.4294 75.2763 52.45 75.3279 52.4707 75.3795C52.4953 75.4432 52.5222 75.5059 52.5497 75.568C52.5771 75.63 52.6022 75.693 52.6343 75.7538C52.6925 75.8763 52.7479 75.9998 52.8105 76.1198L52.9022 76.3006C52.933 76.3604 52.9665 76.4193 52.999 76.4789L53.0962 76.6559C53.1286 76.7149 53.1643 76.7723 53.1984 76.8304C53.2677 76.9461 53.3341 77.0633 53.4089 77.1757C53.4837 77.2882 53.5529 77.4033 53.6287 77.5144L53.8596 77.8421C53.8968 77.8969 53.9381 77.9511 53.9794 78.0053L54.1012 78.1653L54.2234 78.3282C54.2642 78.3825 54.3084 78.4322 54.3512 78.4838L54.6078 78.7937C54.6965 78.8941 54.7874 78.9925 54.8771 79.0917C55.053 79.294 55.2479 79.4783 55.4324 79.6693L55.5017 79.7407C55.5258 79.7638 55.5508 79.7855 55.5754 79.8085L55.7237 79.9435L56.0197 80.2134L55.7395 79.9276L55.6009 79.7848C55.5779 79.7604 55.5539 79.7373 55.5315 79.7128L55.4618 79.6385C55.2861 79.4379 55.1026 79.245 54.9394 79.0344C54.8562 78.9308 54.7707 78.828 54.6886 78.7237L54.4515 78.4029C54.4125 78.3483 54.3712 78.2941 54.334 78.2393L54.2224 78.075L54.1108 77.9107C54.0736 77.8559 54.0364 77.8011 54.0021 77.7459L53.7925 77.4077C53.7242 77.2943 53.6614 77.1778 53.5952 77.063C53.5291 76.9481 53.4697 76.8306 53.408 76.7134C53.3779 76.6576 53.3458 76.5968 53.317 76.5373L53.2333 76.3585C53.2055 76.2983 53.1761 76.2394 53.1495 76.1791L53.0703 75.9979C53.0154 75.8779 52.9685 75.7551 52.9187 75.6333C52.8993 75.5863 52.8821 75.5378 52.8649 75.4899C53.1242 75.6417 53.3854 75.7926 53.6485 75.9426C54.2957 76.3137 54.9457 76.6789 55.5985 77.0382C56.2513 77.3974 56.9077 77.751 57.5677 78.0989C58.2273 78.4464 58.8912 78.7857 59.5593 79.1166C60.2274 79.4475 60.9 79.769 61.5772 80.0812C62.2513 80.3895 62.93 80.6883 63.6156 80.9713L63.5832 80.9834C63.6069 81.04 63.6283 81.0795 63.6513 81.126C63.6742 81.1726 63.6985 81.2153 63.7217 81.2594C63.7705 81.3473 63.8192 81.434 63.8712 81.5191C63.9232 81.6042 63.9752 81.6845 64.0281 81.7718C64.081 81.8591 64.138 81.9363 64.1925 82.0181C64.4158 82.3467 64.656 82.6552 64.9045 82.9584L65.0931 83.1841L65.2869 83.405C65.4144 83.5534 65.5503 83.6942 65.6826 83.8384C65.8148 83.9827 65.9555 84.1186 66.0907 84.2583L66.511 84.6664L66.1237 84.2282C65.9929 84.0945 65.864 83.9486 65.7432 83.7963Z" fill="#479D80"/>
</g>
<defs>
<clipPath id="clip0_12605_705">
<rect width="90" height="90" fill="white" transform="translate(89.2051) rotate(82.3796)"/>
</clipPath>
</defs>
</svg>
