<svg width="96" height="95" viewBox="0 0 96 95" fill="none" xmlns="http://www.w3.org/2000/svg">
<g clip-path="url(#clip0_13470_3181)">
<path d="M66.6399 52.8806V53.7841C66.6399 56.5806 66.6399 62.0701 66.6399 64.8666C66.6399 65.3868 66.5244 65.8273 65.8749 65.8498C65.3322 65.8672 65.1081 65.5932 65.1063 64.8943C65.1063 62.077 65.1063 56.5661 65.1063 53.7477C65.1063 52.8806 65.1063 52.8806 64.266 52.8806C62.1897 52.8806 60.1098 52.9482 58.037 52.8563C53.7408 52.6656 49.9733 49.8321 49.0892 46.0812C48.2542 42.5298 49.4236 39.646 52.2615 37.4108C52.6484 37.1056 52.7202 36.8299 52.6484 36.3825C51.9131 31.886 53.9632 27.5959 57.8637 25.156C62.7184 22.1213 69.2012 22.3052 73.6987 25.6866C77.0251 28.1889 78.7425 31.5201 78.2785 35.7253C78.1718 36.6964 78.3818 37.2149 79.1189 37.8651C84.1346 42.3027 82.4224 49.9396 75.8626 52.1956C74.5688 52.6413 73.1368 52.7575 71.7572 52.8633C70.3216 52.9725 68.8721 52.8875 67.4295 52.8875L66.6399 52.8806ZM66.6767 38.4634C66.9235 38.2622 67.0899 38.1357 67.2439 37.9969C68.1613 37.1611 69.0775 36.3235 69.9925 35.4842L70.2814 35.2293C70.6578 34.8825 71.0744 34.8114 71.4351 35.1998C71.7957 35.5883 71.6942 35.9975 71.3213 36.3426C69.9207 37.6432 68.5114 38.9437 67.0916 40.2339C66.9408 40.3537 66.8204 40.5066 66.7399 40.6806C66.6593 40.8547 66.6209 41.0449 66.6277 41.2362C66.6469 44.3784 66.6382 47.5223 66.6399 50.6644C66.6399 50.8743 66.6627 51.0841 66.6767 51.3165C66.7966 51.3374 66.9176 51.3519 67.0391 51.3598C68.8756 51.3598 70.7156 51.4032 72.5485 51.3373C73.9761 51.3042 75.3725 50.9173 76.6101 50.2118C78.9438 48.8523 80.4424 46.9171 80.4617 44.1425C80.4809 41.5622 79.1837 39.6599 77.0933 38.2466C76.5979 37.9102 76.3248 37.5912 76.4928 36.9166C77.4382 33.1449 76.33 29.9612 73.4274 27.4415C69.2257 23.7999 62.89 23.5312 58.2944 26.7167C54.814 29.1271 53.3312 32.9802 54.3623 37.0033C54.4318 37.1968 54.4333 37.4079 54.3666 37.6024C54.2999 37.7969 54.1688 37.9634 53.9947 38.075C53.6813 38.3091 53.3382 38.5102 53.0388 38.7582C51.0115 40.4385 49.9891 42.5524 50.4653 45.1865C51.036 48.3442 53.8721 50.954 57.1774 51.2176C59.6547 51.4136 62.1547 51.3217 64.6441 51.3737C65.1151 51.3841 65.1046 51.1014 65.1046 50.7789C65.1046 49.3916 65.1291 48.0044 65.0818 46.6171C65.0534 46.267 64.9016 45.938 64.6529 45.6876C63.2996 44.394 61.9078 43.1402 60.5318 41.8726C60.0416 41.42 59.9453 40.9275 60.2919 40.5825C60.7541 40.1212 61.1533 40.364 61.5384 40.7177C62.5153 41.6183 63.4951 42.5154 64.4778 43.409C64.6389 43.5564 64.828 43.6761 65.1028 43.8894V42.9495C65.1028 39.568 65.1028 36.1865 65.1028 32.8051C65.1028 32.264 65.2149 31.8426 65.8609 31.8253C66.3703 31.8114 66.6347 32.1409 66.6364 32.8085C66.6452 34.4559 66.6364 36.1033 66.6364 37.7507C66.6417 37.9432 66.6609 38.1478 66.6767 38.4634Z" fill="#008037"/>
<path d="M25.8282 57.7456C26.693 56.5855 27.7802 56.1381 29.0914 56.3011C30.3484 56.4554 31.089 57.0797 31.145 58.3595C31.2501 60.6883 31.1748 63.0242 31.1748 65.3877H30.0946V64.6941C30.0946 62.8525 30.0946 61.0092 30.0946 59.1676C30.0946 57.8531 29.5239 57.2479 28.3299 57.2462C27.0466 57.2462 25.9857 58.1548 25.984 59.2612C25.984 61.0589 25.984 62.8571 25.984 64.6559V65.3756H24.8565V64.682C24.8565 62.8195 24.8565 60.9554 24.8565 59.0913C24.8565 57.6641 23.9969 56.9913 22.5911 57.2913C21.3551 57.5595 20.7371 58.3213 20.7371 59.5768V65.3756H19.6377V56.5196H20.4133C20.4833 56.8456 20.5551 57.1768 20.6601 57.6589C20.9592 57.2316 21.3575 56.8817 21.8215 56.6385C22.2854 56.3953 22.8015 56.2659 23.3264 56.2612C24.4136 56.2248 25.3047 56.5924 25.8282 57.7456Z" fill="#232323"/>
<path d="M8.76747 56.9288H7.63302C7.55774 56.3548 7.51572 55.7756 7.40193 55.2138C7.14457 53.9583 6.43029 53.2404 5.33611 53.0756C3.74823 52.8363 2.56476 53.2976 1.98353 54.4959C1.68935 55.0969 1.49487 55.741 1.40755 56.4034C1.16771 58.3213 1.10468 60.2513 1.59313 62.1449C2.09908 64.1131 3.60992 64.9541 5.5917 64.4409C6.74016 64.1426 7.40017 63.2981 7.51747 61.9576C7.54023 61.7235 7.55073 61.4877 7.56999 61.212H8.68693C9.05282 63.4958 7.51046 65.4328 5.21881 65.5472C4.6524 65.5875 4.08329 65.5695 3.52063 65.4934C1.83296 65.2247 0.864833 64.1235 0.472678 62.5628C-0.167976 60.0967 -0.167976 57.51 0.472678 55.0438C1.22373 52.1791 4.78114 50.9861 7.22861 52.7097C8.37531 53.5178 8.62916 54.7404 8.75521 56.0167C8.79022 56.2924 8.76747 56.575 8.76747 56.9288Z" fill="#232323"/>
<path d="M34.5903 64.4408V68.776H33.4751V56.5472C34.1614 56.4033 34.1614 56.4033 34.5063 57.4853C34.5605 57.4697 34.6323 57.4715 34.6691 57.4368C36.8277 55.3281 39.7093 56.0755 40.4464 58.9645C40.8145 60.3572 40.7855 61.8237 40.3623 63.2009C39.599 65.665 36.8924 66.402 34.9264 64.7078C34.8704 64.6541 34.8039 64.6072 34.5903 64.4408ZM34.6095 60.8928C34.6095 61.5206 34.6095 62.1483 34.6095 62.7743C34.5906 62.946 34.6159 63.1196 34.6831 63.2789C35.1295 63.9899 35.744 64.4789 36.6193 64.5622C37.5507 64.6506 38.3508 64.413 38.8952 63.6032C39.7356 62.3633 39.7338 59.4709 38.8952 58.2449C38.314 57.3952 37.2338 57.0484 36.1659 57.3692C35.1295 57.683 34.6008 58.4096 34.6008 59.5281L34.6095 60.8928Z" fill="#232323"/>
<path d="M84.6898 61.3869H78.2666C77.9794 62.9389 78.8373 64.2932 80.2483 64.5967C81.8852 64.9435 83.1422 64.2135 83.5554 62.6372H84.555C84.5552 63.1279 84.421 63.6095 84.1666 64.0306C83.9123 64.4517 83.5474 64.7966 83.1107 65.0285C80.3569 66.6412 77.1724 64.9505 77.0691 61.784C77.0097 60.7511 77.1077 59.7152 77.3597 58.7112C77.8254 57.0604 79.1629 56.2193 80.8611 56.2488C82.5592 56.2783 83.8268 57.1869 84.2907 58.8378C84.5165 59.6216 84.5533 60.4522 84.6898 61.3869ZM78.2385 60.4956H82.5242C83.5081 60.4956 83.5081 60.4956 83.3453 59.5158C83.1195 58.1719 82.2949 57.3135 81.1307 57.2286C79.2329 57.0829 78.011 58.4095 78.2385 60.4904V60.4956Z" fill="#232323"/>
<path d="M87.5612 61.387C87.4894 63.1644 88.2965 64.3349 89.7005 64.6124C91.2762 64.9245 92.3528 64.2829 92.9691 62.6338H93.8444C93.988 63.5667 93.391 64.5586 92.3826 65.0962C89.7356 66.506 86.9397 65.1395 86.4758 62.1864C86.2202 60.565 86.2709 58.9541 87.3091 57.5824C88.2895 56.2888 89.6953 56.0547 91.2026 56.3911C92.6715 56.7188 93.4348 57.7784 93.7569 59.1465C93.9215 59.8402 93.9145 60.5876 93.9932 61.387H87.5612ZM92.7975 60.4402C92.7625 59.2645 92.5717 58.2049 91.53 57.5668C91.1252 57.3034 90.6514 57.1631 90.1671 57.1631C89.6828 57.1631 89.209 57.3034 88.8042 57.5668C87.7538 58.2049 87.5945 59.2731 87.5192 60.4367L92.7975 60.4402Z" fill="#232323"/>
<path d="M16.1294 59.8612C16.329 58.3404 15.8055 57.4213 14.6833 57.2375C12.9991 56.9618 12.2323 57.5115 11.8437 59.2889H10.9053C10.8087 58.7106 10.9188 58.1171 11.2167 57.6106C11.5146 57.1041 11.9815 56.7164 12.537 56.5144C13.4702 56.186 14.4851 56.1629 15.4326 56.4485C16.6844 56.804 17.2411 57.7542 17.2831 58.9265C17.3619 61.0611 17.3059 63.201 17.3059 65.379H16.5443C16.4708 65.0166 16.4007 64.6646 16.3097 64.212C16.1049 64.3854 15.9596 64.5016 15.8318 64.6195C14.8199 65.5004 13.6224 65.7258 12.3426 65.5004C11.884 65.4304 11.4608 65.2147 11.1368 64.8856C10.8128 64.5565 10.6056 64.132 10.5464 63.6762C10.3416 62.2889 10.7092 61.2606 11.7824 60.8097C12.5912 60.4629 13.4928 60.338 14.3612 60.1473C14.9337 60.019 15.5201 59.9565 16.1294 59.8612ZM16.1959 60.638C15.107 60.8218 14.1161 60.9675 13.1357 61.1583C12.8179 61.2345 12.5198 61.3756 12.2604 61.5727C11.6476 62.0218 11.5321 62.6634 11.6546 63.3727C11.6869 63.6562 11.8106 63.9219 12.0074 64.1302C12.2042 64.3386 12.4636 64.4785 12.747 64.5293C13.9568 64.7721 15.0475 64.5102 15.8983 63.5686C16.0502 63.4193 16.1506 63.2263 16.1854 63.0172C16.2152 62.2646 16.1959 61.5103 16.1959 60.638Z" fill="#232323"/>
<path d="M51.6875 62.7557H52.6556C53.3892 64.4898 54.3801 65.01 56.101 64.5453C56.9658 64.3146 57.4175 63.751 57.4088 62.9169C57.4 62.0829 57.0201 61.6164 56.073 61.4274C55.3902 61.2904 54.6899 61.2436 54.0019 61.1308C52.5191 60.8881 51.8065 60.1823 51.7663 58.9424C51.726 57.7025 52.4473 56.7037 53.7971 56.454C54.6709 56.291 55.5673 56.2875 56.4424 56.4436C57.8132 56.6985 58.5047 57.7858 58.4277 59.258H57.428C57.4018 59.1002 57.379 58.9338 57.344 58.7725C57.3196 58.6443 57.2863 58.518 57.2442 58.3944C57.0044 57.6713 56.4301 57.2673 55.5373 57.2239C54.5866 57.1806 53.6115 57.1442 53.0565 58.1274C52.9478 58.3102 52.8833 58.5156 52.8682 58.7273C52.8532 58.939 52.8879 59.1512 52.9697 59.3474C53.0515 59.5435 53.1781 59.7182 53.3396 59.8577C53.5011 59.9971 53.693 60.0976 53.9004 60.1511C54.5411 60.3418 55.2239 60.3973 55.8874 60.5135C56.1868 60.5655 56.4914 60.5967 56.7873 60.6713C57.8377 60.9349 58.4067 61.4967 58.524 62.3724C58.6745 63.4909 58.4434 64.4776 57.372 65.0447C56.7297 65.3983 56.011 65.594 55.2765 65.6151C54.5419 65.6362 53.813 65.4822 53.1511 65.1661C52.1812 64.7256 51.6963 63.9036 51.6875 62.7557Z" fill="#232323"/>
<path d="M48.328 56.502H49.4607V65.3753H48.6572L48.4243 64.2221C48.237 64.3955 48.1057 64.5273 47.9691 64.647C46.8505 65.6354 45.5497 65.8071 44.1806 65.3545C43.7658 65.2257 43.4022 64.9711 43.1412 64.6267C42.8802 64.2823 42.7349 63.8654 42.7258 63.4348C42.6505 61.1476 42.7013 58.8568 42.7013 56.5193H43.6835C43.6975 56.7707 43.7202 57.0222 43.722 57.2719C43.722 58.9401 43.722 60.6065 43.722 62.273C43.7325 63.5892 44.1614 64.2828 45.0788 64.5273C46.2272 64.8256 47.6558 64.3054 48.1827 63.362C48.2871 63.1283 48.3339 62.8733 48.3193 62.6181C48.3333 60.5979 48.328 58.5881 48.328 56.502Z" fill="#232323"/>
<path d="M72.6885 65.3925H71.5908V56.5209H72.3594L72.6167 57.5805C73.3398 56.7134 74.1608 56.2192 75.3023 56.2782V57.3186C74.4269 57.3325 73.6479 57.5441 73.1157 58.2117C72.8755 58.509 72.7331 58.8722 72.7078 59.2521C72.6675 61.0487 72.6885 62.8469 72.6885 64.6451V65.3925Z" fill="#232323"/>
</g>
<defs>
<clipPath id="clip0_13470_3181">
<rect width="96" height="95" fill="white"/>
</clipPath>
</defs>
</svg>
