<svg width="102" height="102" viewBox="0 0 102 102" fill="none" xmlns="http://www.w3.org/2000/svg">
<g clip-path="url(#clip0_13006_12064)">
<path d="M44.5474 90.6335C44.8798 87.3473 48.5908 85.6067 51.327 87.4557C53.9621 89.237 56.9693 91.5799 58.4957 93.8465C58.4957 93.8465 57.9936 84.4837 66.9892 92.121C66.9892 92.121 65.5145 88.2447 78.0174 89.6894C78.0174 89.6894 73.525 86.5635 75.5665 81.0893C75.5665 81.0893 66.8036 74.5478 70.6345 72.735C74.4655 70.9222 85.7987 72.6996 85.7987 72.6996C85.7987 72.6996 78.9287 65.0809 91.4199 62.2397C91.4199 62.2397 87.2446 56.2975 96.3807 53.6453C96.3807 53.6453 89.3551 52.6348 88.689 49.6035C88.689 49.6035 80.7361 50.4075 82.6246 43.1336L74.9628 48.0596L72.8328 45.744L70.7294 47.3609C70.2526 47.7275 69.6509 47.8922 69.0538 47.8197C68.4567 47.7472 67.912 47.4431 67.5368 46.973C67.5368 46.973 78.0133 32.9594 82.7125 33.1111C82.7125 33.1111 74.2302 31.9053 78.1444 26.1811C78.1444 26.1811 76.56 24.0531 80.5947 21.1726C80.5947 21.1726 75.039 18.8391 80.9054 10.8597C74.7489 18.618 71.0369 13.8705 71.0369 13.8705C69.3192 18.5222 66.8487 17.5513 66.8487 17.5513C62.3566 22.8329 58.9616 14.9656 58.9616 14.9656C60.3435 19.4614 49.5766 33.2515 49.5766 33.2515C49.0242 33.0131 48.5875 32.5674 48.3605 32.0103C48.1334 31.4532 48.1341 30.8292 48.3624 30.2726L49.3695 27.8182L46.5755 26.3718L49.314 17.6845C42.7922 21.4176 41.4775 13.5342 41.4775 13.5342C38.3777 13.6884 35.5565 7.17549 35.5565 7.17549C35.4013 16.6896 28.5699 14.2232 28.5699 14.2232C29.1123 27.022 19.9556 22.3964 19.9556 22.3964C19.9556 22.3964 24.6496 32.8632 23.9077 37.0365C23.1658 41.2099 14.5508 34.4742 14.5508 34.4742C9.80811 37.8826 5.60893 34.3709 5.60893 34.3709C10.2924 46.0539 6.16195 45.6505 6.16195 45.6505C15.8984 52.3222 6.72984 54.2988 6.72984 54.2988C9.31687 55.1758 12.3672 57.4615 14.7804 59.5354C17.2843 61.6892 16.5804 65.7273 13.4966 66.9119C10.5702 68.036 7.60253 68.7761 7.60253 68.7761C11.7054 68.9687 18.7044 73.9075 18.7044 73.9075C24.7191 72.4538 28.6312 73.3998 28.6312 73.3998L37.7085 67.4007L34.306 77.7353C34.306 77.7353 36.2472 81.2617 36.4257 87.4464C36.4257 87.4464 43.0306 92.901 44.295 96.8089C44.2976 96.8104 44.2297 93.7528 44.5474 90.6335Z" fill="#62BB9D"/>
<path d="M77.6162 62.4017C77.5742 62.4008 77.5315 62.3981 77.4894 62.3966L77.2359 62.3863C76.8985 62.3657 76.5622 62.3336 76.2269 62.29C75.5582 62.199 74.8969 62.0604 74.2479 61.8754C73.9235 61.7825 73.6032 61.6796 73.2877 61.5634C73.1301 61.5062 72.9731 61.4448 72.8192 61.3805C72.7415 61.3485 72.6648 61.3157 72.5885 61.2817C72.5123 61.2477 72.4359 61.2125 72.3661 61.1776L72.211 61.4971C72.2955 61.5348 72.3732 61.5663 72.4552 61.5983C72.5372 61.6304 72.6166 61.661 72.6975 61.6902C72.8596 61.7492 73.0225 61.8051 73.1865 61.8566C73.5143 61.9616 73.8461 62.0522 74.1794 62.1319C74.8464 62.2912 75.5239 62.4027 76.2067 62.4654C76.5477 62.4951 76.8887 62.5126 77.2296 62.518L77.4859 62.5177C77.5283 62.5174 77.5714 62.5177 77.6137 62.5168L77.7422 62.5127C77.8273 62.5097 77.9125 62.5085 77.9979 62.5036L78.2534 62.488C78.3389 62.4837 78.4236 62.4742 78.5086 62.4664C78.5936 62.4586 78.6782 62.452 78.7628 62.4407C78.9318 62.4181 79.1015 62.4002 79.2694 62.373C79.6068 62.3224 79.939 62.2463 80.2689 62.1663C79.9353 62.2319 79.601 62.2927 79.2634 62.3283C79.0955 62.3508 78.9261 62.3621 78.7572 62.3769C78.6727 62.3841 78.5875 62.3859 78.5034 62.3912C78.4192 62.3965 78.3343 62.4007 78.2495 62.4012L77.9956 62.4059C77.9108 62.4065 77.8263 62.4041 77.7414 62.4041L77.6162 62.4017Z" fill="#62BB9D"/>
<path d="M65.7437 83.7962C65.6236 83.6438 65.4995 83.4936 65.3835 83.3371L65.2084 83.1047L65.0398 82.8674C64.8181 82.5499 64.605 82.2258 64.4117 81.8926C64.3646 81.8086 64.3165 81.726 64.2704 81.6408C64.2243 81.5555 64.1793 81.4736 64.1376 81.3854C64.0995 81.3104 64.0636 81.234 64.0283 81.158C64.5848 81.3824 65.1447 81.5925 65.7106 81.7887C66.415 82.0333 67.1278 82.2563 67.8506 82.4375C68.5717 82.6247 69.3063 82.7558 70.0477 82.8296C69.3103 82.7337 68.5814 82.5809 67.8676 82.3725C67.1532 82.1693 66.4504 81.9275 65.7565 81.663C65.1381 81.4271 64.5268 81.175 63.9224 80.9069L63.9101 80.8727L63.8755 80.8863C63.817 80.8601 63.7586 80.8344 63.7002 80.8087C63.022 80.5057 62.3518 80.1861 61.6863 79.8568C61.0208 79.5276 60.3609 79.1862 59.7057 78.8364C59.1781 78.5552 58.6534 78.2685 58.1314 77.9762L58.2058 77.9424L58.3422 77.8853C58.4334 77.848 58.5268 77.8134 58.6201 77.7788C58.7135 77.7442 58.8078 77.7124 58.9029 77.6812C58.9979 77.65 59.0932 77.6211 59.1899 77.5938L59.478 77.514C59.673 77.4664 59.8677 77.4159 60.0649 77.3758C60.4584 77.2891 60.8568 77.2256 61.2565 77.1667C61.4567 77.14 61.6575 77.1131 61.8583 77.0916L62.4631 77.034L61.8554 77.0472C61.6529 77.0569 61.4504 77.0661 61.2476 77.0777C60.8429 77.108 60.4375 77.1419 60.0342 77.2C59.8322 77.227 59.6307 77.2617 59.4296 77.2952L59.1287 77.3552C59.0281 77.3758 58.9286 77.4005 58.8283 77.4235C58.728 77.4465 58.6297 77.4752 58.5297 77.5005C58.4297 77.5258 58.3318 77.5581 58.2334 77.5903L58.0852 77.6394L57.9384 77.6944C57.8895 77.7134 57.8403 77.7338 57.7916 77.754C57.7814 77.7584 57.7713 77.7633 57.7617 77.7676L57.7507 77.7612C57.1044 77.3964 56.4614 77.0243 55.8219 76.645C55.1823 76.2656 54.5458 75.8825 53.9125 75.4956C51.7994 74.1995 49.7158 72.8573 47.6617 71.469C47.7041 71.4549 47.7472 71.442 47.7902 71.4285L47.8757 71.4021C47.9044 71.3935 47.9333 71.3866 47.9622 71.3786L48.1354 71.3339C48.2513 71.3064 48.3677 71.2837 48.4886 71.258C48.9666 71.1727 49.4505 71.1251 49.9359 71.1157C50.0552 71.1141 50.1796 71.11 50.3015 71.1104L50.6675 71.1212L50.8505 71.1272L51.0317 71.1412L51.3981 71.1686C51.4583 71.1719 51.5192 71.1806 51.5799 71.188L51.7622 71.2102L52.1267 71.2546L52.8526 71.375L52.1339 71.2106L51.7712 71.1438L51.5873 71.1087C51.526 71.0978 51.4647 71.0856 51.4039 71.0782L51.0387 71.0285L50.8561 71.0033L50.6715 70.9862L50.3026 70.9531C50.1821 70.9453 50.0555 70.9419 49.9317 70.9364C49.4355 70.9157 48.9385 70.9345 48.4453 70.9925C48.3214 71.009 48.1976 71.0256 48.074 71.0487L47.8894 71.0848C47.8583 71.0889 47.8276 71.0966 47.7969 71.1037L47.7049 71.1262C47.6437 71.1421 47.582 71.1546 47.5211 71.1729C47.4602 71.1912 47.3992 71.2083 47.3378 71.2273L47.3132 71.2359C47.0196 71.0362 46.7269 70.8375 46.4352 70.6399C45.2077 69.8026 43.989 68.9534 42.7791 68.0923C42.1741 67.6617 41.5713 67.2281 40.9707 66.7914C40.641 66.5511 40.3115 66.3097 39.9823 66.0673C40.1758 66.0574 40.3692 66.0472 40.5626 66.0369C41.0453 66.0121 41.5271 65.9835 42.008 65.9511C42.9705 65.8892 43.9324 65.8203 44.8934 65.7443C45.0435 65.732 45.1941 65.7184 45.3442 65.7061L45.3507 65.71C45.6412 65.8775 45.9347 66.04 46.231 66.1975C46.8234 66.5115 47.4247 66.8081 48.0381 67.078C48.6501 67.351 49.2764 67.5907 49.9143 67.7962C50.5503 68.0049 51.2053 68.1506 51.8698 68.2313C51.2121 68.1217 50.5668 67.9479 49.9431 67.7123C49.3195 67.4805 48.7089 67.2151 48.114 66.9172C47.5176 66.6223 46.9345 66.3018 46.3618 65.9649C46.1951 65.8677 46.0288 65.7671 45.8631 65.663C47.4615 65.5268 49.0576 65.3712 50.6516 65.1962C52.398 65.0024 54.1414 64.783 55.8818 64.5382L56.0551 64.5921C56.2458 64.6503 56.4371 64.706 56.629 64.7592C57.0124 64.8648 57.3982 64.9614 57.7864 65.0489C58.1746 65.1364 58.5635 65.2146 58.9532 65.2836C59.3445 65.3531 59.7372 65.4123 60.1314 65.4612C60.5252 65.5101 60.9201 65.5499 61.3161 65.5758C61.5142 65.5911 61.7123 65.5981 61.9102 65.608C62.1082 65.618 62.307 65.6213 62.5052 65.6199C63.2977 65.6268 64.0895 65.5721 64.8736 65.4565C64.088 65.5422 63.297 65.567 62.5076 65.5305C62.3108 65.5245 62.1139 65.5091 61.9174 65.4965C61.721 65.484 61.5243 65.4655 61.3288 65.4426C60.9361 65.4019 60.5459 65.3478 60.1573 65.2844C59.7688 65.2211 59.3816 65.1492 58.9968 65.065C58.6121 64.9809 58.2289 64.8905 57.8491 64.7896C57.4693 64.6886 57.0913 64.579 56.7169 64.46L56.6263 64.4309C58.4536 64.1625 60.2756 63.859 62.0922 63.5203C63.9873 63.1646 65.8751 62.7638 67.7458 62.302C67.9774 62.2465 68.2136 62.1851 68.4471 62.1257C68.6806 62.0664 68.9147 62.0076 69.1469 61.9437L69.8455 61.7558L70.541 61.5594C71.468 61.2925 72.3891 61.0091 73.3036 60.7021C74.218 60.3951 75.122 60.0597 76.0152 59.697C76.9084 59.3343 77.7904 58.9414 78.649 58.5026C79.5093 58.0682 80.3422 57.5816 81.143 57.0455C81.945 56.5115 82.6934 55.901 83.3778 55.2228C82.679 55.884 81.9177 56.4758 81.1045 56.9898C80.2945 57.5055 79.4536 57.9708 78.5864 58.3831C77.7216 58.7976 76.8358 59.1707 75.9389 59.5106C75.042 59.8505 74.1334 60.1609 73.2182 60.4482C72.3029 60.7356 71.3789 60.9931 70.4501 61.2369L69.7528 61.4162L69.0538 61.5868C68.8225 61.6447 68.587 61.6977 68.3535 61.7522C68.12 61.8068 67.8859 61.8614 67.6511 61.9113C66.7227 62.118 65.7923 62.3098 64.8599 62.4867L64.883 62.4412C64.9563 62.3006 65.0351 62.1615 65.1159 62.0241C65.2782 61.749 65.4527 61.4804 65.6391 61.2185C66.0126 60.6943 66.423 60.1975 66.8671 59.7318C67.0906 59.4993 67.3182 59.2711 67.5574 59.0538L67.6462 58.9714L67.7371 58.8917L67.9293 58.7381L68.1152 58.5824C68.1769 58.5299 68.2388 58.4786 68.3026 58.4289C68.807 58.0228 69.3355 57.6478 69.8853 57.3059C69.3183 57.6233 68.7711 57.9747 68.2466 58.3581C68.18 58.4052 68.1154 58.4545 68.0509 58.5038L67.8565 58.6493L67.6661 58.8027L67.5711 58.8787L67.4776 58.9575C67.2264 59.1656 66.9857 59.3855 66.7493 59.6101C66.2766 60.0624 65.8367 60.5478 65.433 61.0626C65.231 61.3215 65.0398 61.5885 64.8595 61.8636C64.7692 62.0011 64.6824 62.1414 64.5991 62.2844C64.5573 62.3557 64.5168 62.4281 64.4769 62.5009L64.4404 62.5715C63.6312 62.7224 62.8203 62.8644 62.0079 62.9974C58.2708 63.6091 54.507 64.0529 50.735 64.3861C50.8258 64.2156 50.9189 64.0454 51.0135 63.8774C51.1761 63.5887 51.3445 63.3033 51.5186 63.021C51.8675 62.4575 52.2387 61.9088 52.6413 61.3805C53.0391 60.85 53.4848 60.3571 53.9728 59.9081C54.2179 59.6848 54.4832 59.4846 54.7652 59.3103C55.0464 59.132 55.3565 59.004 55.6815 58.9319C55.3514 58.9903 55.0338 59.1052 54.7427 59.2714C54.4499 59.4354 54.1728 59.6259 53.9148 59.8405C53.4015 60.2726 52.9288 60.7506 52.5026 61.2688C52.0733 61.7837 51.6702 62.3199 51.2948 62.8753C51.106 63.1527 50.9229 63.4335 50.7454 63.7178C50.6008 63.9499 50.4604 64.1826 50.3239 64.4214C48.4967 64.5778 46.6676 64.7082 44.8363 64.8126C43.8779 64.8671 42.9198 64.914 41.9618 64.9534C41.4828 64.9732 41.0037 64.9907 40.5245 65.0058C40.4864 65.0073 40.4477 65.0083 40.409 65.0093C41.0637 64.1322 41.7162 63.2537 42.3666 62.3739C42.7689 62.2006 43.1703 62.0242 43.571 61.8447C44.2761 61.5297 44.978 61.2061 45.6765 60.874C46.3736 60.5417 47.0666 60.1962 47.7474 59.8267C48.0871 59.6414 48.423 59.4501 48.7503 59.2432C48.9156 59.1392 49.0739 59.0314 49.2287 58.9156C49.3057 58.8569 49.382 58.7971 49.4539 58.7319C49.527 58.6686 49.5936 58.5982 49.6529 58.5219C49.5911 58.596 49.5218 58.6635 49.4462 58.7234C49.3726 58.7852 49.2948 58.8422 49.2161 58.897C49.0574 59.0067 48.8935 59.1081 48.7272 59.205C48.3946 59.3983 48.0521 59.5762 47.7063 59.7473C47.0159 60.0895 46.3118 60.4054 45.6046 60.7115C44.8974 61.0177 44.1838 61.3116 43.4681 61.5985C43.2205 61.6978 42.9721 61.7963 42.7231 61.8942C43.5324 60.7972 44.3389 59.6973 45.1427 58.5947C45.9279 57.5168 46.7089 56.4363 47.4859 55.3532C48.1405 54.4398 48.7916 53.5244 49.4394 52.6072C49.4488 52.6059 49.4576 52.6047 49.4664 52.6035C49.5585 52.5912 49.6501 52.5742 49.7411 52.5578C49.9238 52.5256 50.1045 52.4871 50.2849 52.4462C50.6443 52.3635 51.0007 52.2668 51.3518 52.1583C52.0535 51.9393 52.7401 51.6746 53.4072 51.3658C53.7397 51.2114 54.0687 51.049 54.3903 50.8757C54.5522 50.7907 54.7107 50.6978 54.8701 50.6078C54.9495 50.5625 55.0274 50.5144 55.1059 50.4675C55.1845 50.4205 55.2632 50.3747 55.3402 50.325C55.9604 49.9381 56.5575 49.5154 57.1285 49.0591C56.5409 49.4909 55.9286 49.8879 55.2947 50.248C55.216 50.2944 55.1357 50.3368 55.056 50.3803C54.9764 50.4239 54.8963 50.4686 54.8159 50.5105C54.6535 50.592 54.4936 50.6785 54.3287 50.7549C54.0034 50.918 53.6708 51.0628 53.3357 51.2027C52.6658 51.4801 51.9784 51.7134 51.278 51.901C50.9282 51.9936 50.576 52.0737 50.2213 52.141C50.051 52.1722 49.8804 52.201 49.7097 52.225L49.8032 52.093C50.5695 51.0021 51.3311 49.9075 52.0881 48.8091C52.845 47.7107 53.5936 46.6063 54.3338 45.4958C55.0737 44.3865 55.8027 43.2697 56.5208 42.1455L56.5781 42.0559C56.9963 41.8363 57.4036 41.6067 57.8087 41.3696C58.2478 41.1117 58.6815 40.8457 59.1098 40.5717C59.538 40.2977 59.9604 40.0143 60.377 39.7216C60.5849 39.5742 60.7905 39.4272 60.9962 39.276C61.2018 39.1248 61.4036 38.9717 61.603 38.8142C61.8025 38.6566 62.0011 38.4974 62.1966 38.338C62.3922 38.1785 62.5868 38.0115 62.7763 37.8421L62.9189 37.7161C62.9671 37.6738 63.0126 37.6301 63.0601 37.5873C63.1531 37.5007 63.2474 37.4152 63.339 37.3276L63.6125 37.0622C63.6586 37.0184 63.7033 36.9729 63.747 36.9247L63.8798 36.7874C64.5867 36.0588 65.229 35.2594 65.7229 34.3729C65.2032 35.2449 64.5409 36.0207 63.8165 36.7248L63.6805 36.8565C63.6351 36.9008 63.5901 36.9445 63.5427 36.9873L63.2632 37.2433C63.1693 37.3276 63.0733 37.4092 62.9781 37.4925C62.9304 37.5341 62.8829 37.5763 62.8345 37.6162L62.6887 37.7373C62.4955 37.9006 62.2964 38.0563 62.0986 38.213C61.9009 38.3698 61.6984 38.5218 61.4934 38.6693C61.2885 38.8168 61.0834 38.9632 60.8772 39.1103C60.671 39.2574 60.4607 39.396 60.2491 39.5343C59.8275 39.813 59.4 40.0823 58.9667 40.3423C58.5334 40.6022 58.0953 40.8532 57.6525 41.0954C57.418 41.2235 57.1816 41.3501 56.9436 41.4734C57.5145 40.5688 58.0748 39.6573 58.6243 38.7388C59.3076 37.5933 59.97 36.4345 60.5888 35.2528L60.8198 34.809L61.0431 34.3608C61.1946 34.0639 61.3326 33.7598 61.4751 33.4587C61.7493 32.8507 62.0101 32.2362 62.2239 31.6053C61.9888 32.2289 61.7081 32.8329 61.4145 33.4297C61.2622 33.7256 61.1145 34.0238 60.9539 34.3148L60.7138 34.7538L60.469 35.1887C59.813 36.3461 59.1136 37.4782 58.3945 38.5981C57.6755 39.7179 56.9351 40.825 56.1816 41.9196C55.4281 43.0141 54.6641 44.1059 53.8892 45.1872C53.7049 45.4445 53.5201 45.7012 53.3349 45.9574C53.3102 45.5082 53.29 45.0588 53.274 44.6092C53.2533 43.9319 53.2445 43.2543 53.2543 42.5765C53.264 41.8988 53.2916 41.2211 53.3586 40.547C53.3911 40.2098 53.437 39.8738 53.5013 39.5414C53.5599 39.2071 53.6581 38.881 53.7938 38.57C53.6441 38.876 53.5314 39.1989 53.4582 39.5316C53.3788 39.8631 53.3179 40.1987 53.2699 40.5362C53.1737 41.2105 53.1164 41.8899 53.0759 42.5699C53.0354 43.25 53.0154 43.9309 53.0065 44.6109C52.9993 45.2058 53.0019 45.801 53.0142 46.3965C52.5257 47.0714 52.0341 47.7443 51.5394 48.4152C50.7486 49.4862 49.9523 50.5529 49.1507 51.615C48.349 52.6771 47.5423 53.7356 46.7305 54.7903C46.0695 55.6496 45.4058 56.5072 44.7395 57.3633C44.6891 56.7959 44.6428 56.2281 44.6006 55.6597C44.5354 54.7793 44.4803 53.8981 44.4406 53.0166C44.401 52.1352 44.376 51.2517 44.3853 50.3697C44.3914 49.9285 44.4052 49.4868 44.4426 49.0474C44.461 48.8274 44.4855 48.6084 44.5215 48.3909C44.5536 48.1723 44.6121 47.9584 44.6956 47.7539C44.605 47.9561 44.5393 48.1685 44.5 48.3866C44.4556 48.6041 44.4246 48.8233 44.3984 49.0431C44.3461 49.4828 44.3174 49.9246 44.2964 50.3666C44.2564 51.251 44.2524 52.1365 44.262 53.0214C44.2716 53.9063 44.2974 54.7908 44.3332 55.6752C44.3614 56.3681 44.3955 57.0607 44.4355 57.7529C44.3847 57.8195 44.3334 57.8831 44.2823 57.9473C42.6407 60.05 40.9864 62.1427 39.3194 64.2253L39.2776 64.0516C39.1663 63.5857 39.0572 63.1189 38.9504 62.6511C38.7361 61.7165 38.5295 60.7799 38.3307 59.8413C38.2368 59.3989 38.1446 58.9565 38.0539 58.5141C38.363 57.4565 38.6613 56.3962 38.9489 55.3331C39.1265 54.6687 39.2992 54.0033 39.4584 53.3354L39.5758 52.8327C39.6133 52.6657 39.6504 52.4965 39.6876 52.3283C39.7249 52.1602 39.7536 51.9909 39.7854 51.8223L39.8085 51.6955L39.8267 51.5676L39.8674 51.3183L39.8207 51.572L39.7975 51.6982L39.7686 51.8215C39.7312 51.9885 39.6939 52.1566 39.6486 52.3222C39.6032 52.4878 39.5646 52.6549 39.5177 52.8178L39.3792 53.3143C39.1889 53.9738 38.9881 54.6299 38.7823 55.2849C38.5064 56.1556 38.2226 57.0237 37.9309 57.8894C37.6831 56.6597 37.4474 55.4276 37.2236 54.1931C36.5711 50.5756 36.0208 46.9444 35.6261 43.2888L35.6651 43.3122C36.01 42.7056 36.3345 42.0939 36.6484 41.4747C36.9623 40.8554 37.2586 40.229 37.5385 39.5922C37.6784 39.2747 37.811 38.9542 37.9363 38.6307C38.0615 38.3072 38.1771 37.9802 38.2831 37.6497C38.3914 37.3198 38.4814 36.9843 38.5525 36.6444C38.6279 36.3055 38.6607 35.9584 38.6503 35.6113C38.6457 35.957 38.5981 36.3008 38.5088 36.6347C38.4237 36.9689 38.3204 37.2981 38.1991 37.6209C38.0795 37.9448 37.95 38.2643 37.8105 38.5794C37.671 38.8944 37.5256 39.2073 37.3744 39.5179C37.0712 40.1375 36.747 40.7468 36.4099 41.3494C36.1387 41.8321 35.8582 42.3124 35.57 42.7847C35.3749 40.8796 35.2192 38.9703 35.1288 37.0577C35.1162 36.8203 35.1071 36.5783 35.0978 36.3388C35.0885 36.0992 35.0784 35.8591 35.0732 35.619L35.0541 34.8997L35.0438 34.1799C35.035 33.2206 35.046 32.2612 35.077 31.3018C35.1134 30.3408 35.1738 29.3856 35.2665 28.4303C35.3592 27.4749 35.4834 26.5231 35.6583 25.5795C35.8282 24.6344 36.0561 23.7007 36.3407 22.7837C36.6233 21.8641 36.9941 20.974 37.448 20.1258C36.9735 20.9644 36.5813 21.847 36.2768 22.7612C35.9701 23.6748 35.7196 24.6063 35.5266 25.5505C35.329 26.4948 35.183 27.4489 35.0666 28.4056C34.9502 29.3624 34.8685 30.324 34.8096 31.2862C34.7684 31.9992 34.7395 32.7123 34.723 33.4256C34.6239 33.2698 34.5257 33.112 34.4292 32.954C34.2365 32.6388 34.0494 32.3201 33.8681 31.9978C33.6869 31.6754 33.5107 31.35 33.3423 31.0206C33.174 30.6911 33.0147 30.3581 32.858 30.0223C32.7013 29.6865 32.5612 29.3449 32.4272 28.9996C32.2931 28.6542 32.1746 28.3044 32.0686 27.9499L31.9929 27.6827L31.9264 27.4138C31.9024 27.3237 31.8872 27.2325 31.8674 27.1426L31.8396 27.0065L31.8177 26.869C31.7536 26.5035 31.7272 26.1324 31.7388 25.7615C31.7123 26.133 31.724 26.5063 31.7737 26.8755L31.7923 27.014L31.8149 27.152C31.8313 27.2436 31.8432 27.3364 31.8636 27.4269L31.92 27.7008L31.9851 27.973C32.0769 28.3344 32.1832 28.6918 32.3042 29.0453C32.4252 29.3988 32.5562 29.7478 32.6971 30.0922C32.8381 30.4379 32.9873 30.7798 33.1445 31.1181C33.3008 31.4558 33.4653 31.7923 33.6375 32.1236C33.8097 32.4549 33.9829 32.7849 34.1646 33.1107C34.3462 33.4366 34.5227 33.7422 34.7155 34.0529L34.713 34.1727L34.7064 34.8961L34.7087 35.6188C34.7084 35.8579 34.7134 36.101 34.717 36.3419C34.7205 36.5828 34.7217 36.8241 34.7312 37.0649C34.7776 38.9923 34.8882 40.9178 35.042 42.8399C35.2547 45.4747 35.5495 48.1027 35.9065 50.7219C35.798 50.6169 35.6908 50.5117 35.5841 50.4065C35.2974 50.1221 35.016 49.8323 34.7399 49.537C34.1888 48.9463 33.6566 48.3363 33.158 47.6997C33.0322 47.5414 32.9113 47.3795 32.7894 47.2184C32.6674 47.0572 32.5497 46.8919 32.4363 46.7278C32.323 46.5637 32.2122 46.3927 32.0977 46.2245C31.9832 46.0564 31.8811 45.883 31.7805 45.7071C31.6799 45.5311 31.5811 45.3555 31.4844 45.1778L31.3478 44.9069C31.3239 44.8623 31.3034 44.816 31.2822 44.7698L31.219 44.6319C31.0504 44.2636 30.911 43.8827 30.8018 43.4926C30.897 43.8878 31.0227 44.2749 31.1778 44.6506L31.2367 44.7915C31.2562 44.8385 31.275 44.8856 31.2973 44.9316L31.4247 45.2091C31.5153 45.3912 31.6044 45.5741 31.7029 45.7521C31.8014 45.9301 31.9022 46.1073 32.0035 46.2838C32.1048 46.4602 32.2139 46.6327 32.3257 46.8029C32.4375 46.9732 32.5504 47.1428 32.6633 47.3123C32.7762 47.4818 32.8957 47.6463 33.0162 47.8107C33.4953 48.4702 34.0079 49.1037 34.542 49.7195C34.8091 50.0275 35.082 50.3296 35.3606 50.6258C35.5648 50.8435 35.7704 51.058 35.9845 51.2696C36.1258 52.2864 36.2764 53.3036 36.4365 54.3211C36.7359 56.2255 37.0642 58.1255 37.4213 60.0209C37.5987 60.9684 37.785 61.9147 37.9804 62.8598C38.0771 63.3321 38.1759 63.8043 38.2769 64.2764L38.4 64.8437C38.0881 64.597 37.7773 64.3494 37.4676 64.1008C37.0704 63.7823 36.6747 63.4621 36.2803 63.1404C36.2564 62.9918 36.23 62.8438 36.2011 62.6963C36.1383 62.3788 36.0655 62.0641 35.9828 61.7521C35.9 61.4401 35.8082 61.1309 35.7075 60.8245C35.6065 60.5193 35.4961 60.2167 35.3763 59.9168C35.2585 59.6171 35.1272 59.3233 34.9914 59.032C34.8556 58.7406 34.7058 58.4559 34.5511 58.1748C34.2392 57.6144 33.89 57.0756 33.5059 56.562C33.8645 57.0914 34.1874 57.6441 34.4724 58.2164C34.6129 58.503 34.7466 58.7923 34.8691 59.0866C34.9915 59.3809 35.1065 59.6781 35.2096 59.9792C35.3126 60.2803 35.4099 60.5834 35.4945 60.8894C35.579 61.1954 35.6562 61.5042 35.7229 61.8149C35.7895 62.1257 35.8473 62.4371 35.8937 62.7482L35.9065 62.8433L35.7376 62.7063C34.5894 61.7648 33.4497 60.8122 32.3185 59.8485C30.4171 58.2266 28.5462 56.5695 26.7056 54.8773C26.7157 54.8275 26.7252 54.7779 26.7329 54.7284C26.7539 54.6003 26.7681 54.4711 26.7755 54.3415C26.7918 54.085 26.7873 53.8276 26.7622 53.5718C26.7119 53.0654 26.5959 52.5677 26.4171 52.0912C26.3297 51.8548 26.2295 51.6232 26.1169 51.3976C26.059 51.2859 26.0039 51.1737 25.9401 51.0627C25.9088 51.0072 25.8786 50.9515 25.8471 50.8995L25.7486 50.7394C25.4837 50.3152 25.1853 49.9129 24.8563 49.5364C25.1605 49.93 25.4331 50.3471 25.6715 50.7838L25.7592 50.9477C25.7876 51.0037 25.8142 51.0599 25.8414 51.116C25.8977 51.228 25.9457 51.3411 25.996 51.4538C26.0926 51.6806 26.1767 51.9125 26.2479 52.1485C26.3929 52.616 26.476 53.1005 26.4951 53.5896C26.5047 53.8304 26.4946 54.0716 26.4649 54.3107C26.4532 54.4109 26.4366 54.5105 26.4162 54.6083C26.1666 54.3768 25.9178 54.1445 25.6699 53.9116C25.1282 53.4032 24.5913 52.8899 24.059 52.3715C23.5268 51.8531 22.9987 51.3306 22.4749 50.8039C21.9518 50.2764 21.4355 49.7423 20.9262 49.2017C20.4169 48.6612 19.9152 48.1136 19.4211 47.559C19.2806 47.4022 19.1422 47.2446 19.0059 47.0864L19.017 47.0849C19.0135 46.579 19.0069 46.0742 18.9973 45.5703C18.9876 45.0665 18.9759 44.5619 18.9621 44.0566C18.9465 43.552 18.9283 43.0453 18.9012 42.5434C18.8872 42.2913 18.8709 42.0396 18.8491 41.7879C18.8377 41.6622 18.8257 41.5365 18.8083 41.4109L18.7957 41.317L18.7796 41.2236C18.769 41.1613 18.7523 41.1003 18.7296 41.0414C18.7483 41.1015 18.7614 41.1631 18.7685 41.2256L18.781 41.319L18.7888 41.4129C18.7978 41.5384 18.8027 41.6644 18.807 41.79C18.8144 42.0417 18.8147 42.2938 18.8143 42.5455C18.8123 43.0489 18.8008 43.5524 18.7863 44.0563C18.7719 44.5601 18.7532 45.0634 18.7327 45.5669C18.7165 45.9459 18.6991 46.3255 18.6807 46.7056C18.4443 46.4273 18.2091 46.1468 17.9753 45.8642C17.5053 45.2895 17.0481 44.7041 16.6105 44.1042C16.1729 43.5042 15.7548 42.8897 15.371 42.2538C14.9821 41.6198 14.6431 40.9565 14.3568 40.27C14.6228 40.9662 14.9424 41.6406 15.3127 42.2873C15.6787 42.9369 16.0813 43.566 16.5013 44.1815C16.9213 44.797 17.3638 45.3981 17.8187 45.9891C18.0951 46.3483 18.3779 46.7025 18.664 47.0544L18.6627 47.0761L18.6813 47.0766C18.86 47.2957 19.0398 47.514 19.2207 47.7317C19.6986 48.3051 20.1856 48.8696 20.6818 49.425C20.9456 49.7232 21.2116 50.019 21.48 50.3126C21.4494 50.3167 21.4213 50.3204 21.3878 50.3249C21.2456 50.3386 21.1014 50.3459 20.9567 50.3455C20.6664 50.3451 20.3766 50.3201 20.0904 50.2708C19.5118 50.1716 18.9497 49.9926 18.4202 49.739C18.1531 49.613 17.8933 49.4718 17.6424 49.316C17.5176 49.2359 17.3912 49.1584 17.2715 49.0716C17.2108 49.029 17.1491 48.9876 17.0894 48.9436L16.9119 48.809C16.4386 48.4468 15.9961 48.0461 15.5888 47.6111C15.9739 48.0688 16.3959 48.4942 16.8507 48.8829L17.0229 49.0272C17.0807 49.075 17.1411 49.1195 17.2005 49.166C17.3176 49.2597 17.4413 49.3447 17.5635 49.4323C17.8114 49.6035 18.0688 49.7604 18.3345 49.9022C18.8688 50.1911 19.4403 50.405 20.033 50.5378C20.332 50.6046 20.6362 50.6461 20.9423 50.6618C21.0965 50.6689 21.251 50.6682 21.4051 50.6596C21.4829 50.6558 21.5609 50.6495 21.6387 50.6415C21.678 50.6362 21.7168 50.6311 21.7561 50.6258C21.8961 50.7788 22.0372 50.931 22.1793 51.0825C22.6874 51.6284 23.2011 52.1688 23.7204 52.7036C24.2397 53.2385 24.7629 53.7696 25.29 54.297C27.05 56.0534 28.8484 57.7712 30.6852 59.4503C30.5455 59.469 30.4054 59.4848 30.2649 59.4976C29.953 59.5292 29.6394 59.552 29.3254 59.5636C29.0115 59.5751 28.6983 59.5835 28.384 59.5796C28.0698 59.5756 27.7556 59.5633 27.4426 59.5376C27.1297 59.512 26.8168 59.4779 26.5066 59.4238C26.1955 59.3746 25.8874 59.3083 25.5837 59.2252C25.507 59.2062 25.4321 59.1816 25.3573 59.1587C25.2825 59.1359 25.2061 59.1138 25.1329 59.0854C25.0598 59.0569 24.9843 59.0329 24.9107 59.0051L24.6924 58.9148C24.4028 58.7886 24.1248 58.6373 23.8617 58.4625C24.1174 58.6502 24.3892 58.815 24.6739 58.9549L24.8894 59.0564C24.9624 59.0878 25.0362 59.1174 25.1089 59.1465C25.1815 59.1757 25.2575 59.2037 25.3323 59.2308C25.407 59.2578 25.4813 59.2861 25.5578 59.3088C25.8604 59.4073 26.1682 59.4892 26.4798 59.5541C26.7912 59.6218 27.1061 59.6711 27.4223 59.7118C27.7385 59.7526 28.056 59.7806 28.3739 59.799C28.6919 59.8174 29.0106 59.8274 29.3297 59.8277C29.6488 59.828 29.9669 59.8202 30.2861 59.8031C30.4442 59.7943 30.6036 59.7838 30.7641 59.7715C30.8472 59.7647 30.9305 59.7571 31.0138 59.7488C31.2684 59.9812 31.5233 60.2134 31.7786 60.4454C32.8834 61.4461 33.9984 62.436 35.1237 63.4153C35.686 63.9049 36.2509 64.3916 36.8183 64.8754C37.1483 65.156 37.4782 65.4351 37.8082 65.7128L37.2439 65.7244C36.7929 65.7365 36.3426 65.7516 35.8928 65.7695C35.2704 65.795 34.6488 65.8268 34.0281 65.8648C33.7711 65.7721 33.513 65.6818 33.2538 65.5937C32.7105 65.4095 32.1637 65.2347 31.6127 65.0742C31.0618 64.9136 30.5074 64.7673 29.9478 64.6396C29.3888 64.5139 28.8237 64.4167 28.2548 64.3486C28.818 64.4455 29.3758 64.5715 29.9259 64.7262C30.4759 64.8797 31.0196 65.0579 31.5587 65.2421C32.0979 65.4263 32.6309 65.6317 33.1611 65.8428C33.2159 65.8641 33.2705 65.8879 33.3253 65.9092C33.2815 65.9121 33.2382 65.9143 33.1944 65.9178C31.3985 66.0457 29.6057 66.2187 27.8234 66.4703C27.6003 66.5001 27.3773 66.53 27.155 66.5657L26.4881 66.6687C26.2658 66.7044 26.0445 66.7429 25.8224 66.7798C25.7115 66.7994 25.6008 66.8166 25.4901 66.8374L25.1583 66.8986L24.8265 66.9603L24.661 66.9914L24.4952 67.0249L23.8344 67.1599C23.7438 67.1798 23.6533 67.1997 23.5628 67.2202C22.9716 67.1475 22.3817 67.0836 21.79 67.0247C21.1983 66.9659 20.59 66.9122 19.9889 66.8677C19.3878 66.8233 18.7834 66.79 18.1834 66.7723L17.7311 66.7635L17.2789 66.7642C17.1281 66.7671 16.9775 66.7764 16.8272 66.7828L16.7707 66.785L16.712 66.7929L16.5995 66.8049L16.3755 66.8277L16.6003 66.8156L16.7131 66.8094L16.7724 66.8063L16.8286 66.8065C16.9788 66.8079 17.1274 66.8066 17.279 66.8102L17.7292 66.8294L18.1785 66.8608C18.7768 66.9078 19.3742 66.9691 19.9707 67.0446C20.5672 67.1202 21.1623 67.2017 21.7561 67.2892C22.0569 67.3346 22.3572 67.3813 22.6568 67.4292L22.5191 67.4632C22.0812 67.5666 21.6483 67.6896 21.2148 67.808L20.5691 68.002L20.4077 68.051L20.2482 68.1047L19.9283 68.2108C19.0766 68.4947 18.2436 68.8321 17.4343 69.2209C18.2596 68.8736 19.1061 68.5789 19.9687 68.3386L20.2913 68.2483L20.4526 68.2034L20.6157 68.163L21.2658 68.0019C21.7023 67.9059 22.1359 67.8055 22.5773 67.7243L22.9058 67.66C23.0151 67.6376 23.1258 67.621 23.2355 67.601L23.461 67.5624C23.4855 67.5669 23.5105 67.5708 23.535 67.5753L23.5387 67.5491L23.8956 67.4882L24.5579 67.3864L24.7236 67.3613L25.5531 67.2503C25.664 67.2354 25.7748 67.2236 25.8859 67.2099C26.1077 67.1839 26.3287 67.1567 26.5507 67.1317L27.2167 67.063C27.4388 67.0392 27.6612 67.022 27.8837 67.0012C28.4553 66.9502 29.0272 66.907 29.5992 66.8715C29.5123 66.9484 29.4247 67.0243 29.3363 67.0991C29.2436 67.179 29.15 67.2566 29.0558 67.3344C28.6792 67.6453 28.2959 67.9475 27.9004 68.2335C27.802 68.3064 27.7011 68.3743 27.6012 68.445L27.451 68.5506L27.2983 68.6511C27.1961 68.7174 27.0948 68.7871 26.991 68.8506L26.6777 69.0413C26.2571 69.292 25.8171 69.5087 25.3619 69.6894C25.8289 69.5357 26.283 69.3453 26.7199 69.1199L27.0463 68.9471C27.158 68.8886 27.2601 68.8253 27.3673 68.765L27.5276 68.6724L27.6851 68.576C27.7899 68.5112 27.8963 68.4486 27.9996 68.3816C28.4155 68.1174 28.823 67.8358 29.2192 67.5456C29.3187 67.4725 29.4183 67.3994 29.5161 67.3266C29.6139 67.2538 29.7131 67.1777 29.8105 67.102C29.9215 67.0154 30.0311 66.9284 30.1406 66.8403C31.1686 66.7824 32.1979 66.7427 33.2284 66.7212C34.1202 66.7022 35.0122 66.697 35.9045 66.7055C36.3508 66.7091 36.7964 66.7165 37.2412 66.7275L37.3012 66.729C36.3065 67.962 35.3085 69.1926 34.3072 70.4209C32.6244 72.4837 30.9331 74.5393 29.2332 76.5877C28.3831 77.6121 27.5311 78.6344 26.6773 79.6545C25.8234 80.6746 24.9669 81.6915 24.1078 82.7052L25.7595 84.0636C26.5914 83.0147 27.4133 81.9671 28.2354 80.916C29.0574 79.8649 29.8762 78.8124 30.6931 77.7584C32.3268 75.6503 33.9515 73.5355 35.567 71.414C36.5309 70.1469 37.4918 68.8772 38.4497 67.6049L38.4676 67.6623C38.5952 68.0894 38.7194 68.5174 38.8401 68.9462C38.9987 69.5062 39.1514 70.0684 39.2982 70.6327L39.2723 70.6888C39.2488 70.7409 39.2266 70.7941 39.2037 70.8467C39.1809 70.8994 39.1581 70.9521 39.1389 71.0054L39.0765 71.1643L38.9612 71.4857C38.813 71.9149 38.6947 72.352 38.5896 72.7903C38.5642 72.9001 38.5377 73.01 38.5142 73.1201L38.4473 73.4511L38.4139 73.6169L38.3854 73.7833L38.3277 74.116C38.2923 74.3383 38.2624 74.561 38.2294 74.7835L38.1514 75.4513L38.2732 74.7896C38.3209 74.5699 38.365 74.3501 38.4147 74.1319L38.4941 73.8052L38.5321 73.6423L38.5761 73.4805L38.6643 73.1568C38.6953 73.0492 38.7289 72.9426 38.7612 72.8361C38.8929 72.4091 39.0378 71.987 39.2101 71.5779L39.3427 71.2733L39.4135 71.1234L39.4205 71.1088C39.4566 71.2491 39.4927 71.3895 39.5276 71.53C39.9595 73.2619 40.3464 75.0058 40.6611 76.7636C40.6995 76.9837 40.7413 77.2028 40.7768 77.4233L40.8855 78.084C40.9198 78.3047 40.9518 78.5257 40.9849 78.7465C40.9997 78.8569 41.0192 78.9672 41.0334 79.0777L41.1444 79.9072L41.1666 80.0733L41.2425 80.739L41.2548 80.8616C41.0482 81.1576 40.8499 81.4536 40.6576 81.7578C40.4337 82.1074 40.2139 82.4613 40.0099 82.8214C39.9061 83.0014 39.806 83.1834 39.7095 83.3672C39.6145 83.5502 39.5199 83.7367 39.4334 83.9252C39.3468 84.1136 39.2656 84.3061 39.1967 84.5012C39.1252 84.6959 39.0737 84.8975 39.0429 85.1026C39.0878 84.9015 39.1533 84.7054 39.2384 84.5177C39.3199 84.3276 39.4145 84.1458 39.5134 83.9652C39.6124 83.7847 39.7166 83.6082 39.8253 83.4335C39.934 83.2588 40.0459 83.0861 40.1611 82.9153C40.3903 82.5739 40.6312 82.2394 40.8769 81.9101C41.0169 81.7233 41.1592 81.5379 41.3039 81.354L41.3107 81.4051C41.3202 81.5162 41.3333 81.6273 41.3404 81.7387L41.3654 82.073C41.4023 82.5181 41.4198 82.962 41.4422 83.4108L41.4578 84.081L41.4611 84.2485L41.4602 84.4159L41.4579 84.7514C41.4527 85.6466 41.3909 86.5407 41.2728 87.4282C41.4352 86.5451 41.5417 85.6527 41.5918 84.7562L41.6107 84.4196L41.6199 84.2517L41.6248 84.0831L41.6428 83.4091C41.6424 82.9597 41.6477 82.5121 41.632 82.0601L41.6239 81.7229C41.6227 81.6107 41.6148 81.4983 41.6105 81.3859L41.5929 80.9951L41.6375 80.9401L41.5888 80.9018L41.5795 80.7118L41.5361 80.0388L41.5248 79.87L41.5113 79.7021L41.4837 79.3658L41.456 79.0295C41.4464 78.9172 41.4344 78.8059 41.4236 78.6938C41.4008 78.4698 41.3805 78.2461 41.3565 78.0222L41.2799 77.3518C41.2554 77.128 41.2238 76.9052 41.1963 76.6818C41.1502 76.3372 41.104 75.992 41.0578 75.6468C41.1065 75.6935 41.1546 75.7408 41.2029 75.7888C41.3944 75.9787 41.5817 76.1727 41.7648 76.3709C42.1301 76.7702 42.4791 77.1854 42.8048 77.6193C42.9677 77.8365 43.126 78.0544 43.276 78.2823C43.3504 78.3918 43.4258 78.509 43.5008 78.6233C43.5759 78.7375 43.644 78.8539 43.7112 78.9716C43.9868 79.4412 44.2261 79.9311 44.4271 80.4372C44.2532 79.9189 44.0399 79.4147 43.7891 78.9289C43.7286 78.8067 43.6618 78.6872 43.5972 78.5661C43.5326 78.4451 43.463 78.3272 43.3919 78.2106C43.2532 77.974 43.1053 77.7434 42.9528 77.5152C42.6481 77.0594 42.318 76.6202 41.9696 76.1953C41.7954 75.9832 41.6157 75.7749 41.4307 75.5706C41.3387 75.4688 41.2446 75.3679 41.1511 75.268C41.0949 75.2092 41.0388 75.1516 40.9814 75.0936C40.7912 73.8414 40.5699 72.5941 40.3248 71.3517C40.1496 70.468 39.9615 69.5873 39.7604 68.7095C39.6617 68.2698 39.5578 67.8311 39.4487 67.3936L39.3118 66.8484C39.6757 67.1005 40.0402 67.3505 40.4053 67.5984C41.0213 68.0192 41.6394 68.4364 42.2596 68.8502C42.5007 69.0112 42.7412 69.1716 42.9813 69.3315C43.0078 69.4713 43.0372 69.6102 43.0671 69.7491C43.1314 70.0392 43.2038 70.3271 43.2842 70.6127C43.3652 70.9007 43.4523 71.1812 43.549 71.4617C43.6457 71.7422 43.7508 72.0185 43.865 72.2918C44.091 72.8391 44.3615 73.3669 44.6737 73.87C44.8312 74.1201 45.0014 74.362 45.1836 74.5947C45.3671 74.8251 45.5643 75.0444 45.774 75.2513C45.5756 75.0346 45.3902 74.8064 45.2188 74.5679C45.0501 74.3285 44.8939 74.0805 44.7507 73.825C44.4679 73.3128 44.2272 72.7784 44.0309 72.2272C43.9323 71.9524 43.8424 71.6748 43.7611 71.3945C43.6798 71.1141 43.6071 70.8315 43.543 70.5464C43.4787 70.2622 43.4222 69.9764 43.3734 69.6889L43.3585 69.578C44.2367 70.1573 45.1189 70.7302 46.005 71.2968C48.1155 72.6454 50.2508 73.9546 52.411 75.2244C52.4299 75.2762 52.4505 75.3278 52.4712 75.3795C52.4958 75.4431 52.5227 75.5058 52.5502 75.5679C52.5776 75.6299 52.6027 75.6929 52.6348 75.7537C52.693 75.8762 52.7484 75.9997 52.811 76.1198L52.9027 76.3005C52.9334 76.3603 52.967 76.4192 52.9995 76.4788L53.0967 76.6558C53.1291 76.7148 53.1648 76.7722 53.1989 76.8304C53.2681 76.946 53.3346 77.0632 53.4094 77.1757C53.4842 77.2882 53.5534 77.4032 53.6292 77.5144L53.8601 77.842C53.8973 77.8968 53.9386 77.951 53.9799 78.0052L54.1017 78.1652L54.2239 78.3282C54.2646 78.3825 54.3089 78.4321 54.3517 78.4837L54.6083 78.7936C54.697 78.8941 54.7878 78.9924 54.8776 79.0916C55.0535 79.2939 55.2484 79.4782 55.4329 79.6692L55.5022 79.7407C55.5262 79.7637 55.5513 79.7855 55.5759 79.8085L55.7242 79.9434L56.0202 80.2133L55.74 79.9275L55.6014 79.7848C55.5784 79.7603 55.5544 79.7372 55.532 79.7127L55.4623 79.6384C55.2866 79.4378 55.1031 79.2449 54.9398 79.0343C54.8567 78.9307 54.7712 78.8279 54.6891 78.7236L54.452 78.4028C54.413 78.3483 54.3717 78.294 54.3345 78.2393L54.2229 78.0749L54.1113 77.9106C54.0741 77.8558 54.0369 77.801 54.0026 77.7459L53.793 77.4076C53.7247 77.2942 53.6619 77.1777 53.5957 77.0629C53.5296 76.9481 53.4702 76.8305 53.4085 76.7133C53.3783 76.6576 53.3463 76.5967 53.3174 76.5372L53.2338 76.3584C53.206 76.2982 53.1766 76.2394 53.15 76.179L53.0708 75.9978C53.0159 75.8778 52.969 75.755 52.9192 75.6332C52.8998 75.5862 52.8825 75.5377 52.8654 75.4899C53.1247 75.6416 53.3859 75.7925 53.649 75.9425C54.2962 76.3137 54.9462 76.6789 55.599 77.0381C56.2518 77.3973 56.9082 77.7509 57.5682 78.0988C58.2278 78.4464 58.8917 78.7856 59.5598 79.1165C60.2279 79.4474 60.9005 79.7689 61.5777 80.0811C62.2518 80.3895 62.9305 80.6883 63.6161 80.9712L63.5837 80.9833C63.6074 81.0399 63.6288 81.0794 63.6518 81.126C63.6747 81.1725 63.699 81.2152 63.7222 81.2593C63.771 81.3472 63.8197 81.434 63.8717 81.519C63.9237 81.6041 63.9757 81.6844 64.0286 81.7717C64.0815 81.8591 64.1384 81.9362 64.193 82.018C64.4162 82.3466 64.6565 82.6551 64.905 82.9583L65.0936 83.184L65.2874 83.4049C65.4149 83.5534 65.5508 83.6941 65.683 83.8384C65.8153 83.9826 65.956 84.1186 66.0912 84.2582L66.5115 84.6663L66.1242 84.2281C65.9934 84.0945 65.8645 83.9486 65.7437 83.7962Z" fill="#479D80"/>
</g>
<defs>
<clipPath id="clip0_13006_12064">
<rect width="90" height="90" fill="white" transform="translate(89.2051) rotate(82.3796)"/>
</clipPath>
</defs>
</svg>
