<svg width="210" height="210" viewBox="0 0 210 210" fill="none" xmlns="http://www.w3.org/2000/svg">
<g clip-path="url(#clip0_13006_12060)">
<path d="M140.669 32.4187C138.046 38.4815 129.919 39.5527 125.823 34.3715C121.878 29.3807 117.564 23.0943 116.027 17.8495C116.027 17.8495 111.316 36.0006 98.7923 15.9966C98.7923 15.9966 99.2565 24.2782 76.2986 13.9549C76.2986 13.9549 82.9692 22.6332 75.7637 31.832C75.7637 31.832 88.507 49.6063 80.1069 50.7425C71.7069 51.8787 51.1801 41.6293 51.1801 41.6293C51.1801 41.6293 59.6629 60.311 34.1325 58.1645C34.1325 58.1645 38.4939 72.019 19.4733 71.5435C19.4733 71.5435 32.2534 77.7231 31.6879 83.9045C31.6879 83.9045 47.3341 87.1866 39.3306 99.9086L56.9176 95.1576L59.5758 100.861L64.5641 99.0522C65.695 98.6422 66.9417 98.6924 68.0359 99.1922C69.1301 99.692 69.9844 100.601 70.415 101.725C70.415 101.725 41.9608 122.094 33.0953 118.96C33.0953 118.96 48.5339 126.394 37.6073 134.935C37.6073 134.935 39.339 139.951 29.9043 142.999C29.9043 142.999 39.0817 150.81 23.0684 162.469C39.5008 151.408 43.7023 162.704 43.7023 162.704C49.7927 154.877 53.9141 158.224 53.9141 158.224C65.6743 150.876 67.3827 167.928 67.3827 167.928C67.4704 158.521 96.3429 138.753 96.3429 138.753C97.2514 139.542 97.814 140.656 97.9095 141.856C98.0051 143.055 97.626 144.244 96.8538 145.167L93.4481 149.236L97.8984 153.684L87.4188 168.586C102.111 165.418 99.8437 181.241 99.8437 181.241C105.846 182.824 107.28 196.947 107.28 196.947C113.336 178.905 124.865 187.742 124.865 187.742C131.58 163.018 146.233 177.378 146.233 177.378C146.233 177.378 143.623 154.585 147.563 147.079C151.504 139.573 163.848 157.628 163.848 157.628C174.952 154.002 180.83 163.239 180.83 163.239C178.976 138.133 186.605 141.403 186.605 141.403C172.085 122.791 190.758 124.574 190.758 124.574C186.358 121.336 181.927 115.133 178.583 109.718C175.114 104.097 178.9 96.8258 185.496 96.4347C191.755 96.0636 197.86 96.4497 197.86 96.4497C190.155 93.5985 179.804 79.9471 179.804 79.9471C167.459 79.0766 160.575 74.905 160.575 74.905L139.64 80.8446L152.382 63.2052C152.382 63.2052 150.817 55.3081 154.221 43.4109C154.221 43.4109 144.933 29.0148 144.889 20.8001C144.885 20.7957 143.163 26.6651 140.669 32.4187Z" fill="#FEC736"/>
<path d="M60.5459 66.2133C60.6253 66.2405 60.7053 66.2714 60.7845 66.2998L61.2615 66.4729C61.8922 66.7165 62.5139 66.9813 63.1266 67.2673C64.3461 67.8456 65.5229 68.5101 66.6479 69.2558C67.2099 69.6292 67.7581 70.0194 68.2892 70.4318C68.5551 70.6362 68.8172 70.8484 69.0715 71.064C69.2004 71.1722 69.3267 71.281 69.4515 71.392C69.5762 71.503 69.7006 71.6164 69.8125 71.7252L70.3015 71.21C70.1632 71.087 70.0341 70.98 69.8973 70.8692C69.7604 70.7585 69.6276 70.6521 69.4909 70.5474C69.2177 70.3368 68.9412 70.1317 68.6597 69.9341C68.0984 69.5357 67.5208 69.162 66.9337 68.8082C65.7588 68.1008 64.5348 67.4782 63.2712 66.9452C62.6392 66.6822 61.9999 66.4424 61.3533 66.2257L60.8645 66.071C60.7835 66.0459 60.7016 66.0194 60.6204 65.9955L60.373 65.9253C60.209 65.8796 60.0457 65.8304 59.88 65.7879L59.3836 65.6631C59.2181 65.6195 59.0507 65.5864 58.884 65.5497C58.7172 65.5131 58.552 65.4744 58.384 65.4447C58.0481 65.3855 57.7138 65.3169 57.3773 65.2672C56.7035 65.1592 56.0242 65.1032 55.3469 65.056C56.0225 65.133 56.6965 65.2194 57.3617 65.3559C57.6953 65.4147 58.025 65.4957 58.356 65.5697C58.5214 65.6073 58.6849 65.6554 58.8485 65.6962C59.0121 65.7371 59.1764 65.7805 59.3384 65.8307L59.8253 65.9755C59.9872 66.0257 60.147 66.0816 60.3087 66.133L60.5459 66.2133Z" fill="#FEC736"/>
<path d="M96.1286 32.6192C96.2654 32.9826 96.411 33.3439 96.5372 33.7125L96.7304 34.2614L96.908 34.8159C97.1385 35.5554 97.3484 36.3021 97.5153 37.0544C97.5542 37.2429 97.5959 37.4295 97.6321 37.6199C97.6683 37.8103 97.7045 37.9936 97.7305 38.187C97.7578 38.353 97.78 38.5205 97.8012 38.6866C96.8763 37.9221 95.9362 37.1825 94.9764 36.466C93.7818 35.5734 92.5581 34.7165 91.29 33.9336C90.0287 33.1402 88.7079 32.4456 87.3394 31.8561C88.687 32.4853 89.9838 33.2178 91.2183 34.0473C92.457 34.8671 93.6502 35.7534 94.8128 36.6777C95.8486 37.5019 96.8614 38.3525 97.851 39.2295L97.8539 39.3021L97.9281 39.2971C98.0237 39.3825 98.1195 39.4668 98.2153 39.5511C99.3245 40.5393 100.408 41.5543 101.478 42.5848C102.547 43.6153 103.598 44.6656 104.635 45.7289C105.471 46.5843 106.297 47.4486 107.115 48.3217L106.953 48.3412L106.659 48.3675C106.462 48.3833 106.263 48.3928 106.064 48.4022C105.865 48.4116 105.666 48.415 105.466 48.4171C105.266 48.4191 105.067 48.4163 104.866 48.4098L104.269 48.3875C103.868 48.3602 103.467 48.3387 103.066 48.2958C102.264 48.2228 101.466 48.1026 100.668 47.9728C100.271 47.9026 99.8716 47.8323 99.4757 47.7517L98.288 47.4953L99.4544 47.8381C99.8463 47.9421 100.238 48.0472 100.632 48.1479C101.421 48.3352 102.214 48.516 103.019 48.6493C103.42 48.7201 103.825 48.776 104.228 48.8339L104.838 48.9018C105.043 48.9233 105.247 48.9365 105.452 48.9534C105.657 48.9703 105.862 48.9751 106.068 48.9874C106.274 48.9997 106.48 48.9975 106.687 48.9956L107 48.9918L107.313 48.9759C107.417 48.9691 107.524 48.9602 107.629 48.951C107.651 48.9489 107.673 48.9456 107.694 48.9433L107.711 48.962C108.722 50.0488 109.722 51.1473 110.712 52.2576C111.701 53.3679 112.683 54.4835 113.656 55.6045C116.899 59.3543 120.058 63.1742 123.133 67.0642C123.044 67.0653 122.954 67.0639 122.863 67.0637L122.684 67.0622C122.624 67.0612 122.565 67.0567 122.505 67.0546L122.148 67.0349C121.911 67.0171 121.675 66.9899 121.429 66.9658C120.466 66.839 119.515 66.6367 118.584 66.3607C118.355 66.2916 118.116 66.2241 117.884 66.1495L117.193 65.9074L116.847 65.7851L116.511 65.6488L115.829 65.3746C115.716 65.3319 115.605 65.2786 115.494 65.2277L115.16 65.075L114.492 64.7696L113.181 64.1006L114.452 64.8491L115.103 65.196L115.432 65.3743C115.542 65.4322 115.652 65.4925 115.763 65.5434L116.429 65.8593L116.762 66.0179L117.103 66.1622L117.786 66.4487C118.012 66.5365 118.251 66.6196 118.483 66.7051C119.417 67.0449 120.375 67.31 121.351 67.4981C121.597 67.5415 121.843 67.5849 122.093 67.6157L122.466 67.6588C122.528 67.6697 122.591 67.6736 122.654 67.6786L122.843 67.6915C122.969 67.6982 123.094 67.7118 123.222 67.7138C123.349 67.7157 123.475 67.72 123.604 67.721L123.656 67.7194C124.095 68.2779 124.532 68.8338 124.969 69.3871C126.802 71.7262 128.611 74.0827 130.396 76.4567C131.288 77.6437 132.175 78.8352 133.055 80.0313C133.538 80.689 134.02 81.3486 134.501 82.0099C134.126 81.9117 133.751 81.814 133.376 81.7166C132.441 81.4715 131.505 81.2344 130.569 81.0051C128.697 80.5403 126.822 80.0894 124.944 79.6524C124.65 79.585 124.355 79.5197 124.061 79.4523L124.051 79.4409C123.599 78.9457 123.138 78.4583 122.669 77.9786C121.729 77.0216 120.763 76.0921 119.757 75.2063C118.756 74.3154 117.707 73.4792 116.615 72.7014C115.529 71.9185 114.369 71.2442 113.151 70.6881C114.339 71.2952 115.463 72.0172 116.51 72.8439C117.558 73.6633 118.561 74.5389 119.515 75.4668C120.473 76.3899 121.391 77.3539 122.278 78.3428C122.537 78.6291 122.793 78.9216 123.046 79.2204C119.917 78.5122 116.78 77.8424 113.636 77.211C110.19 76.5232 106.734 75.8857 103.268 75.2987L102.97 75.091C102.642 74.8648 102.311 74.6428 101.977 74.4252C101.31 73.9917 100.634 73.574 99.9466 73.1722C99.2597 72.7705 98.5657 72.3859 97.8647 72.0185C97.1608 71.649 96.448 71.2984 95.7263 70.9667C95.0053 70.6351 94.2766 70.3201 93.5373 70.031C93.1691 69.8818 92.7957 69.7486 92.4244 69.6098C92.0532 69.4709 91.6761 69.3444 91.2975 69.2271C89.791 68.7341 88.2486 68.3588 86.6841 68.1045C88.2334 68.4167 89.7562 68.8485 91.2388 69.396C91.6103 69.5264 91.9763 69.6751 92.3432 69.818C92.7101 69.9609 93.0738 70.1152 93.4326 70.2771C94.1564 70.5924 94.8676 70.9319 95.5698 71.2879C96.272 71.6439 96.9667 72.0153 97.6491 72.4087C98.3315 72.8021 99.0072 73.2062 99.6701 73.6286C100.333 74.051 100.987 74.4888 101.629 74.9423L101.784 75.0526C98.1382 74.4579 94.4814 73.9334 90.8135 73.4791C86.9859 73.0099 83.1448 72.6309 79.2993 72.3787C78.8242 72.3442 78.3368 72.3184 77.8559 72.2901C77.3749 72.2618 76.893 72.2322 76.4116 72.2135L74.9663 72.1487L73.5216 72.102C71.5931 72.0495 69.6656 72.032 67.7367 72.0635C65.8079 72.0951 63.8815 72.1872 61.9593 72.3378C60.0371 72.4885 58.118 72.7033 56.2158 73.0199C54.313 73.3271 52.4308 73.7504 50.5796 74.2874C48.7276 74.82 46.9314 75.5304 45.2162 76.4089C46.9485 75.5716 48.7581 74.9045 50.6193 74.417C52.4755 73.9244 54.3602 73.5466 56.2628 73.2856C58.1622 73.0191 60.0766 72.8442 61.992 72.7393C63.9073 72.6344 65.8272 72.5928 67.7457 72.5992C69.6643 72.6055 71.5816 72.6741 73.4997 72.7718L74.9374 72.8521L76.3731 72.95C76.849 72.9798 77.33 73.0213 77.8081 73.0587C78.2863 73.0961 78.7656 73.1337 79.2433 73.1807C81.1381 73.3488 83.0278 73.5465 84.9123 73.7737L84.8405 73.8465C84.6158 74.0703 84.3814 74.2876 84.1442 74.5007C83.6681 74.9268 83.1731 75.333 82.6591 75.7195C81.6298 76.4925 80.5468 77.191 79.4181 77.8099C78.8514 78.1178 78.2794 78.415 77.6919 78.6843L77.4728 78.7876L77.2512 78.8844L76.7919 79.0609L76.3432 79.2452C76.1939 79.3078 76.0449 79.3682 75.8931 79.4244C74.6859 79.8931 73.4514 80.2879 72.1964 80.6069C73.4692 80.3451 74.7251 80.0066 75.9571 79.5933C76.1126 79.5437 76.2654 79.4888 76.4182 79.434L76.877 79.2743L77.3328 79.0973L77.5599 79.0099L77.7857 78.9161C78.3906 78.6716 78.9824 78.3982 79.5691 78.1132C80.744 77.5372 81.8763 76.8783 82.9576 76.1414C83.4993 75.7703 84.0253 75.377 84.5356 74.9618C84.7911 74.7543 85.0415 74.5394 85.2867 74.3173C85.4097 74.2066 85.5307 74.0932 85.6508 73.9785L85.7632 73.8661C87.3971 74.0683 89.0285 74.2886 90.6576 74.527C98.1516 75.6234 105.595 77.0561 112.986 78.7047C112.71 78.9748 112.43 79.2428 112.148 79.5058C111.663 79.9576 111.169 80.3998 110.666 80.8323C109.66 81.6954 108.62 82.5164 107.533 83.2797C106.454 84.0502 105.306 84.7199 104.104 85.2804C103.501 85.5576 102.874 85.7784 102.231 85.9401C101.587 86.1096 100.919 86.1659 100.256 86.1066C100.92 86.1951 101.595 86.1684 102.251 86.0278C102.908 85.8925 103.552 85.6971 104.173 85.4442C105.413 84.9315 106.604 84.3063 107.73 83.5767C108.86 82.8551 109.953 82.0771 111.005 81.2457C111.533 80.8311 112.052 80.4067 112.562 79.9722C112.978 79.6174 113.387 79.2588 113.792 78.8864C117.369 79.6944 120.935 80.5532 124.489 81.4629C126.348 81.9392 128.203 82.4299 130.053 82.9349C130.978 83.187 131.902 83.4438 132.825 83.7051C132.898 83.7252 132.972 83.7467 133.047 83.7683C131.268 85.0439 129.492 86.3234 127.72 87.6066C126.848 87.6935 125.976 87.7867 125.104 87.8863C123.569 88.0599 122.035 88.2517 120.502 88.4618C118.972 88.6732 117.442 88.9122 115.921 89.2045C115.161 89.352 114.405 89.5133 113.656 89.7096C113.278 89.8077 112.911 89.9174 112.546 90.0442C112.364 90.1095 112.182 90.1774 112.005 90.2581C111.828 90.3346 111.658 90.4284 111.499 90.5381C111.662 90.4342 111.834 90.3473 112.015 90.279C112.193 90.2057 112.375 90.1441 112.559 90.0874C112.927 89.9744 113.301 89.8804 113.677 89.7963C114.428 89.6292 115.189 89.4975 115.951 89.3806C117.475 89.1464 119.008 88.9705 120.541 88.8151C122.075 88.6596 123.613 88.5315 125.151 88.4178C125.683 88.3785 126.216 88.341 126.75 88.3053C124.543 89.9064 122.34 91.5146 120.14 93.1298C117.991 94.709 115.848 96.2958 113.711 97.8901C111.91 99.2349 110.115 100.585 108.325 101.942C108.306 101.938 108.289 101.935 108.271 101.932C108.088 101.9 107.903 101.877 107.72 101.853C107.352 101.804 106.984 101.768 106.616 101.737C105.881 101.677 105.143 101.645 104.408 101.64C102.938 101.632 101.469 101.721 100.01 101.906C99.2829 101.999 98.5574 102.109 97.8394 102.245C97.4793 102.309 97.121 102.39 96.7626 102.465C96.5838 102.503 96.4064 102.548 96.2282 102.59C96.05 102.632 95.8722 102.671 95.6953 102.719C94.279 103.081 92.8849 103.526 91.5203 104.05C92.9016 103.582 94.3091 103.196 95.7355 102.894C95.9135 102.853 96.0924 102.821 96.2705 102.786C96.4487 102.751 96.6284 102.714 96.8071 102.683C97.1659 102.626 97.5231 102.558 97.8837 102.512C98.6026 102.398 99.3243 102.324 100.048 102.26C101.493 102.137 102.944 102.108 104.393 102.175C105.115 102.21 105.835 102.271 106.552 102.357C106.896 102.401 107.238 102.449 107.578 102.506L107.32 102.702C105.199 104.317 103.084 105.942 100.977 107.578C98.8688 109.213 96.7733 110.865 94.69 112.534C92.608 114.2 90.5423 115.888 88.4929 117.596L88.3295 117.732C87.3993 117.898 86.484 118.089 85.5683 118.295C84.575 118.521 83.5873 118.766 82.6051 119.029C81.6229 119.292 80.6462 119.576 79.6749 119.882C79.1893 120.037 78.7084 120.193 78.2249 120.356C77.7413 120.52 77.264 120.69 76.7885 120.869C76.313 121.049 75.838 121.232 75.3687 121.418C74.8993 121.603 74.4273 121.804 73.9636 122.012L73.6153 122.166C73.498 122.217 73.3847 122.273 73.2683 122.326C73.0387 122.435 72.8071 122.541 72.5794 122.652L71.8975 122.992C71.783 123.048 71.6703 123.107 71.5577 123.173L71.2215 123.354C69.433 124.315 67.7246 125.45 66.2464 126.841C67.7651 125.493 69.4971 124.415 71.3043 123.512L71.6432 123.343C71.7567 123.286 71.8688 123.23 71.9852 123.177L72.6729 122.858C72.9029 122.755 73.1354 122.657 73.3673 122.556C73.4832 122.506 73.5994 122.454 73.7159 122.407L74.067 122.265C74.5343 122.07 75.008 121.894 75.4798 121.715C75.9516 121.536 76.4297 121.369 76.9097 121.212C77.3897 121.055 77.8692 120.9 78.3513 120.744C78.8334 120.589 79.3183 120.452 79.8052 120.316C80.7777 120.04 81.7556 119.786 82.7389 119.553C83.7222 119.319 84.7092 119.106 85.7 118.913C86.2244 118.81 86.7517 118.712 87.2802 118.621C85.6442 120 84.0244 121.398 82.4208 122.816C80.4248 124.586 78.4605 126.394 76.5657 128.272L75.8566 128.978L75.1597 129.697C74.6912 130.171 74.244 130.668 73.79 131.155C72.8992 132.148 72.0301 133.162 71.2407 134.235C72.0663 133.188 72.9671 132.207 73.8881 131.247C74.3574 130.775 74.8195 130.296 75.3019 129.839L76.0253 129.147L76.7552 128.467C78.7064 126.658 80.725 124.923 82.7736 123.224C84.8221 121.525 86.9038 119.862 89.0027 118.232C91.1016 116.602 93.2189 114.983 95.3507 113.392C95.8578 113.013 96.3654 112.635 96.8736 112.259C96.6486 113.13 96.4152 113.999 96.1734 114.866C95.8028 116.169 95.4093 117.466 94.9804 118.752C94.5516 120.038 94.0886 121.313 93.5529 122.558C93.2867 123.181 92.9958 123.793 92.672 124.388C92.358 124.99 91.9734 125.552 91.5263 126.063C91.9971 125.57 92.4073 125.023 92.7483 124.433C93.1002 123.849 93.4194 123.246 93.7154 122.632C94.307 121.405 94.8276 120.145 95.3164 118.873C95.8053 117.601 96.2558 116.315 96.6842 115.024C97.0582 113.895 97.4137 112.759 97.7507 111.616C99.0905 110.625 100.435 109.64 101.784 108.661C103.94 107.098 106.104 105.547 108.275 104.008C110.446 102.468 112.624 100.939 114.81 99.4202C116.59 98.1825 118.375 96.9495 120.163 95.7212C119.916 96.8331 119.66 97.9435 119.396 99.0525C118.988 100.77 118.559 102.483 118.101 104.188C117.643 105.892 117.156 107.591 116.604 109.267C116.326 110.104 116.032 110.937 115.694 111.752C115.526 112.161 115.347 112.563 115.147 112.956C114.953 113.353 114.712 113.726 114.429 114.065C114.724 113.734 114.978 113.369 115.185 112.977C115.401 112.59 115.593 112.19 115.776 111.787C116.142 110.981 116.464 110.156 116.772 109.326C117.384 107.665 117.927 105.979 118.445 104.287C118.962 102.594 119.449 100.892 119.916 99.185C120.281 97.847 120.636 96.5061 120.978 95.1625C121.116 95.0664 121.252 94.9762 121.388 94.8848C125.79 91.8705 130.211 88.883 134.649 85.9224L134.624 86.2788C134.554 87.2343 134.479 88.1902 134.399 89.1465C134.242 91.0577 134.069 92.9681 133.88 94.8777C133.791 95.7778 133.699 96.6769 133.604 97.5751C132.374 99.404 131.164 101.245 129.972 103.097C129.231 104.256 128.499 105.42 127.791 106.596L127.263 107.483C127.091 107.779 126.917 108.079 126.745 108.377C126.572 108.675 126.414 108.98 126.252 109.283L126.131 109.51L126.019 109.743L125.79 110.194L126.033 109.738L126.154 109.512L126.283 109.294C126.456 108.999 126.629 108.701 126.815 108.412C127.002 108.124 127.177 107.829 127.365 107.547L127.93 106.684C128.691 105.542 129.471 104.413 130.26 103.29C131.313 101.797 132.38 100.314 133.46 98.8404C133.188 101.334 132.891 103.826 132.57 106.314C131.624 113.605 130.475 120.86 129.014 128.067L128.954 127.999C127.929 128.946 126.94 129.916 125.967 130.906C124.994 131.896 124.05 132.911 123.131 133.955C122.672 134.476 122.225 135.007 121.79 135.547C121.356 136.088 120.937 136.642 120.535 137.207C120.129 137.771 119.754 138.356 119.413 138.96C119.064 139.561 118.791 140.203 118.601 140.871C118.819 140.214 119.118 139.588 119.49 139.005C119.855 138.42 120.251 137.855 120.678 137.313C121.102 136.768 121.542 136.237 121.999 135.721C122.455 135.205 122.922 134.697 123.398 134.196C124.351 133.199 125.338 132.234 126.346 131.289C127.155 130.533 127.98 129.788 128.816 129.062C128.034 132.811 127.175 136.545 126.189 140.245C126.07 140.706 125.94 141.172 125.813 141.635C125.686 142.097 125.56 142.561 125.424 143.021L125.025 144.404L124.609 145.783C124.045 147.616 123.443 149.438 122.803 151.249C122.152 153.058 121.459 154.842 120.704 156.607C119.949 158.372 119.136 160.111 118.231 161.804C117.335 163.503 116.335 165.145 115.237 166.72C114.142 168.302 112.896 169.774 111.518 171.116C112.93 169.805 114.212 168.36 115.346 166.802C116.483 165.246 117.525 163.622 118.464 161.939C119.413 160.259 120.269 158.529 121.07 156.775C121.871 155.022 122.609 153.239 123.304 151.44C123.814 150.106 124.301 148.764 124.764 147.414C124.859 147.772 124.95 148.132 125.038 148.491C125.215 149.209 125.379 149.93 125.529 150.654C125.679 151.378 125.818 152.105 125.94 152.835C126.061 153.565 126.163 154.296 126.258 155.031C126.354 155.766 126.414 156.502 126.461 157.241C126.507 157.981 126.521 158.719 126.508 159.459L126.491 160.014L126.455 160.567C126.446 160.753 126.42 160.936 126.403 161.12L126.374 161.396L126.332 161.671C126.233 162.407 126.059 163.13 125.812 163.83C126.088 163.138 126.291 162.419 126.42 161.686L126.469 161.41L126.509 161.134C126.533 160.949 126.567 160.765 126.583 160.58L126.641 160.024L126.682 159.466C126.726 158.721 126.739 157.976 126.723 157.228C126.706 156.481 126.668 155.737 126.608 154.995C126.548 154.251 126.471 153.509 126.376 152.769C126.282 152.03 126.172 151.289 126.045 150.554C125.917 149.818 125.787 149.084 125.638 148.353C125.489 147.622 125.337 146.932 125.158 146.223L125.235 145.996L125.686 144.622L126.119 143.243C126.264 142.787 126.402 142.321 126.541 141.859C126.68 141.398 126.824 140.937 126.952 140.473C128.03 136.77 128.985 133.033 129.855 129.276C131.045 124.125 132.074 118.937 132.979 113.728C133.123 113.994 133.263 114.26 133.403 114.525C133.777 115.24 134.138 115.963 134.486 116.693C135.179 118.153 135.824 119.638 136.389 121.153C136.533 121.531 136.665 121.913 136.8 122.294C136.935 122.675 137.059 123.061 137.176 123.443C137.293 123.824 137.4 124.217 137.517 124.607C137.633 124.997 137.723 125.389 137.808 125.785C137.894 126.182 137.976 126.576 138.052 126.974L138.149 127.573C138.167 127.672 138.178 127.773 138.191 127.874L138.228 128.175C138.326 128.979 138.361 129.789 138.333 130.599C138.391 129.788 138.386 128.974 138.317 128.164L138.29 127.86C138.282 127.759 138.274 127.657 138.26 127.556L138.185 126.95C138.122 126.548 138.063 126.146 137.983 125.747C137.903 125.348 137.819 124.949 137.732 124.551C137.646 124.153 137.543 123.759 137.433 123.366C137.322 122.974 137.21 122.583 137.097 122.191C136.985 121.8 136.857 121.414 136.726 121.028C136.212 119.48 135.619 117.962 134.974 116.465C134.651 115.716 134.314 114.975 133.962 114.242C133.704 113.704 133.442 113.17 133.162 112.637C133.509 110.613 133.837 108.583 134.148 106.547C134.731 102.735 135.255 98.9151 135.722 95.0858C135.957 93.1724 136.175 91.2558 136.375 89.336C136.476 88.3772 136.574 87.4173 136.667 86.4563L136.776 85.3003C137.221 85.9594 137.664 86.6195 138.104 87.2809C138.668 88.1285 139.228 88.9783 139.785 89.8303C139.741 90.128 139.702 90.4262 139.667 90.7249C139.595 91.368 139.543 92.012 139.512 92.6569C139.481 93.3017 139.469 93.9467 139.475 94.5917C139.483 95.2346 139.51 95.8781 139.557 96.5223C139.6 97.165 139.672 97.8044 139.755 98.442C139.837 99.0796 139.951 99.713 140.075 100.342C140.331 101.599 140.67 102.838 141.091 104.049C140.728 102.823 140.447 101.574 140.25 100.311C140.156 99.6795 140.076 99.0472 140.021 98.412C139.966 97.7768 139.927 97.1408 139.913 96.5044C139.898 95.868 139.896 95.2314 139.92 94.5969C139.945 93.9625 139.984 93.3272 140.045 92.6944C140.107 92.0617 140.185 91.4332 140.285 90.8121L140.318 90.6231L140.557 90.9864C142.176 93.4762 143.771 95.982 145.344 98.5038C147.987 102.747 150.55 107.038 153.034 111.378C152.984 111.467 152.936 111.556 152.892 111.645C152.774 111.877 152.669 112.114 152.576 112.357C152.39 112.836 152.242 113.329 152.135 113.832C151.925 114.828 151.844 115.847 151.897 116.863C151.92 117.367 151.971 117.869 152.049 118.367C152.092 118.615 152.129 118.862 152.183 119.113C152.21 119.237 152.233 119.362 152.262 119.48L152.353 119.845C152.601 120.814 152.926 121.761 153.325 122.678C152.984 121.744 152.717 120.784 152.527 119.807L152.459 119.441C152.438 119.317 152.422 119.194 152.404 119.071C152.364 118.823 152.341 118.579 152.314 118.333C152.267 117.842 152.247 117.349 152.254 116.856C152.261 115.878 152.396 114.904 152.655 113.96C152.783 113.495 152.948 113.041 153.15 112.604C153.232 112.42 153.324 112.24 153.422 112.066C153.758 112.658 154.092 113.252 154.423 113.846C155.148 115.143 155.861 116.446 156.561 117.757C157.262 119.067 157.952 120.383 158.632 121.704C159.31 123.026 159.97 124.357 160.614 125.695C161.258 127.034 161.883 128.382 162.489 129.738C162.661 130.122 162.83 130.506 162.994 130.89L162.972 130.886C162.672 131.853 162.379 132.819 162.092 133.785C161.806 134.752 161.523 135.72 161.243 136.692C160.967 137.663 160.695 138.64 160.443 139.613C160.317 140.102 160.196 140.592 160.085 141.085C160.031 141.332 159.977 141.578 159.935 141.828L159.902 142.015L159.876 142.203C159.858 142.328 159.853 142.454 159.861 142.58C159.861 142.454 159.874 142.329 159.898 142.206L159.931 142.02L159.973 141.836C160.032 141.592 160.099 141.348 160.166 141.107C160.305 140.622 160.457 140.141 160.61 139.662C160.918 138.704 161.245 137.751 161.578 136.799C161.91 135.847 162.251 134.899 162.595 133.952C162.855 133.239 163.118 132.526 163.383 131.813C163.665 132.487 163.944 133.164 164.218 133.844C164.766 135.224 165.284 136.617 165.754 138.025C166.225 139.434 166.65 140.858 166.997 142.303C167.354 143.747 167.599 145.216 167.729 146.698C167.643 145.21 167.443 143.731 167.128 142.274C166.824 140.814 166.437 139.371 166.009 137.944C165.581 136.516 165.102 135.103 164.592 133.701C164.283 132.848 163.959 132.002 163.626 131.158L163.642 131.118L163.607 131.105C163.399 130.58 163.188 130.055 162.975 129.53C162.411 128.148 161.825 126.777 161.215 125.418C160.893 124.69 160.565 123.965 160.231 123.243C160.292 123.253 160.348 123.263 160.414 123.275C160.693 123.335 160.973 123.408 161.248 123.497C161.802 123.673 162.339 123.896 162.854 124.164C163.897 124.703 164.86 125.385 165.716 126.189C166.149 126.59 166.559 127.017 166.943 127.466C167.132 127.694 167.326 127.918 167.502 128.156C167.592 128.274 167.684 128.39 167.771 128.51L168.028 128.874C168.711 129.851 169.312 130.883 169.825 131.959C169.368 130.853 168.821 129.787 168.19 128.771L167.949 128.391C167.867 128.265 167.779 128.144 167.694 128.019C167.528 127.77 167.343 127.533 167.163 127.292C166.795 126.815 166.399 126.36 165.978 125.929C165.135 125.055 164.175 124.301 163.126 123.689C162.596 123.381 162.041 123.118 161.467 122.903C161.178 122.796 160.883 122.704 160.584 122.627C160.433 122.587 160.281 122.551 160.128 122.52C160.049 122.506 159.972 122.492 159.894 122.479C159.72 122.102 159.543 121.727 159.364 121.352C158.726 120.004 158.074 118.663 157.408 117.329C156.742 115.995 156.066 114.666 155.381 113.341C153.089 108.928 150.701 104.564 148.216 100.252C148.494 100.301 148.771 100.355 149.046 100.416C149.66 100.545 150.272 100.691 150.877 100.859C151.482 101.027 152.085 101.201 152.681 101.398C153.278 101.596 153.869 101.81 154.45 102.048C155.031 102.287 155.607 102.541 156.166 102.832C156.729 103.114 157.276 103.427 157.805 103.769C157.939 103.852 158.067 103.944 158.196 104.033C158.325 104.122 158.457 104.21 158.579 104.309C158.701 104.407 158.831 104.499 158.954 104.596L159.316 104.901C159.791 105.316 160.229 105.773 160.625 106.266C160.251 105.753 159.833 105.274 159.375 104.835L159.026 104.511C158.906 104.407 158.783 104.306 158.662 104.207C158.541 104.107 158.413 104.008 158.287 103.911C158.161 103.814 158.037 103.715 157.904 103.626C157.387 103.255 156.85 102.912 156.296 102.6C155.743 102.282 155.172 101.998 154.594 101.729C154.016 101.459 153.428 101.214 152.833 100.986C152.238 100.759 151.637 100.547 151.029 100.353C150.421 100.159 149.81 99.9816 149.191 99.8208C148.884 99.7418 148.574 99.6655 148.261 99.5918C148.098 99.5543 147.935 99.5183 147.771 99.4838C147.426 98.8866 147.081 98.2896 146.735 97.6929C145.235 95.1166 143.709 92.5545 142.156 90.0067C141.381 88.7329 140.599 87.4631 139.81 86.1974C139.351 85.4629 138.891 84.7311 138.43 84.0019L139.513 84.3215C140.38 84.5714 141.248 84.8154 142.116 85.0534C143.318 85.3816 144.522 85.6974 145.728 86.0007C146.162 86.333 146.599 86.6615 147.04 86.9862C147.964 87.6663 148.9 88.3306 149.853 88.9701C150.806 89.6097 151.774 90.2242 152.764 90.8065C153.753 91.3846 154.772 91.9118 155.815 92.3861C154.8 91.8605 153.813 91.2826 152.858 90.6547C151.903 90.0291 150.974 89.3602 150.058 88.6827C149.142 88.0051 148.25 87.291 147.367 86.5676C147.276 86.4937 147.186 86.4154 147.094 86.3415C147.18 86.3625 147.264 86.3846 147.349 86.4044C150.85 87.2478 154.372 88.0036 157.922 88.603C158.365 88.6812 158.808 88.7593 159.253 88.8258L160.587 89.0333C161.032 89.0998 161.477 89.1603 161.923 89.2245C162.147 89.2542 162.368 89.2884 162.592 89.3158L163.261 89.4002L163.931 89.4834L164.265 89.5243L164.602 89.5608L165.943 89.7035C166.128 89.7204 166.312 89.7373 166.497 89.7531C167.58 90.2495 168.666 90.7284 169.758 91.1989C170.85 91.6693 171.977 92.1399 173.096 92.5886C174.215 93.0373 175.347 93.4666 176.48 93.8636L177.337 94.1542L178.199 94.4266C178.488 94.5125 178.781 94.5857 179.071 94.6646L179.18 94.6946L179.297 94.7152L179.519 94.7603L179.96 94.8525L179.524 94.7395L179.305 94.683L179.19 94.653L179.083 94.6186C178.798 94.5249 178.514 94.4375 178.227 94.3388L177.38 94.0296L176.543 93.6979C175.431 93.246 174.329 92.7675 173.238 92.2624C172.147 91.7572 171.062 91.2415 169.983 90.7153C169.437 90.4466 168.893 90.1759 168.351 89.9031L168.634 89.9217C169.531 89.9897 170.431 90.0173 171.329 90.0541L172.677 90.0753L173.014 90.0794L173.351 90.0738L174.025 90.0652C175.82 90.0397 177.612 89.9009 179.39 89.6497C177.607 89.812 175.815 89.8612 174.025 89.7971L173.355 89.774L173.021 89.7619L172.685 89.74L171.349 89.6535C170.459 89.5723 169.571 89.5013 168.681 89.3887L168.016 89.3124C167.794 89.2889 167.573 89.2535 167.351 89.2253L166.898 89.1623C166.854 89.1389 166.809 89.1164 166.765 89.093L166.742 89.1407L166.025 89.0407L164.701 88.8337L164.37 88.7814L162.721 88.4907C162.501 88.4519 162.283 88.4073 162.063 88.3661C161.624 88.2816 161.186 88.1996 160.748 88.1127L159.437 87.8406C158.999 87.7514 158.565 87.6495 158.128 87.5545C157.008 87.3056 155.891 87.0418 154.779 86.7632C154.992 86.6691 155.205 86.5776 155.418 86.4886C155.644 86.3923 155.869 86.301 156.095 86.2098C157.002 85.8452 157.915 85.501 158.842 85.1954C159.074 85.116 159.307 85.0477 159.541 84.9733L159.891 84.8631L160.243 84.7639C160.478 84.6995 160.713 84.628 160.949 84.5698L161.662 84.3959C162.616 84.1727 163.585 84.0259 164.562 83.9571C163.579 83.9674 162.598 84.0555 161.629 84.2205L160.902 84.3522C160.654 84.3962 160.421 84.455 160.18 84.5051L159.819 84.5845L159.46 84.6729C159.221 84.7329 158.98 84.7879 158.743 84.8531C157.79 85.1049 156.843 85.3949 155.912 85.7083C155.678 85.7873 155.444 85.8663 155.213 85.946C154.983 86.0256 154.748 86.1104 154.516 86.1959C154.252 86.2937 153.991 86.3931 153.729 86.4949C151.734 85.9828 149.748 85.4354 147.771 84.8526C146.059 84.3487 144.356 83.8186 142.66 83.2622C141.812 82.9851 140.967 82.7014 140.125 82.4111L140.012 82.3719C142.655 80.6238 145.302 78.8822 147.954 77.1471C152.411 74.2338 156.879 71.3395 161.36 68.4641C163.6 67.0261 165.843 65.5932 168.088 64.1656C170.334 62.7381 172.582 61.3182 174.833 59.9061L172.507 56.3168C170.286 57.8125 168.085 59.3117 165.882 60.8177C163.679 62.3236 161.481 63.8341 159.286 65.3487C154.895 68.3779 150.518 71.4255 146.154 74.4914C143.55 76.3232 140.949 78.1617 138.353 80.0069L138.354 79.8867C138.369 78.9953 138.391 78.1043 138.421 77.2138C138.458 76.0503 138.507 74.8863 138.569 73.7216L138.652 73.6305C138.729 73.5453 138.803 73.4574 138.878 73.3709C138.954 73.2844 139.029 73.1978 139.098 73.1077L139.313 72.8425L139.728 72.2997C140.27 71.5714 140.76 70.8099 141.226 70.038C141.341 69.8441 141.458 69.6507 141.569 69.455L141.897 68.8645L142.061 68.5686L142.216 68.2689L142.527 67.6694C142.73 67.2672 142.921 66.8608 143.119 66.4566L143.672 65.231L143.039 66.4184C142.815 66.8084 142.598 67.2007 142.371 67.5866L142.022 68.1612L141.851 68.4487L141.669 68.7305L141.305 69.2942C141.181 69.4804 141.052 69.6634 140.926 69.8468C140.417 70.5809 139.885 71.2979 139.309 71.9733L138.872 72.4736L138.646 72.7165L138.624 72.7402C138.64 72.4508 138.656 72.1614 138.675 71.8723C138.9 68.3096 139.218 64.7512 139.683 61.2102C139.743 60.7673 139.796 60.3244 139.861 59.8825L140.054 58.5573C140.122 58.1158 140.195 57.6753 140.266 57.2343C140.305 57.0149 140.334 56.7928 140.374 56.5737L140.665 54.9253L140.723 54.5952L140.981 53.2804L141.032 53.0392C141.605 52.6001 142.162 52.1559 142.713 51.6925C143.351 51.1615 143.984 50.6201 144.591 50.0571C144.898 49.7768 145.199 49.4906 145.494 49.1987C145.786 48.9073 146.08 48.609 146.359 48.3022C146.638 47.9954 146.909 47.6776 147.158 47.3475C147.413 47.0197 147.633 46.6667 147.816 46.2942C147.608 46.6504 147.365 46.9845 147.089 47.2908C146.819 47.6039 146.528 47.8931 146.23 48.1774C145.932 48.4616 145.627 48.735 145.314 49.0021C145.001 49.2693 144.683 49.5308 144.36 49.7866C143.716 50.2986 143.055 50.7905 142.387 51.2693C142.007 51.5408 141.624 51.8079 141.236 52.0708L141.254 51.9693C141.304 51.7518 141.346 51.532 141.4 51.3154L141.554 50.663C141.754 49.7924 141.989 48.9355 142.218 48.0665L142.594 46.7796L142.689 46.4583L142.792 46.1397L143 45.5016C143.552 43.7983 144.211 42.1315 144.973 40.5113C144.129 42.0962 143.386 43.7328 142.747 45.4113L142.508 46.0415L142.388 46.3561L142.277 46.6744L141.835 47.9484C141.563 48.8051 141.282 49.6552 141.038 50.5264L140.85 51.1739C140.784 51.3885 140.731 51.6076 140.671 51.8244L140.468 52.5801L140.35 52.6579L140.42 52.7604L140.322 53.128L139.998 54.4373L139.917 54.7659L139.841 55.0941L139.69 55.7518L139.539 56.4097C139.49 56.6295 139.445 56.8489 139.398 57.0691C139.305 57.51 139.209 57.9487 139.119 58.39L138.859 59.7142C138.77 60.1556 138.696 60.5995 138.613 61.042C138.492 61.7268 138.371 62.4127 138.25 63.0987C138.186 62.9802 138.123 62.8608 138.06 62.7403C137.81 62.2624 137.57 61.7791 137.341 61.2905C136.886 60.3082 136.473 59.3054 136.114 58.2812C135.935 57.7685 135.766 57.2574 135.618 56.7322C135.542 56.4783 135.469 56.2092 135.395 55.946C135.322 55.6828 135.262 55.4197 135.205 55.1548C134.964 54.0927 134.805 53.0139 134.728 51.9276C134.746 53.0208 134.847 54.1111 135.031 55.189C135.072 55.4585 135.127 55.7268 135.177 55.9966C135.227 56.2664 135.288 56.5333 135.353 56.7986C135.474 57.3335 135.617 57.8627 135.769 58.3899C136.074 59.4432 136.437 60.4804 136.844 61.5012C137.048 62.011 137.264 62.5167 137.493 63.0181C137.607 63.2679 137.725 63.5173 137.843 63.7642C137.915 63.9103 137.987 64.0541 138.061 64.1995C137.666 66.7014 137.332 69.2131 137.047 71.7297C136.846 73.5202 136.672 75.3129 136.523 77.1078C136.445 78.0058 136.378 78.9048 136.321 79.8049L136.252 80.927C135.711 80.2262 135.167 79.5289 134.621 78.8353C133.702 77.6604 132.776 76.4908 131.845 75.3265C131.483 74.8738 131.121 74.4224 130.76 73.9722C130.794 73.6896 130.823 73.4071 130.85 73.1243C130.903 72.5323 130.939 71.9397 130.959 71.3465C130.979 70.7487 130.982 70.1612 130.968 69.568C130.953 68.9749 130.92 68.3845 130.868 67.7943C130.769 66.6143 130.573 65.4445 130.282 64.2965C130.133 63.7244 129.955 63.1603 129.749 62.6064C129.539 62.056 129.295 61.5187 129.021 60.9973C129.268 61.5304 129.483 62.0777 129.665 62.6362C129.842 63.1947 129.99 63.7619 130.108 64.3356C130.337 65.4832 130.472 66.6475 130.513 67.817C130.534 68.4006 130.538 68.9841 130.523 69.5677C130.508 70.1513 130.476 70.7342 130.425 71.3162C130.376 71.8969 130.31 72.476 130.229 73.0535L130.191 73.2739C128.867 71.6381 127.533 70.0119 126.187 68.3953C122.98 64.547 119.702 60.7587 116.354 57.0305C116.349 56.9202 116.341 56.8093 116.333 56.6984C116.324 56.5622 116.311 56.4264 116.296 56.2915C116.281 56.1565 116.272 56.0213 116.247 55.8859C116.211 55.6172 116.18 55.3484 116.133 55.0815L116.068 54.6815C116.045 54.5488 116.017 54.4163 115.991 54.2831L115.913 53.8868C115.887 53.7547 115.854 53.6237 115.824 53.4922C115.762 53.2299 115.706 52.9662 115.632 52.7065C115.557 52.4468 115.495 52.1856 115.418 51.9278L115.176 51.1635C115.138 51.0366 115.092 50.9082 115.046 50.7798L114.911 50.4011L114.777 50.0166C114.732 49.8884 114.678 49.767 114.627 49.6427L114.326 48.8967C114.218 48.6515 114.104 48.4089 113.993 48.1656C113.78 47.6734 113.52 47.2042 113.284 46.7283L113.195 46.5502C113.164 46.4917 113.129 46.4351 113.096 46.3764L112.895 46.0294L112.494 45.3357L112.855 46.0501L113.033 46.4061C113.062 46.4666 113.094 46.5252 113.122 46.5854L113.21 46.7693C113.423 47.258 113.656 47.7369 113.84 48.2371C113.935 48.485 114.036 48.7326 114.129 48.9812L114.387 49.7362C114.428 49.8638 114.474 49.9921 114.512 50.1191L114.625 50.4999L114.739 50.8807C114.776 51.0077 114.814 51.1346 114.846 51.2605L115.041 52.0322C115.103 52.2897 115.152 52.5497 115.208 52.8087C115.265 53.0677 115.307 53.3277 115.353 53.5885C115.377 53.7129 115.401 53.8483 115.42 53.9792L115.472 54.3707C115.488 54.5023 115.509 54.6322 115.523 54.7634L115.564 55.1568C115.596 55.4187 115.611 55.6811 115.632 55.9434C115.641 56.0448 115.644 56.1477 115.648 56.2494C115.246 55.8031 114.839 55.3573 114.428 54.9121C113.419 53.8128 112.402 52.7231 111.375 51.6432C110.348 50.5632 109.311 49.4918 108.263 48.4291C107.216 47.3672 106.156 46.3187 105.083 45.2834C104.01 44.2482 102.922 43.2281 101.821 42.2231C100.722 41.2272 99.6094 40.2467 98.4738 39.2923L98.543 39.2889C98.5321 39.1667 98.5152 39.0783 98.4996 38.9757C98.484 38.8731 98.4637 38.777 98.4461 38.6788C98.4063 38.4818 98.366 38.2869 98.3184 38.0933C98.2707 37.8997 98.2203 37.7152 98.1723 37.5166C98.1243 37.3181 98.0625 37.1365 98.008 36.9477C97.7814 36.186 97.5102 35.4526 97.2201 34.7242L96.9973 34.1798L96.7615 33.6414C96.6085 33.2813 96.4346 32.9307 96.2698 32.5757C96.1051 32.2206 95.9192 31.8763 95.746 31.5282L95.1919 30.4959L95.6649 31.5656C95.8333 31.8996 95.9906 32.2557 96.1286 32.6192Z" fill="#F2B000"/>
</g>
<defs>
<clipPath id="clip0_13006_12060">
<rect width="180" height="180" fill="white" transform="translate(0.673828 178.145) rotate(-80)"/>
</clipPath>
</defs>
</svg>
