<svg width="96" height="46" viewBox="0 0 96 46" fill="none" xmlns="http://www.w3.org/2000/svg">
<g clip-path="url(#clip0_12796_13048)">
<path d="M66.6409 29.8801V30.7836C66.6409 33.5801 66.6409 39.0696 66.6409 41.8661C66.6409 42.3863 66.5254 42.8268 65.8759 42.8493C65.3331 42.8667 65.1091 42.5927 65.1073 41.8939C65.1073 39.0765 65.1073 33.5656 65.1073 30.7472C65.1073 29.8801 65.1073 29.8801 64.267 29.8801C62.1907 29.8801 60.1108 29.9477 58.038 29.8558C53.7418 29.6651 49.9743 26.8316 49.0902 23.0808C48.2551 19.5293 49.4246 16.6456 52.2625 14.4103C52.6494 14.1051 52.7211 13.8294 52.6494 13.382C51.9141 8.88551 53.9641 4.59538 57.8647 2.15551C62.7194 -0.87914 69.2022 -0.695327 73.6997 2.68614C77.026 5.18843 78.7435 8.51962 78.2795 12.7248C78.1727 13.6959 78.3828 14.2144 79.1199 14.8646C84.1356 19.3022 82.4234 26.9391 75.8636 29.1952C74.5698 29.6408 73.1377 29.757 71.7582 29.8628C70.3226 29.972 68.873 29.887 67.4305 29.887L66.6409 29.8801ZM66.6777 15.4629C66.9245 15.2618 67.0908 15.1352 67.2449 14.9964C68.1623 14.1606 69.0785 13.323 69.9935 12.4837L70.2824 12.2288C70.6588 11.882 71.0754 11.8109 71.4361 12.1994C71.7967 12.5878 71.6952 12.997 71.3223 13.3421C69.9217 14.6427 68.5124 15.9432 67.0926 17.2334C66.9418 17.3532 66.8214 17.5062 66.7408 17.6802C66.6603 17.8542 66.6219 18.0444 66.6287 18.2357C66.6479 21.3779 66.6392 24.5218 66.6409 27.664C66.6409 27.8738 66.6637 28.0836 66.6777 28.316C66.7976 28.3369 66.9186 28.3514 67.0401 28.3593C68.8766 28.3593 70.7165 28.4027 72.5495 28.3368C73.9771 28.3037 75.3735 27.9168 76.6111 27.2114C78.9448 25.8518 80.4434 23.9166 80.4626 21.142C80.4819 18.5617 79.1846 16.6594 77.0943 15.2461C76.5989 14.9097 76.3258 14.5907 76.4938 13.9161C77.4392 10.1445 76.331 6.96067 73.4284 4.44104C69.2267 0.799456 62.8909 0.530673 58.2954 3.71619C54.815 6.12658 53.3321 9.97972 54.3633 14.0028C54.4328 14.1963 54.4343 14.4075 54.3676 14.602C54.3009 14.7964 54.1698 14.9629 53.9957 15.0745C53.6823 15.3086 53.3391 15.5097 53.0398 15.7577C51.0125 17.438 49.9901 19.5519 50.4663 22.186C51.037 25.3437 53.8731 27.9535 57.1784 28.2171C59.6556 28.4131 62.1556 28.3212 64.6451 28.3732C65.1161 28.3836 65.1056 28.1009 65.1056 27.7784C65.1056 26.3911 65.1301 25.0039 65.0828 23.6166C65.0544 23.2665 64.9025 22.9375 64.6539 22.6871C63.3006 21.3935 61.9088 20.1397 60.5327 18.8721C60.0425 18.4195 59.9463 17.927 60.2929 17.582C60.7551 17.1207 61.1542 17.3635 61.5394 17.7172C62.5163 18.6178 63.4961 19.5149 64.4788 20.4085C64.6399 20.5559 64.8289 20.6756 65.1038 20.8889V19.949C65.1038 16.5675 65.1038 13.186 65.1038 9.80458C65.1038 9.26354 65.2158 8.84216 65.8619 8.82482C66.3713 8.81094 66.6357 9.14042 66.6374 9.80805C66.6462 11.4554 66.6374 13.1028 66.6374 14.7502C66.6427 14.9427 66.6619 15.1473 66.6777 15.4629Z" fill="#232323"/>
<path d="M25.8272 34.7456C26.692 33.5855 27.7792 33.1381 29.0905 33.3011C30.3475 33.4554 31.088 34.0797 31.144 35.3595C31.2491 37.6883 31.1738 40.0242 31.1738 42.3877H30.0936V41.6941C30.0936 39.8525 30.0936 38.0092 30.0936 36.1676C30.0936 34.8531 29.5229 34.2479 28.3289 34.2462C27.0457 34.2462 25.9847 35.1548 25.983 36.2612C25.983 38.0589 25.983 39.8571 25.983 41.6559V42.3756H24.8555V41.682C24.8555 39.8195 24.8555 37.9554 24.8555 36.0913C24.8555 34.6641 23.996 33.9913 22.5901 34.2913C21.3542 34.5595 20.7362 35.3213 20.7362 36.5768V42.3756H19.6367V33.5196H20.4123C20.4823 33.8456 20.5541 34.1768 20.6591 34.6589C20.9583 34.2316 21.3565 33.8817 21.8205 33.6385C22.2844 33.3953 22.8005 33.2659 23.3254 33.2612C24.4126 33.2248 25.3037 33.5924 25.8272 34.7456Z" fill="#232323"/>
<path d="M8.76747 33.9288H7.63302C7.55774 33.3548 7.51572 32.7756 7.40193 32.2138C7.14457 30.9583 6.43029 30.2404 5.33611 30.0756C3.74823 29.8363 2.56476 30.2976 1.98353 31.4959C1.68935 32.0969 1.49487 32.741 1.40755 33.4034C1.16771 35.3213 1.10468 37.2513 1.59313 39.1449C2.09908 41.1131 3.60992 41.9541 5.5917 41.4409C6.74016 41.1426 7.40017 40.2981 7.51747 38.9576C7.54023 38.7235 7.55073 38.4877 7.56999 38.212H8.68693C9.05283 40.4958 7.51046 42.4328 5.21881 42.5472C4.6524 42.5875 4.08329 42.5695 3.52063 42.4934C1.83296 42.2247 0.864833 41.1235 0.472678 39.5628C-0.167976 37.0967 -0.167976 34.51 0.472678 32.0438C1.22373 29.1791 4.78114 27.9861 7.22861 29.7097C8.37531 30.5178 8.62916 31.7404 8.75521 33.0167C8.79022 33.2924 8.76747 33.575 8.76747 33.9288Z" fill="#232323"/>
<path d="M34.5898 41.4408V45.776H33.4746V33.5472C34.1609 33.4033 34.1609 33.4033 34.5058 34.4853C34.56 34.4697 34.6318 34.4715 34.6686 34.4368C36.8272 32.3281 39.7088 33.0755 40.4459 35.9645C40.8141 37.3572 40.785 38.8237 40.3618 40.2009C39.5985 42.665 36.892 43.402 34.9259 41.7078C34.8699 41.6541 34.8034 41.6072 34.5898 41.4408ZM34.6091 37.8928C34.6091 38.5206 34.6091 39.1483 34.6091 39.7743C34.5901 39.946 34.6154 40.1196 34.6826 40.2789C35.129 40.9899 35.7435 41.4789 36.6189 41.5622C37.5502 41.6506 38.3503 41.413 38.8948 40.6032C39.7351 39.3633 39.7333 36.4709 38.8948 35.2449C38.3135 34.3952 37.2333 34.0484 36.1654 34.3692C35.129 34.683 34.6003 35.4096 34.6003 36.5281L34.6091 37.8928Z" fill="#232323"/>
<path d="M84.6903 38.3869H78.267C77.9799 39.9389 78.8378 41.2932 80.2488 41.5967C81.8857 41.9435 83.1427 41.2135 83.5559 39.6372H84.5555C84.5557 40.1279 84.4215 40.6095 84.1671 41.0306C83.9128 41.4517 83.5478 41.7966 83.1112 42.0285C80.3574 43.6412 77.1729 41.9505 77.0696 38.784C77.0102 37.7511 77.1081 36.7152 77.3602 35.7112C77.8259 34.0604 79.1634 33.2193 80.8616 33.2488C82.5597 33.2783 83.8272 34.1869 84.2912 35.8378C84.517 36.6216 84.5538 37.4522 84.6903 38.3869ZM78.239 37.4956H82.5247C83.5086 37.4956 83.5086 37.4956 83.3458 36.5158C83.12 35.1719 82.2954 34.3135 81.1312 34.2286C79.2334 34.0829 78.0114 35.4095 78.239 37.4904V37.4956Z" fill="#232323"/>
<path d="M87.5602 38.387C87.4884 40.1644 88.2955 41.3349 89.6996 41.6124C91.2752 41.9245 92.3519 41.2829 92.9681 39.6338H93.8435C93.987 40.5667 93.39 41.5586 92.3816 42.0962C89.7346 43.506 86.9387 42.1395 86.4748 39.1864C86.2192 37.565 86.27 35.9541 87.3081 34.5824C88.2885 33.2888 89.6943 33.0547 91.2017 33.3911C92.6705 33.7188 93.4338 34.7784 93.7559 36.1465C93.9205 36.8402 93.9135 37.5876 93.9923 38.387H87.5602ZM92.7965 37.4402C92.7615 36.2645 92.5707 35.2049 91.529 34.5668C91.1242 34.3034 90.6505 34.1631 90.1661 34.1631C89.6818 34.1631 89.208 34.3034 88.8032 34.5668C87.7528 35.2049 87.5935 36.2731 87.5182 37.4367L92.7965 37.4402Z" fill="#232323"/>
<path d="M16.1294 36.8612C16.329 35.3404 15.8055 34.4213 14.6833 34.2375C12.9991 33.9618 12.2323 34.5115 11.8437 36.2889H10.9053C10.8087 35.7106 10.9188 35.1171 11.2167 34.6106C11.5146 34.1041 11.9815 33.7164 12.537 33.5144C13.4702 33.186 14.4851 33.1629 15.4326 33.4485C16.6844 33.804 17.2411 34.7542 17.2831 35.9265C17.3619 38.0611 17.3059 40.201 17.3059 42.379H16.5443C16.4708 42.0166 16.4007 41.6646 16.3097 41.212C16.1049 41.3854 15.9596 41.5016 15.8318 41.6195C14.8199 42.5004 13.6224 42.7258 12.3426 42.5004C11.884 42.4304 11.4608 42.2146 11.1368 41.8856C10.8128 41.5565 10.6056 41.132 10.5464 40.6762C10.3416 39.2889 10.7092 38.2606 11.7824 37.8097C12.5912 37.4629 13.4928 37.338 14.3612 37.1473C14.9337 37.019 15.5201 36.9565 16.1294 36.8612ZM16.1959 37.638C15.107 37.8218 14.1161 37.9675 13.1357 38.1583C12.8179 38.2345 12.5198 38.3756 12.2604 38.5727C11.6476 39.0218 11.5321 39.6634 11.6546 40.3727C11.6869 40.6562 11.8106 40.9219 12.0074 41.1302C12.2042 41.3386 12.4636 41.4785 12.747 41.5293C13.9568 41.7721 15.0475 41.5102 15.8983 40.5686C16.0502 40.4193 16.1506 40.2263 16.1854 40.0172C16.2152 39.2646 16.1959 38.5103 16.1959 37.638Z" fill="#232323"/>
<path d="M51.6875 39.7557H52.6556C53.3892 41.4898 54.3801 42.01 56.101 41.5453C56.9658 41.3146 57.4175 40.751 57.4088 39.9169C57.4 39.0829 57.0201 38.6164 56.073 38.4274C55.3902 38.2904 54.6899 38.2436 54.0019 38.1308C52.5191 37.8881 51.8065 37.1823 51.7663 35.9424C51.726 34.7025 52.4473 33.7037 53.7971 33.454C54.6709 33.291 55.5673 33.2875 56.4424 33.4436C57.8132 33.6985 58.5047 34.7858 58.4277 36.258H57.428C57.4018 36.1002 57.379 35.9338 57.344 35.7725C57.3196 35.6443 57.2863 35.518 57.2442 35.3944C57.0044 34.6713 56.4301 34.2673 55.5373 34.2239C54.5866 34.1806 53.6115 34.1442 53.0565 35.1274C52.9478 35.3102 52.8833 35.5156 52.8682 35.7273C52.8532 35.939 52.8879 36.1512 52.9697 36.3474C53.0515 36.5435 53.1781 36.7182 53.3396 36.8577C53.5011 36.9971 53.693 37.0976 53.9004 37.1511C54.5411 37.3418 55.2239 37.3973 55.8874 37.5135C56.1868 37.5655 56.4914 37.5967 56.7873 37.6713C57.8377 37.9349 58.4067 38.4967 58.524 39.3724C58.6745 40.4909 58.4434 41.4776 57.372 42.0447C56.7297 42.3983 56.011 42.594 55.2765 42.6151C54.5419 42.6362 53.813 42.4822 53.1511 42.1661C52.1812 41.7256 51.6963 40.9036 51.6875 39.7557Z" fill="#232323"/>
<path d="M48.3271 33.502H49.4598V42.3753H48.6562L48.4233 41.2221C48.236 41.3955 48.1047 41.5273 47.9682 41.647C46.8495 42.6354 45.5487 42.8071 44.1797 42.3545C43.7648 42.2257 43.4012 41.9711 43.1402 41.6267C42.8792 41.2823 42.7339 40.8654 42.7248 40.4348C42.6496 38.1476 42.7003 35.8568 42.7003 33.5193H43.6825C43.6965 33.7707 43.7192 34.0222 43.721 34.2719C43.721 35.9401 43.721 37.6065 43.721 39.273C43.7315 40.5892 44.1604 41.2828 45.0778 41.5273C46.2262 41.8256 47.6548 41.3054 48.1818 40.362C48.2861 40.1283 48.3329 39.8733 48.3183 39.6181C48.3323 37.5979 48.3271 35.5881 48.3271 33.502Z" fill="#232323"/>
<path d="M72.6895 42.3925H71.5918V33.5209H72.3603L72.6177 34.5805C73.3407 33.7134 74.1618 33.2192 75.3033 33.2782V34.3186C74.4279 34.3325 73.6489 34.5441 73.1166 35.2117C72.8765 35.509 72.7341 35.8722 72.7087 36.2521C72.6685 38.0487 72.6895 39.8469 72.6895 41.6451V42.3925Z" fill="#232323"/>
</g>
<defs>
<clipPath id="clip0_12796_13048">
<rect width="96" height="46" fill="white"/>
</clipPath>
</defs>
</svg>
