<svg width="14" height="10" viewBox="0 0 14 10" fill="none" xmlns="http://www.w3.org/2000/svg">
<path d="M14 5.00005C13.9999 5.08066 13.9802 5.16004 13.9428 5.23143C13.9054 5.30282 13.8512 5.3641 13.785 5.41005L8.285 9.22005C8.2014 9.27841 8.10195 9.30981 8 9.31005C7.91943 9.31032 7.84017 9.28964 7.77 9.25005C7.68923 9.20821 7.6214 9.14513 7.57382 9.06759C7.52625 8.99006 7.50072 8.90102 7.5 8.81005V1.19005C7.50072 1.09908 7.52625 1.01004 7.57382 0.932505C7.6214 0.854972 7.68923 0.791888 7.77 0.750046C7.84862 0.710632 7.93624 0.692652 8.02403 0.697919C8.11181 0.703186 8.19666 0.731515 8.27 0.780046L13.77 4.59005C13.839 4.6343 13.8961 4.69484 13.9362 4.76633C13.9763 4.83783 13.9982 4.91809 14 5.00005ZM6.285 4.59005L0.785 0.780046C0.711659 0.731515 0.626814 0.703186 0.539028 0.697919C0.451241 0.692652 0.363618 0.710632 0.285 0.750046C0.201424 0.789821 0.13053 0.852015 0.0802112 0.9297C0.0298924 1.00738 0.0021246 1.09751 0 1.19005V8.81005C0.000721842 8.90102 0.0262458 8.99006 0.0738229 9.06759C0.1214 9.14513 0.189227 9.20821 0.27 9.25005C0.340174 9.28964 0.41943 9.31032 0.5 9.31005C0.601954 9.30981 0.701398 9.27841 0.785 9.22005L6.285 5.41005C6.35101 5.36397 6.40493 5.30263 6.44215 5.23125C6.47938 5.15987 6.49882 5.08055 6.49882 5.00005C6.49882 4.91954 6.47938 4.84023 6.44215 4.76885C6.40493 4.69746 6.35101 4.63613 6.285 4.59005Z" fill="#232323"/>
</svg>
