<svg width="25" height="24" viewBox="0 0 25 24" fill="none" xmlns="http://www.w3.org/2000/svg">
<path d="M7.35983 6.59306C7.39114 4.69588 6.34766 2.3898 6.34766 2.3898C6.34766 2.3898 8.92635 4.83871 10.7674 3.98501C12.6085 3.13132 13.0344 0.521973 13.0344 0.521973C13.0344 0.521973 13.652 3.6524 15.3679 4.0561C16.7498 4.38219 19.6996 2.45632 19.6996 2.45632C19.6996 2.45632 17.2553 5.88871 17.8259 7.30458C18.3966 8.72045 23.0433 7.95676 23.0433 7.95676C23.0433 7.95676 19.2809 9.91328 19.0748 11.4785C18.8687 13.0437 20.5135 14.0278 20.5135 14.0278C20.5135 14.0278 18.5955 14.1133 17.689 15.4052" stroke="currentColor" stroke-linejoin="round"/>
<path d="M12.6082 23.4781C13.4726 23.4781 14.1734 22.7773 14.1734 21.9129C14.1734 21.0484 13.4726 20.3477 12.6082 20.3477C11.7437 20.3477 11.043 21.0484 11.043 21.9129C11.043 22.7773 11.7437 23.4781 12.6082 23.4781Z" stroke="currentColor" stroke-linejoin="round"/>
<path d="M11.043 8.86966C11.043 8.45454 11.2079 8.05642 11.5014 7.76288C11.795 7.46935 12.1931 7.30444 12.6082 7.30444C13.0233 7.30444 13.4214 7.46935 13.715 7.76288C14.0085 8.05642 14.1734 8.45454 14.1734 8.86966L13.7612 17.0557C13.7612 17.661 13.2454 18.261 12.6082 18.261C11.971 18.261 11.4551 17.661 11.4551 17.0557L11.043 8.86966Z" stroke="currentColor" stroke-linejoin="round"/>
<path d="M3.73828 9.91284L4.78176 10.9563" stroke="currentColor" stroke-linejoin="round"/>
<path d="M5.82617 12L6.86965 13.0435" stroke="currentColor" stroke-linejoin="round"/>
<path d="M6.86965 9.91284L5.82617 10.9563" stroke="currentColor" stroke-linejoin="round"/>
<path d="M4.78176 12L3.73828 13.0435" stroke="currentColor" stroke-linejoin="round"/>
<path d="M7.39062 16.1741V17.2176" stroke="currentColor" stroke-linejoin="round"/>
<path d="M7.39062 19.3044V20.3479" stroke="currentColor" stroke-linejoin="round"/>
<path d="M6.34621 18.2607H5.30273" stroke="currentColor" stroke-linejoin="round"/>
<path d="M9.47707 18.2607H8.43359" stroke="currentColor" stroke-linejoin="round"/>
<path d="M18.3477 18.7825V19.8259" stroke="currentColor" stroke-linejoin="round"/>
<path d="M18.3477 20.8696V21.9131" stroke="currentColor" stroke-linejoin="round"/>
<path d="M17.8247 20.3477H16.7812" stroke="currentColor" stroke-linejoin="round"/>
<path d="M19.9126 20.3477H18.8691" stroke="currentColor" stroke-linejoin="round"/>
</svg>
