<svg width="16" height="16" viewBox="0 0 16 16" fill="none" xmlns="http://www.w3.org/2000/svg">
<path d="M5.33203 2.66659V10.6666C5.33203 11.0202 5.47251 11.3593 5.72256 11.6094C5.9726 11.8594 6.31174 11.9999 6.66536 11.9999H11.9987C12.3523 11.9999 12.6915 11.8594 12.9415 11.6094C13.1916 11.3593 13.332 11.0202 13.332 10.6666V4.82792C13.332 4.65029 13.2965 4.47446 13.2276 4.31075C13.1587 4.14704 13.0577 3.99875 12.9307 3.87459L10.7207 1.71325C10.4716 1.46969 10.1371 1.3333 9.7887 1.33325H6.66536C6.31174 1.33325 5.9726 1.47373 5.72256 1.72378C5.47251 1.97382 5.33203 2.31296 5.33203 2.66659V2.66659Z" stroke="currentColor" stroke-linecap="round" stroke-linejoin="round"/>
<path d="M10.666 11.9998V13.3332C10.666 13.6868 10.5255 14.0259 10.2755 14.276C10.0254 14.526 9.6863 14.6665 9.33268 14.6665H3.99935C3.64573 14.6665 3.30659 14.526 3.05654 14.276C2.80649 14.0259 2.66602 13.6868 2.66602 13.3332V5.99984C2.66602 5.64622 2.80649 5.30708 3.05654 5.05703C3.30659 4.80698 3.64573 4.6665 3.99935 4.6665H5.33268" stroke="currentColor" stroke-linecap="round" stroke-linejoin="round"/>
</svg>
