<svg width="16" height="16" viewBox="0 0 16 16" fill="none" xmlns="http://www.w3.org/2000/svg">
<path d="M12.4716 9.64941L12.2408 10.6506C12.1935 10.8549 12.0117 10.9994 11.8021 10.9994H2.80239C2.5927 10.9994 2.4109 10.8549 2.36365 10.6506L2.13281 9.64941H12.4716Z" fill="currentColor"/>
<path d="M13.5885 4.80157L12.6773 8.75018H1.9227L1.01148 4.80157C0.971436 4.62742 1.03803 4.44563 1.18158 4.33898C1.32557 4.23234 1.51862 4.22109 1.67341 4.30973L4.45836 5.90133L6.92517 2.20111C7.00572 2.08051 7.13891 2.00582 7.28336 2.00042C7.42915 1.99412 7.5664 2.05981 7.65505 2.17411L10.548 5.89368L12.9001 4.32593C13.0535 4.22424 13.2537 4.22514 13.4054 4.32998C13.5575 4.43483 13.6295 4.62202 13.5885 4.80157Z" fill="currentColor"/>
</svg>
