<svg width="24" height="24" viewBox="0 0 24 24" fill="none" xmlns="http://www.w3.org/2000/svg">
<path d="M10.9093 9.27266V10.3636H9.81836V11.9999H10.9093V16.909H13.0911V11.9999H14.542L14.7274 10.3636H13.0911V9.40902C13.0911 8.96723 13.1347 8.73266 13.8165 8.73266H14.7274V7.09082H13.2656C11.5202 7.09087 10.9093 7.90902 10.9093 9.27266Z" fill="currentColor"/>
<path d="M12 0C5.37258 0 0 5.37258 0 12C0 18.6274 5.37258 24 12 24C18.6274 24 24 18.6274 24 12C24 5.37258 18.6274 0 12 0ZM12 22.9091C5.97506 22.9091 1.09092 18.0249 1.09092 12C1.09092 5.97506 5.97506 1.09092 12 1.09092C18.0249 1.09092 22.9091 5.97506 22.9091 12C22.9091 18.0249 18.0249 22.9091 12 22.9091Z" fill="currentColor"/>
</svg>
