<svg width="17" height="16" viewBox="0 0 17 16" fill="none" xmlns="http://www.w3.org/2000/svg">
<g clip-path="url(#clip0_13473_338)">
<path d="M8.32204 11.3067C8.91114 11.3067 9.3887 10.8291 9.3887 10.24C9.3887 9.6509 8.91114 9.17334 8.32204 9.17334C7.73293 9.17334 7.25537 9.6509 7.25537 10.24C7.25537 10.8291 7.73293 11.3067 8.32204 11.3067Z" stroke="currentColor" stroke-miterlimit="10"/>
<path d="M7.25535 6.68429C7.25535 5.7314 8.70957 4.72873 9.28557 4.15273C9.40367 4.03588 9.49448 3.89437 9.5515 3.73832C9.60852 3.58228 9.63033 3.41555 9.61538 3.25009C9.60043 3.08463 9.54909 2.92451 9.46503 2.78121C9.38097 2.63791 9.26626 2.51496 9.12912 2.42117C8.95146 2.30095 8.74283 2.23465 8.52835 2.23023C8.31388 2.22582 8.1027 2.28348 7.92024 2.39629C7.77376 2.48646 7.64986 2.60895 7.55803 2.7544C7.4662 2.89984 7.40889 3.06438 7.39046 3.2354C7.39046 3.6514 7.3549 3.83984 6.94246 3.83984H5.87579C5.46335 3.83984 5.52024 3.6514 5.52024 3.23895C5.53752 2.75059 5.6741 2.27389 5.91802 1.85045C6.16195 1.42702 6.50582 1.06974 6.91961 0.809791C7.3334 0.549846 7.80453 0.395142 8.29187 0.359189C8.77922 0.323236 9.26796 0.407123 9.71542 0.60353C10.1629 0.799938 10.5555 1.10289 10.8589 1.48595C11.1623 1.869 11.3674 2.3205 11.4561 2.80104C11.5449 3.28158 11.5147 3.77654 11.3681 4.24271C11.2216 4.70888 10.9631 5.1321 10.6154 5.4754C10.1958 5.87718 9.03669 6.54206 9.03669 7.03984V7.75095C9.0411 7.79517 9.03636 7.83982 9.02276 7.88212C9.00915 7.92442 8.98698 7.96347 8.95763 7.99683C8.92827 8.03019 8.89236 8.05714 8.85213 8.07601C8.8119 8.09488 8.76821 8.10526 8.7238 8.10651H7.65713C7.55828 8.10788 7.46252 8.07211 7.38878 8.00627C7.31504 7.94044 7.2687 7.84932 7.25891 7.75095L7.25535 6.68429Z" stroke="currentColor" stroke-miterlimit="10"/>
<path d="M12.5888 5.26221H13.6555C14.0327 5.26221 14.3944 5.41205 14.6611 5.67877C14.9279 5.94548 15.0777 6.30723 15.0777 6.68443V11.6622C15.0777 12.0394 14.9279 12.4012 14.6611 12.6679C14.3944 12.9346 14.0327 13.0844 13.6555 13.0844H8.21548L5.72659 15.6515C5.67749 15.7025 5.61429 15.7376 5.54511 15.7525C5.47592 15.7673 5.40388 15.7611 5.33821 15.7348C5.27253 15.7084 5.21622 15.6631 5.17646 15.6046C5.13671 15.546 5.11532 15.477 5.11504 15.4062V13.0844H3.33726C2.96006 13.0844 2.59832 12.9346 2.3316 12.6679C2.06488 12.4012 1.91504 12.0394 1.91504 11.6622V6.68443C1.91504 6.30723 2.06488 5.94548 2.3316 5.67877C2.59832 5.41205 2.96006 5.26221 3.33726 5.26221H4.40393" stroke="currentColor" stroke-linejoin="round"/>
</g>
<defs>
<clipPath id="clip0_13473_338">
<rect width="16" height="16" fill="white" transform="translate(0.5)"/>
</clipPath>
</defs>
</svg>
