<svg width="24" height="24" viewBox="0 0 24 24" fill="none" xmlns="http://www.w3.org/2000/svg">
<path d="M19.635 20.3852C19.8339 20.3852 20.0247 20.3061 20.1653 20.1655C20.306 20.0248 20.385 19.8341 20.385 19.6352V17.3027C20.9925 17.1398 21.5293 16.781 21.9121 16.282C22.2949 15.783 22.5024 15.1716 22.5024 14.5427C22.5024 13.9137 22.2949 13.3023 21.9121 12.8033C21.5293 12.3043 20.9925 11.9455 20.385 11.7826V4.36514C20.385 4.16623 20.306 3.97547 20.1653 3.83481C20.0247 3.69416 19.8339 3.61514 19.635 3.61514C19.4361 3.61514 19.2453 3.69416 19.1047 3.83481C18.964 3.97547 18.885 4.16623 18.885 4.36514V11.7901C18.2775 11.953 17.7407 12.3118 17.3579 12.8108C16.9751 13.3098 16.7676 13.9212 16.7676 14.5502C16.7676 15.1791 16.9751 15.7905 17.3579 16.2895C17.7407 16.7885 18.2775 17.1473 18.885 17.3102V19.6427C18.887 19.8403 18.9669 20.0291 19.1073 20.1681C19.2477 20.3072 19.4374 20.3852 19.635 20.3852ZM18.2625 14.5427C18.2625 14.2712 18.343 14.0058 18.4938 13.7801C18.6446 13.5544 18.859 13.3785 19.1098 13.2746C19.3606 13.1707 19.6365 13.1436 19.9028 13.1965C20.169 13.2495 20.4136 13.3802 20.6055 13.5721C20.7975 13.7641 20.9282 14.0086 20.9811 14.2749C21.0341 14.5411 21.0069 14.8171 20.903 15.0679C20.7991 15.3187 20.6232 15.533 20.3975 15.6838C20.1718 15.8347 19.9065 15.9152 19.635 15.9152C19.271 15.9152 18.9219 15.7705 18.6645 15.5132C18.4071 15.2558 18.2625 14.9067 18.2625 14.5427Z" fill="currentColor"/>
<path d="M11.9999 20.385C12.1989 20.385 12.3896 20.306 12.5303 20.1653C12.6709 20.0247 12.7499 19.8339 12.7499 19.635V9.24C13.4221 9.05819 14.0053 8.63843 14.3912 8.05878C14.777 7.47914 14.9391 6.77908 14.8474 6.08884C14.7557 5.3986 14.4164 4.76516 13.8926 4.30636C13.3689 3.84756 12.6963 3.59464 11.9999 3.59464C11.3036 3.59464 10.631 3.84756 10.1073 4.30636C9.58347 4.76516 9.24417 5.3986 9.15247 6.08884C9.06077 6.77908 9.22291 7.47914 9.60873 8.05878C9.99456 8.63843 10.5778 9.05819 11.2499 9.24V19.635C11.2499 19.8339 11.329 20.0247 11.4696 20.1653C11.6103 20.306 11.801 20.385 11.9999 20.385ZM10.6274 6.4875C10.626 6.21573 10.7052 5.94963 10.8551 5.72294C11.005 5.49625 11.2188 5.31917 11.4695 5.21414C11.7202 5.1091 11.9964 5.08085 12.2631 5.13296C12.5298 5.18507 12.7751 5.31519 12.9678 5.50684C13.1605 5.69848 13.2919 5.94302 13.3455 6.20946C13.3991 6.47591 13.3723 6.75225 13.2687 7.00348C13.165 7.25471 12.9891 7.46951 12.7632 7.62066C12.5374 7.7718 12.2717 7.85249 11.9999 7.8525C11.6372 7.8525 11.2893 7.70893 11.0321 7.45316C10.7749 7.19738 10.6294 6.8502 10.6274 6.4875Z" fill="currentColor"/>
<path d="M3.61499 14.7602V19.6352C3.61499 19.8341 3.69401 20.0248 3.83466 20.1655C3.97531 20.3061 4.16608 20.3852 4.36499 20.3852C4.5639 20.3852 4.75467 20.3061 4.89532 20.1655C5.03597 20.0248 5.11499 19.8341 5.11499 19.6352V14.7602C5.72247 14.5973 6.25925 14.2385 6.64208 13.7395C7.02491 13.2405 7.23242 12.6291 7.23242 12.0001C7.23242 11.3712 7.02491 10.7598 6.64208 10.2608C6.25925 9.76181 5.72247 9.40304 5.11499 9.24015V4.36514C5.11499 4.16623 5.03597 3.97547 4.89532 3.83481C4.75467 3.69416 4.5639 3.61514 4.36499 3.61514C4.16608 3.61514 3.97531 3.69416 3.83466 3.83481C3.69401 3.97547 3.61499 4.16623 3.61499 4.36514V9.24015C3.0075 9.40304 2.47073 9.76181 2.0879 10.2608C1.70506 10.7598 1.49756 11.3712 1.49756 12.0001C1.49756 12.6291 1.70506 13.2405 2.0879 13.7395C2.47073 14.2385 3.0075 14.5973 3.61499 14.7602ZM4.36499 10.6276C4.63676 10.6262 4.90285 10.7054 5.12954 10.8553C5.35623 11.0052 5.53332 11.219 5.63835 11.4697C5.74338 11.7204 5.77163 11.9966 5.71952 12.2633C5.66742 12.53 5.53729 12.7753 5.34565 12.968C5.154 13.1607 4.90946 13.2921 4.64302 13.3457C4.37658 13.3993 4.10023 13.3725 3.849 13.2689C3.59777 13.1652 3.38297 12.9893 3.23183 12.7634C3.08068 12.5376 2.99999 12.2719 2.99999 12.0001C2.99998 11.6374 3.14355 11.2895 3.39933 11.0323C3.6551 10.7751 4.00228 10.6296 4.36499 10.6276Z" fill="currentColor"/>
</svg>
