<svg width="24" height="24" viewBox="0 0 24 24" fill="none" xmlns="http://www.w3.org/2000/svg">
<path d="M6.25077 14.1818V13.0909L2.97804 9.27272L1.97987 7.60363C1.63623 6.73091 2.08895 5.20363 2.97804 4.90909L4.61441 7.63636L6.79622 9.81818C7.23999 10.1781 7.79584 10.3711 8.36714 10.3636H9.58895C10.1603 10.3711 10.7161 10.1781 11.1599 9.81818L13.3417 7.63636L14.978 4.90909C15.8671 5.20363 16.3199 6.73091 15.9762 7.60363L14.978 9.27272L11.7053 13.0909V18.5455" stroke="currentColor" stroke-miterlimit="10"/>
<path d="M8.97829 4.90863C9.19481 4.90262 9.4103 4.94083 9.61155 5.02094C9.8128 5.10104 9.9956 5.22136 10.1488 5.37452C10.3019 5.52769 10.4223 5.71048 10.5024 5.91174C10.5825 6.11299 10.6207 6.32847 10.6147 6.545V7.09045C10.6147 7.52444 10.4422 7.94066 10.1354 8.24754C9.82849 8.55442 9.41228 8.72682 8.97829 8.72682C8.5443 8.72682 8.12809 8.55442 7.82121 8.24754C7.51433 7.94066 7.34192 7.52444 7.34192 7.09045V6.545C7.33591 6.32847 7.37411 6.11299 7.45422 5.91174C7.53432 5.71048 7.65464 5.52769 7.80781 5.37452C7.96098 5.22136 8.14377 5.10104 8.34503 5.02094C8.54628 4.94083 8.76176 4.90262 8.97829 4.90863V4.90863Z" stroke="currentColor" stroke-miterlimit="10"/>
<path d="M16.0693 17.4545C15.8525 17.4613 15.6367 17.4237 15.4351 17.3439C15.2335 17.264 15.0504 17.1438 14.897 16.9904C14.7437 16.8371 14.6234 16.654 14.5436 16.4523C14.4638 16.2507 14.4261 16.0349 14.4329 15.8182V15.2727C14.4329 14.8387 14.6053 14.4225 14.9122 14.1156C15.2191 13.8088 15.6353 13.6364 16.0693 13.6364C16.5033 13.6364 16.9195 13.8088 17.2264 14.1156C17.5332 14.4225 17.7056 14.8387 17.7056 15.2727V15.8182C17.7125 16.0349 17.6748 16.2507 17.595 16.4523C17.5151 16.654 17.3948 16.8371 17.2415 16.9904C17.0882 17.1438 16.9051 17.264 16.7035 17.3439C16.5018 17.4237 16.286 17.4613 16.0693 17.4545V17.4545Z" stroke="currentColor" stroke-miterlimit="10"/>
<path d="M12.8398 24V21.2727C12.8398 19.4727 14.7653 19.0909 16.1126 19.0909H16.7235C17.2746 19.0006 17.8059 18.8161 18.2944 18.5454L20.4762 17.4545L22.1126 13.6364C23.0017 13.9309 23.4544 16.0036 23.1108 16.8764L22.0689 19.0909L18.7962 21.8182V24" stroke="currentColor" stroke-miterlimit="10"/>
<path d="M7.34174 19.0909C7.55847 19.0977 7.7743 19.0601 7.97591 18.9802C8.17753 18.9004 8.36065 18.7801 8.51398 18.6268C8.66731 18.4735 8.7876 18.2903 8.86742 18.0887C8.94725 17.8871 8.98491 17.6713 8.9781 17.4546V16.9091C8.9781 16.4751 8.80569 16.0589 8.49881 15.752C8.19194 15.4451 7.77573 15.2727 7.34174 15.2727C6.90775 15.2727 6.49154 15.4451 6.18466 15.752C5.87778 16.0589 5.70537 16.4751 5.70537 16.9091V17.4546C5.69856 17.6713 5.73623 17.8871 5.81605 18.0887C5.89588 18.2903 6.01617 18.4735 6.1695 18.6268C6.32283 18.7801 6.50595 18.9004 6.70756 18.9802C6.90917 19.0601 7.125 19.0977 7.34174 19.0909V19.0909Z" stroke="currentColor" stroke-miterlimit="10"/>
<path d="M4.06885 24V22.9091C4.06885 21.1091 6.01612 20.7273 7.34158 20.7273C8.66703 20.7273 10.6143 21.1091 10.6143 22.9091V24" stroke="currentColor" stroke-miterlimit="10"/>
<path d="M9 2.72727V0" stroke="currentColor" stroke-miterlimit="10"/>
<path d="M11.2036 3.27272L12.84 1.63635" stroke="currentColor" stroke-miterlimit="10"/>
<path d="M6.83998 3.27272L5.20361 1.63635" stroke="currentColor" stroke-miterlimit="10"/>
</svg>
