<svg width="16" height="16" viewBox="0 0 16 16" fill="none" xmlns="http://www.w3.org/2000/svg">
<path d="M15.9995 8.00945C16.0088 7.47054 15.9531 6.93163 15.8354 6.4082H8.47644V9.31647H12.797C12.6329 10.3478 12.0537 11.2646 11.1958 11.8593L11.1803 11.9553L13.5063 13.7579L13.6673 13.7733C15.1447 12.4075 15.9995 10.3974 15.9995 8.00945Z" fill="#4285F4"/>
<path d="M8.47611 15.6723C10.5915 15.6723 12.3693 14.9754 13.667 13.7737L11.1954 11.8565C10.3933 12.3954 9.44243 12.668 8.4792 12.6401C6.44744 12.6277 4.65107 11.3145 4.01924 9.38184L3.92632 9.39113L1.50741 11.2618L1.47644 11.3486C2.80204 14.0029 5.51209 15.6754 8.47611 15.6723Z" fill="#34A853"/>
<path d="M4.01645 9.38511C3.8461 8.88646 3.75628 8.36304 3.75628 7.83341C3.75938 7.30689 3.8461 6.78346 4.01025 6.28172L4.00716 6.17951L1.55727 4.27783L1.47675 4.315C0.361755 6.52949 0.361755 9.13734 1.47675 11.3518L4.01645 9.38511Z" fill="#FBBC05"/>
<path d="M8.47644 3.02953C9.60072 3.01095 10.6847 3.42907 11.5055 4.19717L13.7169 2.03843C12.2984 0.706631 10.4184 -0.0212096 8.47335 0.00047078C5.50933 0.00047078 2.79928 1.66986 1.47058 4.32106L4.00409 6.28778C4.64211 4.35513 6.44158 3.04192 8.47644 3.02953Z" fill="#EB4335"/>
</svg>
