<svg width="16" height="16" viewBox="0 0 16 16" fill="none" xmlns="http://www.w3.org/2000/svg">
<path d="M14.6672 5.89913L8.3259 3.33821C8.10475 3.24843 7.8573 3.24843 7.63614 3.33821L1.2948 5.89913C1.12463 5.96785 0.978869 6.08585 0.876229 6.23799C0.773589 6.39013 0.71875 6.56947 0.71875 6.753C0.71875 6.93652 0.773589 7.11586 0.876229 7.268C0.978869 7.42014 1.12463 7.53815 1.2948 7.60687L7.63614 10.1679C7.85729 10.2577 8.10476 10.2577 8.3259 10.1679L14.6672 7.60694C14.8374 7.53822 14.9832 7.42022 15.0858 7.26808C15.1885 7.11594 15.2433 6.9366 15.2433 6.75307C15.2433 6.56955 15.1885 6.39021 15.0858 6.23807C14.9832 6.08593 14.8374 5.96792 14.6672 5.8992V5.89913Z" fill="currentColor"/>
<path d="M14.428 10.1295C14.3466 10.1295 14.2686 10.0972 14.211 10.0396C14.1534 9.98204 14.1211 9.90396 14.1211 9.82255V7.37306C14.1211 7.29165 14.1534 7.21357 14.211 7.15601C14.2686 7.09844 14.3466 7.0661 14.428 7.0661C14.5095 7.0661 14.5875 7.09844 14.6451 7.15601C14.7027 7.21357 14.735 7.29165 14.735 7.37306V9.82255C14.735 9.90396 14.7027 9.98204 14.6451 10.0396C14.5875 10.0972 14.5095 10.1295 14.428 10.1295Z" fill="currentColor"/>
<path d="M14.4287 11.3573C14.9373 11.3573 15.3495 10.945 15.3495 10.4365C15.3495 9.92788 14.9373 9.51559 14.4287 9.51559C13.9201 9.51559 13.5078 9.92788 13.5078 10.4365C13.5078 10.945 13.9201 11.3573 14.4287 11.3573Z" fill="currentColor"/>
<path d="M11.8184 9.41891V11.4157C11.8184 11.595 11.7659 11.7705 11.6675 11.9205C11.569 12.0705 11.4289 12.1884 11.2643 12.2598L8.34827 13.5275C8.2326 13.5781 8.10771 13.6042 7.98146 13.6042C7.8552 13.6042 7.73031 13.5781 7.61465 13.5275L4.69858 12.2598C4.53401 12.1884 4.39388 12.0705 4.29545 11.9205C4.19701 11.7705 4.14455 11.595 4.14453 11.4157V9.41891L7.40745 10.7373C7.77608 10.8867 8.18838 10.8867 8.557 10.7373L11.8184 9.41891Z" fill="currentColor"/>
</svg>
