<svg width="16" height="16" viewBox="0 0 16 16" fill="none" xmlns="http://www.w3.org/2000/svg">
<path d="M14.6672 5.89925L8.3259 3.33833C8.10475 3.24855 7.8573 3.24855 7.63614 3.33833L1.2948 5.89925C1.12463 5.96797 0.978869 6.08597 0.876229 6.23811C0.773589 6.39025 0.71875 6.56959 0.71875 6.75312C0.71875 6.93664 0.773589 7.11598 0.876229 7.26813C0.978869 7.42027 1.12463 7.53827 1.2948 7.60699L7.63614 10.168C7.85729 10.2578 8.10476 10.2578 8.3259 10.168L14.6672 7.60706C14.8374 7.53834 14.9832 7.42034 15.0858 7.2682C15.1885 7.11606 15.2433 6.93672 15.2433 6.7532C15.2433 6.56967 15.1885 6.39033 15.0858 6.23819C14.9832 6.08605 14.8374 5.96805 14.6672 5.89933V5.89925Z" fill="currentColor"/>
<path d="M14.4261 10.1293C14.3447 10.1293 14.2666 10.097 14.209 10.0394C14.1515 9.98185 14.1191 9.90378 14.1191 9.82237V7.37287C14.1191 7.29146 14.1515 7.21339 14.209 7.15582C14.2666 7.09826 14.3447 7.06592 14.4261 7.06592C14.5075 7.06592 14.5856 7.09826 14.6431 7.15582C14.7007 7.21339 14.733 7.29146 14.733 7.37287V9.82237C14.733 9.90378 14.7007 9.98185 14.6431 10.0394C14.5856 10.097 14.5075 10.1293 14.4261 10.1293Z" fill="currentColor"/>
<path d="M14.4267 11.3574C14.9353 11.3574 15.3476 10.9451 15.3476 10.4365C15.3476 9.92791 14.9353 9.51562 14.4267 9.51562C13.9181 9.51562 13.5059 9.92791 13.5059 10.4365C13.5059 10.9451 13.9181 11.3574 14.4267 11.3574Z" fill="currentColor"/>
<path d="M11.8184 9.41895V11.4157C11.8184 11.5951 11.7659 11.7705 11.6675 11.9205C11.569 12.0705 11.4289 12.1884 11.2643 12.2598L8.34827 13.5275C8.2326 13.5781 8.10771 13.6043 7.98146 13.6043C7.8552 13.6043 7.73031 13.5781 7.61465 13.5275L4.69858 12.2598C4.53401 12.1884 4.39388 12.0705 4.29545 11.9205C4.19701 11.7705 4.14455 11.5951 4.14453 11.4157V9.41895L7.40745 10.7373C7.77608 10.8867 8.18838 10.8867 8.557 10.7373L11.8184 9.41895Z" fill="currentColor"/>
</svg>
