<svg width="24" height="24" viewBox="0 0 24 24" fill="none" xmlns="http://www.w3.org/2000/svg">
<path d="M12 0C5.37258 0 0 5.37258 0 12C0 18.6274 5.37258 24 12 24C18.6274 24 24 18.6274 24 12C24 5.37258 18.6274 0 12 0ZM12 22.9091C5.97506 22.9091 1.09092 18.0249 1.09092 12C1.09092 5.97506 5.97506 1.09092 12 1.09092C18.0249 1.09092 22.9091 5.97506 22.9091 12C22.9091 18.0249 18.0249 22.9091 12 22.9091Z" fill="currentColor"/>
<path d="M12.1181 18C12.0784 18 12.0387 18 11.9986 17.9998C11.058 18.0021 10.1889 17.9782 9.3437 17.9268C8.56879 17.8796 7.86146 17.6118 7.29804 17.1524C6.7544 16.7091 6.38315 16.1097 6.19464 15.3711C6.03058 14.728 6.02188 14.0967 6.01355 13.4862C6.00751 13.0481 6.00128 12.529 6 12.0011C6.00128 11.471 6.00751 10.9519 6.01355 10.5138C6.02188 9.90333 6.03058 9.27207 6.19464 8.62891C6.38315 7.89026 6.7544 7.29086 7.29804 6.84756C7.86146 6.38815 8.56879 6.12036 9.34379 6.07321C10.189 6.02185 11.0583 5.99786 12.0009 6.00015C12.9418 5.99814 13.8107 6.02185 14.6559 6.07321C15.4308 6.12036 16.1381 6.38815 16.7015 6.84756C17.2453 7.29086 17.6164 7.89026 17.8049 8.62891C17.969 9.27198 17.9777 9.90333 17.986 10.5138C17.9921 10.9519 17.9984 11.471 17.9996 11.9989V12.0011C17.9984 12.529 17.9921 13.0481 17.986 13.4862C17.9777 14.0966 17.9691 14.7279 17.8049 15.3711C17.6164 16.1097 17.2453 16.7091 16.7015 17.1524C16.1381 17.6118 15.4308 17.8796 14.6559 17.9268C13.8465 17.976 13.015 18 12.1181 18ZM11.9986 17.0623C12.924 17.0645 13.7736 17.0412 14.5989 16.991C15.1849 16.9554 15.6929 16.7652 16.1091 16.4258C16.4938 16.1121 16.7588 15.6792 16.8965 15.1392C17.0331 14.6039 17.041 14.0292 17.0486 13.4733C17.0546 13.0382 17.0608 12.5228 17.0621 12C17.0608 11.4771 17.0546 10.9618 17.0486 10.5266C17.041 9.9708 17.0331 9.39603 16.8965 8.86063C16.7588 8.32065 16.4938 7.88779 16.1091 7.57404C15.6929 7.23474 15.1849 7.04459 14.5989 7.00897C13.7736 6.95871 12.924 6.93555 12.0008 6.93756C11.0757 6.93536 10.226 6.95871 9.40064 7.00897C8.8147 7.04459 8.30668 7.23474 7.89048 7.57404C7.50577 7.88779 7.24082 8.32065 7.10303 8.86063C6.96643 9.39603 6.95856 9.97071 6.95096 10.5266C6.94501 10.9621 6.93878 11.4779 6.9375 12.0011C6.93878 12.522 6.94501 13.0378 6.95096 13.4733C6.95856 14.0292 6.96643 14.6039 7.10303 15.1392C7.24082 15.6792 7.50577 16.1121 7.89048 16.4258C8.30668 16.7651 8.8147 16.9553 9.40064 16.9909C10.226 17.0412 11.0759 17.0646 11.9986 17.0623ZM11.9763 14.9297C10.3609 14.9297 9.04661 13.6154 9.04661 12C9.04661 10.3845 10.3609 9.07029 11.9763 9.07029C13.5918 9.07029 14.906 10.3845 14.906 12C14.906 13.6154 13.5918 14.9297 11.9763 14.9297ZM11.9763 10.0078C10.8779 10.0078 9.98411 10.9015 9.98411 12C9.98411 13.0984 10.8779 13.9922 11.9763 13.9922C13.0748 13.9922 13.9685 13.0984 13.9685 12C13.9685 10.9015 13.0748 10.0078 11.9763 10.0078ZM15.2341 8.13278C14.8458 8.13278 14.531 8.44754 14.531 8.83591C14.531 9.22428 14.8458 9.53904 15.2341 9.53904C15.6225 9.53904 15.9373 9.22428 15.9373 8.83591C15.9373 8.44754 15.6225 8.13278 15.2341 8.13278Z" fill="currentColor" stroke="currentColor" stroke-width="0.2"/>
</svg>
