<svg width="14" height="14" viewBox="0 0 14 14" fill="none" xmlns="http://www.w3.org/2000/svg">
<g clip-path="url(#clip0_13152_18655)">
<path d="M7 2.01658C6.7585 2.01658 6.5625 1.82058 6.5625 1.57908V0.4375C6.5625 0.196 6.7585 0 7 0C7.2415 0 7.4375 0.196 7.4375 0.4375V1.57908C7.4375 1.82058 7.2415 2.01658 7 2.01658Z" fill="currentColor"/>
<path d="M10.8319 3.60441C10.7199 3.60441 10.6079 3.56183 10.5227 3.47608C10.3518 3.30516 10.3518 3.02808 10.5227 2.85717L11.3301 2.04983C11.501 1.87892 11.7781 1.87892 11.949 2.04983C12.1199 2.22075 12.1199 2.49783 11.949 2.66875L11.1416 3.47608C11.0559 3.56125 10.9439 3.60441 10.8319 3.60441Z" fill="currentColor"/>
<path d="M13.5635 7.4375H12.4219C12.1804 7.4375 11.9844 7.2415 11.9844 7C11.9844 6.7585 12.1804 6.5625 12.4219 6.5625H13.5635C13.805 6.5625 14.001 6.7585 14.001 7C14.001 7.2415 13.805 7.4375 13.5635 7.4375Z" fill="currentColor"/>
<path d="M11.6392 12.0779C11.5272 12.0779 11.4152 12.0353 11.3301 11.9496L10.5227 11.1423C10.3518 10.9713 10.3518 10.6943 10.5227 10.5233C10.6936 10.3524 10.9707 10.3524 11.1416 10.5233L11.949 11.3307C12.1199 11.5016 12.1199 11.7787 11.949 11.9496C11.8632 12.0353 11.7512 12.0779 11.6392 12.0779Z" fill="currentColor"/>
<path d="M2.35923 12.0779C2.24723 12.0779 2.13523 12.0353 2.05006 11.9496C1.87915 11.7787 1.87915 11.5016 2.05006 11.3307L2.8574 10.5233C3.02831 10.3524 3.3054 10.3524 3.47631 10.5233C3.64723 10.6943 3.64723 10.9713 3.47631 11.1423L2.66898 11.9496C2.58323 12.0353 2.47123 12.0779 2.35923 12.0779Z" fill="currentColor"/>
<path d="M1.57908 7.4375H0.4375C0.196 7.4375 0 7.2415 0 7C0 6.7585 0.196 6.5625 0.4375 6.5625H1.57908C1.82058 6.5625 2.01658 6.7585 2.01658 7C2.01658 7.2415 1.82058 7.4375 1.57908 7.4375Z" fill="currentColor"/>
<path d="M3.16656 3.60441C3.05456 3.60441 2.94256 3.56183 2.8574 3.47608L2.05006 2.66875C1.87915 2.49783 1.87915 2.22075 2.05006 2.04983C2.22098 1.87892 2.49806 1.87892 2.66898 2.04983L3.47631 2.85717C3.64723 3.02808 3.64723 3.30516 3.47631 3.47608C3.38998 3.56125 3.27856 3.60441 3.16656 3.60441Z" fill="currentColor"/>
<path d="M8.75 12.25V12.9792C8.75 13.5392 8.28917 14 7.72917 14H6.27083C5.78083 14 5.25 13.6267 5.25 12.81V12.25H8.75Z" fill="currentColor"/>
<path d="M9.57064 3.82666C8.61397 3.05083 7.35398 2.7475 6.12314 3.01C4.57731 3.33083 3.32315 4.59083 3.00231 6.13666C2.67565 7.72333 3.27064 9.29833 4.54231 10.2608C4.88648 10.5175 5.12564 10.9142 5.20731 11.375V11.3808C5.21898 11.375 5.23648 11.375 5.24814 11.375H8.74814C8.75981 11.375 8.76564 11.375 8.77731 11.3808V11.375C8.85897 10.9317 9.12147 10.5233 9.52397 10.2083C10.5098 9.42666 11.0815 8.25999 11.0815 7C11.0815 5.76333 10.5331 4.60833 9.57064 3.82666ZM9.18564 7.29166C8.94647 7.29166 8.74814 7.09333 8.74814 6.85416C8.74814 5.9675 8.03064 5.25 7.14398 5.25C6.90481 5.25 6.70648 5.05166 6.70648 4.8125C6.70648 4.57333 6.90481 4.375 7.14398 4.375C8.50897 4.375 9.62314 5.48916 9.62314 6.85416C9.62314 7.09333 9.42481 7.29166 9.18564 7.29166Z" fill="currentColor"/>
<path d="M5.21094 11.375H5.25177C5.2401 11.375 5.2226 11.375 5.21094 11.3808V11.375Z" fill="currentColor"/>
<path d="M8.77916 11.375V11.3808C8.76749 11.375 8.76166 11.375 8.75 11.375H8.77916Z" fill="currentColor"/>
</g>
<defs>
<clipPath id="clip0_13152_18655">
<rect width="14" height="14" fill="currentColor"/>
</clipPath>
</defs>
</svg>
