<svg width="32" height="32" viewBox="0 0 32 32" fill="none" xmlns="http://www.w3.org/2000/svg">
<path d="M21.5807 24.5554C21.0926 23.8807 21.4999 22.9309 22.3251 22.8206C23.12 22.7145 24.0791 22.6518 24.7464 22.8229C24.7464 22.8229 23.0827 21.1436 26.057 21.0745C26.057 21.0745 25.1296 20.5916 27.7267 18.7683C27.7267 18.7683 26.3567 18.9324 25.8238 17.5592C25.8238 17.5592 23.077 17.7957 23.4948 16.8122C23.9125 15.8287 26.345 14.2641 26.345 14.2641C26.345 14.2641 23.7742 13.9805 25.6508 11.3519C25.6508 11.3519 23.8686 10.9324 25.1449 8.90177C25.1449 8.90177 23.6522 9.88885 23.0188 9.42953C23.0188 9.42953 21.6556 10.9138 20.7922 9.22723L20.1746 11.4391L19.3854 11.3599L19.2602 12.017C19.2318 12.1659 19.1461 12.2978 19.0215 12.3842C18.8968 12.4706 18.7433 12.5046 18.5938 12.479C18.5938 12.479 18.2186 8.08368 19.1291 7.32472C19.1291 7.32472 17.3294 8.51915 17.1073 6.785C17.1073 6.785 16.4522 6.6497 16.7295 5.43099C16.7295 5.43099 15.292 5.92254 15.0596 3.43644C15.2002 5.92952 13.7055 5.6574 13.7055 5.6574C14.1615 6.82143 13.5334 7.05258 13.5334 7.05258C13.5725 8.80022 11.6146 7.88735 11.6146 7.88735C12.6283 8.50255 12.9114 12.9044 12.9114 12.9044C12.7674 12.9521 12.6104 12.9413 12.4743 12.8744C12.3382 12.8076 12.2337 12.6899 12.1834 12.5468L11.9618 11.9157L11.1931 12.1116L10.2531 10.0163C9.65027 11.8124 8.08149 10.5479 8.08149 10.5479C7.52347 11.0964 5.90058 10.3425 5.90058 10.3425C7.46581 12.1605 5.76575 12.8409 5.76575 12.8409C8.01285 15.1607 5.51295 15.824 5.51295 15.824C5.51295 15.824 8.15122 17.0088 8.71089 17.9192C9.27057 18.8296 6.51907 19.0047 6.51907 19.0047C6.19697 20.4415 4.81752 20.4838 4.81752 20.4838C7.65762 21.8994 6.81201 22.5156 6.81201 22.5156C9.76401 22.1406 8.36835 24.0494 8.36835 24.0494C9.00261 23.781 9.96021 23.7003 10.7623 23.6866C11.5949 23.6726 12.139 24.5512 11.7567 25.2911C11.3939 25.9933 10.959 26.63 10.959 26.63C11.764 25.9787 13.91 25.736 13.91 25.736C14.7993 24.4542 15.6947 23.9767 15.6947 23.9767L16.399 21.3255L17.4901 23.8423C17.4901 23.8423 18.4467 24.1812 19.5169 25.3162C19.5169 25.3162 21.6751 25.2366 22.5681 25.7608C22.5689 25.7607 22.0437 25.1961 21.5807 24.5554Z" fill="currentColor"/>
</svg>
