<svg width="24" height="24" viewBox="0 0 24 24" fill="none" xmlns="http://www.w3.org/2000/svg">
<path d="M8.72764 9.81807C9.33014 9.81807 9.81856 9.32965 9.81856 8.72715C9.81856 8.12465 9.33014 7.63623 8.72764 7.63623C8.12514 7.63623 7.63672 8.12465 7.63672 8.72715C7.63672 9.32965 8.12514 9.81807 8.72764 9.81807Z" fill="currentColor"/>
<path d="M9.81852 10.3638H7.63672V16.3638H9.81852V10.3638Z" fill="currentColor"/>
<path d="M12 0C5.37258 0 0 5.37258 0 12C0 18.6274 5.37258 24 12 24C18.6274 24 24 18.6274 24 12C24 5.37258 18.6274 0 12 0ZM12 22.9091C5.97506 22.9091 1.09092 18.0249 1.09092 12C1.09092 5.97506 5.97506 1.09092 12 1.09092C18.0249 1.09092 22.9091 5.97506 22.9091 12C22.9091 18.0249 18.0249 22.9091 12 22.9091Z" fill="currentColor"/>
<path d="M14.9237 10.3638C13.2873 10.3638 13.091 11.3347 13.091 11.3347V10.3638H10.9092V16.3638H13.091V13.0911C13.091 13.0911 13.091 12.0001 14.0183 12.0001C14.5637 12.0001 14.7273 12.4856 14.7273 13.0911V16.3638H16.9091V13.0911C16.9091 11.3838 16.1673 10.3638 14.9237 10.3638Z" fill="currentColor"/>
</svg>
