<svg width="17" height="16" viewBox="0 0 17 16" fill="none" xmlns="http://www.w3.org/2000/svg">
<path d="M13.25 7.31818C13.25 11.4545 8.25 15 8.25 15C8.25 15 3.25 11.4545 3.25 7.31818C3.25 5.90771 3.77678 4.55501 4.71447 3.55766C5.65215 2.56031 6.92392 2 8.25 2C9.57608 2 10.8479 2.56031 11.7855 3.55766C12.7232 4.55501 13.25 5.90771 13.25 7.31818Z" stroke="currentColor" stroke-linecap="round" stroke-linejoin="round"/>
<path d="M8.25 8C8.80228 8 9.25 7.55228 9.25 7C9.25 6.44772 8.80228 6 8.25 6C7.69772 6 7.25 6.44772 7.25 7C7.25 7.55228 7.69772 8 8.25 8Z" fill="currentColor"/>
</svg>
