<svg width="16" height="16" viewBox="0 0 16 16" fill="none" xmlns="http://www.w3.org/2000/svg">
<path d="M9.35703 3.14657L9.31353 3.10757C9.21735 3.03164 9.09663 2.99367 8.9743 3.00086C8.85197 3.00805 8.73654 3.0599 8.64992 3.14657L8.61091 3.19007C8.53502 3.28615 8.49706 3.40676 8.50425 3.52899C8.51144 3.65122 8.56328 3.76655 8.64992 3.85308L9.29952 4.50159H6.50007L6.38005 4.50359C5.47343 4.53444 4.61423 4.91613 3.98364 5.56817C3.35306 6.22021 3.00039 7.09162 3.00001 7.99863C2.99856 8.69334 3.2057 9.37248 3.5946 9.94816C3.67173 10.056 3.78853 10.1287 3.91931 10.1504C4.05009 10.1722 4.18414 10.141 4.29197 10.0639C4.39979 9.9868 4.47257 9.87002 4.49428 9.73926C4.51599 9.60849 4.48486 9.47447 4.40773 9.36665L4.34022 9.25765C4.11888 8.87788 4.00165 8.44644 4.00037 8.00689C3.99909 7.56734 4.11381 7.13523 4.33295 6.75418C4.55209 6.37313 4.86789 6.05662 5.24847 5.83661C5.62906 5.6166 6.06095 5.50087 6.50057 5.5011H9.29852L8.64992 6.14961L8.61091 6.19311C8.52971 6.29295 8.49018 6.42028 8.50056 6.54855C8.51094 6.67682 8.57044 6.79613 8.66664 6.88162C8.76285 6.96711 8.88834 7.01217 9.01696 7.00742C9.14558 7.00267 9.2674 6.94847 9.35703 6.85612L10.8603 5.3546L10.8988 5.3111C10.9747 5.21501 11.0126 5.0944 11.0055 4.97217C10.9983 4.84994 10.9464 4.73461 10.8598 4.64809L9.35703 3.14657ZM12.395 6.03211C12.331 5.94993 12.2428 5.88984 12.143 5.86023C12.0431 5.83062 11.9364 5.83298 11.8379 5.86698C11.7394 5.90098 11.654 5.96492 11.5937 6.04984C11.5333 6.13477 11.5011 6.23643 11.5014 6.34061C11.5014 6.44511 11.5334 6.54161 11.5874 6.62111C11.836 6.99772 11.978 7.43462 11.9983 7.88543C12.0186 8.33624 11.9164 8.78412 11.7025 9.18151C11.4887 9.5789 11.1712 9.91097 10.7837 10.1424C10.3963 10.3739 9.95339 10.4961 9.50206 10.4962H6.70761L7.35471 9.85116L7.39622 9.80316C7.46432 9.71497 7.50102 9.60656 7.50047 9.49514C7.49993 9.38372 7.46218 9.27567 7.39322 9.18815L7.35471 9.14415L7.3072 9.10215C7.21888 9.03389 7.11027 8.99711 6.99864 8.99765C6.88701 8.9982 6.77876 9.03603 6.6911 9.10515L6.6471 9.14415L5.14435 10.6457L5.10285 10.6932C5.03462 10.7814 4.99785 10.8899 4.9984 11.0014C4.99894 11.113 5.03676 11.2211 5.10585 11.3087L5.14435 11.3522L6.6471 12.8537L6.6946 12.8957C6.79115 12.9703 6.91163 13.007 7.03336 12.9989C7.15509 12.9908 7.26968 12.9386 7.35554 12.8519C7.44141 12.7653 7.49263 12.6502 7.49957 12.5284C7.50651 12.4067 7.46868 12.2865 7.39322 12.1907L7.35471 12.1472L6.70261 11.4957H9.50106L9.62108 11.4942C10.2465 11.4727 10.8548 11.2839 11.3825 10.9474C11.9101 10.6109 12.3379 10.1391 12.6211 9.58111C12.9044 9.02312 13.0328 8.39939 12.9929 7.77491C12.953 7.15043 12.7464 6.54807 12.3945 6.03061L12.395 6.03211Z" fill="currentColor"/>
</svg>
