<svg width="24" height="24" viewBox="0 0 24 24" fill="none" xmlns="http://www.w3.org/2000/svg">
<path fill-rule="evenodd" clip-rule="evenodd" d="M13.434 2.65275C12.554 2.11575 11.446 2.11575 10.566 2.65275C9.98199 3.00975 9.29699 3.42875 8.91199 3.66375C8.78699 3.74075 8.649 3.79475 8.505 3.82375C7.883 3.94775 6.543 4.21575 5.461 4.43175C4.175 4.68975 3.25 5.81775 3.25 7.12875V10.8177C3.25 15.9647 6.753 20.4507 11.746 21.6987H11.747C11.913 21.7407 12.087 21.7407 12.253 21.6987H12.254C17.247 20.4507 20.75 15.9647 20.75 10.8177C20.75 9.41675 20.75 8.10175 20.75 7.12875C20.75 5.81775 19.825 4.68975 18.539 4.43175C17.457 4.21575 16.117 3.94775 15.495 3.82375C15.351 3.79475 15.213 3.74075 15.088 3.66375C14.703 3.42875 14.018 3.00975 13.434 2.65275ZM12 20.2147C16.267 19.0957 19.25 15.2377 19.25 10.8177C19.25 9.41675 19.25 8.10175 19.25 7.12875C19.25 6.53275 18.829 6.01975 18.245 5.90275C17.163 5.68675 15.823 5.41875 15.201 5.29375C14.884 5.23075 14.582 5.11275 14.306 4.94375C13.921 4.70875 13.235 4.28975 12.652 3.93275C12.252 3.68875 11.748 3.68875 11.348 3.93275C10.765 4.28975 10.079 4.70875 9.69399 4.94375C9.41799 5.11275 9.11599 5.23075 8.799 5.29375C8.177 5.41875 6.837 5.68675 5.755 5.90275C5.171 6.01975 4.75 6.53275 4.75 7.12875V10.8177C4.75 15.2377 7.733 19.0957 12 20.2147Z" fill="currentColor"/>
<path fill-rule="evenodd" clip-rule="evenodd" d="M11.0002 12.9388L14.4702 9.46975C14.7622 9.17675 15.2382 9.17675 15.5302 9.46975C15.8232 9.76175 15.8232 10.2378 15.5302 10.5298L11.5302 14.5298C11.2372 14.8228 10.7632 14.8228 10.4702 14.5298L8.97024 13.0298C8.67724 12.7378 8.67724 12.2618 8.97024 11.9698C9.26224 11.6768 9.73824 11.6768 10.0302 11.9698L11.0002 12.9388Z" fill="currentColor"/>
</svg>
