<svg width="16" height="16" viewBox="0 0 16 16" fill="none" xmlns="http://www.w3.org/2000/svg">
<path d="M7.53708 3.3165C7.69707 2.8945 8.30255 2.8945 8.46304 3.3165L9.49799 6.18345C9.5341 6.27684 9.59768 6.35709 9.68034 6.4136C9.763 6.4701 9.86085 6.50021 9.96097 6.49995H12.5044C12.9743 6.49995 13.1793 7.08494 12.8098 7.37143L10.9999 8.99991C10.9189 9.06224 10.8596 9.14864 10.8307 9.24673C10.8018 9.34482 10.8046 9.44956 10.8389 9.5459L11.4999 12.3474C11.6609 12.7974 11.1399 13.1838 10.7459 12.9068L8.28755 11.3469C8.20336 11.2877 8.10296 11.256 8.00006 11.256C7.89716 11.256 7.79676 11.2877 7.71257 11.3469L5.25418 12.9068C4.8607 13.1838 4.33922 12.7969 4.50022 12.3474L5.16119 9.5459C5.19547 9.44956 5.19836 9.34482 5.16944 9.24673C5.14052 9.14864 5.08127 9.06224 5.00019 8.99991L3.19027 7.37143C2.82029 7.08494 3.02628 6.49995 3.49526 6.49995H6.03865C6.13879 6.50028 6.23667 6.4702 6.31934 6.41368C6.40202 6.35717 6.46558 6.27688 6.50163 6.18345L7.53708 3.3165Z" fill="currentColor" stroke="currentColor" stroke-linecap="round" stroke-linejoin="round"/>
</svg>
