<svg width="17" height="16" viewBox="0 0 17 16" fill="none" xmlns="http://www.w3.org/2000/svg">
<g clip-path="url(#clip0_13473_342)">
<path d="M5.8335 13.0001V11.3334C5.8335 11.0467 4.06683 10.23 3.8335 9.86338C3.69016 9.63672 1.8335 6.33338 1.8335 6.33338C1.8335 5.80672 2.56016 5.52005 3.16683 6.00005C3.75555 6.52142 4.31213 7.078 4.8335 7.66672L5.16683 6.33338L4.11016 2.00005C4.09194 1.9128 4.10674 1.82189 4.15169 1.74492C4.19664 1.66795 4.26855 1.61039 4.3535 1.58338L4.71016 1.46338C4.80037 1.4335 4.89869 1.44014 4.98406 1.48189C5.06943 1.52364 5.13504 1.59717 5.16683 1.68672L6.8335 5.71338L7.16683 0.643382C7.17274 0.559081 7.21046 0.480179 7.27234 0.422628C7.33422 0.365077 7.41566 0.333177 7.50016 0.333384H7.8335C7.87973 0.329206 7.92632 0.334729 7.97029 0.349599C8.01426 0.36447 8.05464 0.388359 8.08884 0.419739C8.12305 0.451118 8.15032 0.489295 8.16891 0.531825C8.18751 0.574355 8.19702 0.620301 8.19683 0.666718L8.8335 5.69005L9.50016 1.24672C9.52683 1.07005 9.68016 1.00005 9.86016 1.00005H10.1668C10.3768 1.00005 10.5435 1.10672 10.5302 1.31672L10.5002 6.03672L11.8335 2.81005C11.8935 2.68005 12.1668 2.58672 12.1668 2.58672C12.5002 2.58672 12.8702 3.12005 12.8335 3.34338L11.8335 7.01005V9.67672C11.8335 10.9834 10.8335 11.2267 10.8335 11.6767V13.01" stroke="currentColor" stroke-linejoin="round"/>
<path d="M8.06651 9.6665C7.97675 9.17418 7.74502 8.71884 7.39984 8.35651C6.73317 7.72651 5.68651 7.6665 4.83984 7.6665" stroke="currentColor" stroke-linejoin="round"/>
<path d="M6.50016 15.6666C3.23683 15.4199 0.833496 14.5799 0.833496 13.5833C0.833496 12.7666 2.45016 12.0566 4.8335 11.6899" stroke="currentColor" stroke-linejoin="round"/>
<path d="M12.1665 11.6665C14.5498 12.0332 16.1665 12.7432 16.1665 13.5598C16.1665 14.5898 13.5998 15.4532 10.1665 15.6665" stroke="currentColor" stroke-linejoin="round"/>
<path d="M12.8335 13.3335C12.8335 13.8868 10.8335 14.3335 8.3335 14.3335C5.8335 14.3335 3.8335 13.8868 3.8335 13.3335" stroke="currentColor" stroke-linejoin="round"/>
</g>
<defs>
<clipPath id="clip0_13473_342">
<rect width="16" height="16" fill="white" transform="translate(0.5)"/>
</clipPath>
</defs>
</svg>
