<svg width="16" height="17" viewBox="0 0 16 17" fill="none" xmlns="http://www.w3.org/2000/svg">
<path d="M10.6673 10.6686L8.00065 8.00195L5.33398 10.6686" stroke="currentColor" stroke-linecap="round" stroke-linejoin="round"/>
<path d="M8 8.00195V14.002" stroke="currentColor" stroke-linecap="round" stroke-linejoin="round"/>
<path d="M13.5943 12.2618C14.2445 11.9073 14.7582 11.3464 15.0542 10.6675C15.3502 9.98869 15.4118 9.2306 15.2291 8.51291C15.0464 7.79521 14.6299 7.15879 14.0454 6.70408C13.4609 6.24937 12.7415 6.00227 12.001 6.00178H11.161C10.9592 5.22127 10.5831 4.49667 10.0609 3.88244C9.53877 3.26821 8.88418 2.78035 8.14635 2.45552C7.40852 2.13069 6.60665 1.97735 5.80103 2.00703C4.99541 2.03672 4.20699 2.24865 3.49507 2.62689C2.78314 3.00513 2.16622 3.53985 1.6907 4.19083C1.21517 4.84182 0.89341 5.59214 0.749603 6.38538C0.605797 7.17861 0.643687 7.99413 0.860426 8.77062C1.07716 9.54711 1.46711 10.2644 2.00095 10.8684" stroke="currentColor" stroke-linecap="round" stroke-linejoin="round"/>
<path d="M10.6673 10.6686L8.00065 8.00195L5.33398 10.6686" stroke="currentColor" stroke-linecap="round" stroke-linejoin="round"/>
</svg>
