<?xml version="1.0" standalone="no"?>
<!DOCTYPE svg PUBLIC "-//W3C//DTD SVG 20010904//EN"
 "http://www.w3.org/TR/2001/REC-SVG-20010904/DTD/svg10.dtd">
<svg version="1.0" xmlns="http://www.w3.org/2000/svg"
 width="700.000000pt" height="700.000000pt" viewBox="0 0 700.000000 700.000000"
 preserveAspectRatio="xMidYMid meet">
<metadata>
Created by potrace 1.14, written by Peter Selinger 2001-2017
</metadata>
<g transform="translate(0.000000,700.000000) scale(0.100000,-0.100000)"
fill="#000000" stroke="none">
<path d="M898 6984 c-416 -75 -751 -386 -866 -802 l-27 -97 0 -2585 0 -2585
27 -97 c116 -420 453 -729 877 -803 126 -22 5056 -22 5183 0 458 80 813 435
893 893 22 127 22 5057 0 5184 -74 423 -382 760 -803 876 l-97 27 -2555 2
c-2145 1 -2567 -1 -2632 -13z m2877 -829 c353 -58 657 -216 910 -471 156 -157
264 -328 329 -524 53 -159 67 -258 65 -450 -1 -91 -2 -181 -2 -200 -1 -66 14
-92 112 -195 240 -252 343 -512 328 -824 -22 -448 -319 -836 -757 -989 -188
-66 -412 -92 -792 -92 l-267 0 -3 -743 -3 -742 -23 -36 c-23 -37 -80 -69 -124
-69 -12 0 -41 9 -64 20 -77 38 -74 3 -74 834 l0 734 -442 5 c-406 4 -451 6
-540 26 -253 56 -450 162 -624 335 -153 152 -248 322 -296 528 -32 134 -32
387 -1 505 53 200 142 345 310 511 l115 114 -10 141 c-22 296 26 540 154 788
72 138 159 253 282 370 251 241 603 400 972 439 111 11 331 4 445 -15z"/>
<path d="M3309 5875 c-286 -41 -556 -169 -754 -356 -197 -188 -313 -417 -345
-684 -14 -115 -8 -227 21 -368 29 -147 17 -176 -110 -271 -182 -135 -295 -295
-337 -475 -23 -95 -14 -301 16 -396 87 -275 303 -490 573 -574 98 -30 225 -39
655 -47 l382 -7 0 267 c0 202 -3 275 -14 299 -11 28 -367 382 -489 487 -78 67
-109 158 -77 225 32 64 124 94 188 61 15 -8 108 -91 207 -184 l180 -170 5 662
c4 501 8 666 17 683 54 93 202 91 249 -3 17 -35 19 -69 24 -355 l5 -317 175
165 c96 91 188 172 204 180 40 21 104 19 135 -5 68 -50 87 -121 52 -190 -16
-31 -210 -222 -517 -508 l-54 -50 0 -622 0 -622 273 0 c446 1 576 17 744 95
155 71 335 228 411 357 118 200 133 486 37 703 -53 122 -157 243 -297 349 -80
60 -91 74 -107 133 -9 31 -6 59 11 143 32 158 30 370 -6 504 -112 425 -516
781 -995 877 -128 26 -339 32 -462 14z"/>
</g>
</svg>
