<svg width="32" height="32" viewBox="0 0 32 32" fill="none" xmlns="http://www.w3.org/2000/svg">
<path d="M15.6305 15.104C15.6305 15.104 15.9471 16.5931 15.459 17.4265C14.9708 18.2599 14.5092 19.4346 14.8654 20.3361C15.2216 21.2376 15.3827 22.5773 15.053 23.3286C14.7233 24.0799 14.9312 25.4316 14.8654 26.1013C14.7997 26.7709 13.586 27.2486 13.2298 28.1094C12.8736 28.9703 12.9921 29.3388 11.5942 29.2842C10.1963 29.2296 9.44433 28.9289 8.52076 29.489C7.59719 30.0491 7.18865 30.4864 6.95095 30.5C6.95095 30.5 7.99337 30.3223 8.77155 29.8977C9.54974 29.4731 11.2119 30.3494 11.9504 30.2531C12.689 30.1567 13.9819 30.2802 14.2723 28.8867C14.5627 27.4932 14.6812 27.5343 15.3143 27.0698C15.9475 26.6053 15.3801 26.0455 16.1717 25.1301C16.9634 24.2147 15.7897 21.7951 15.7101 21.1003C15.4593 18.9144 15.8025 18.8459 16.2375 17.5345C16.6726 16.2231 16.7388 13.7233 15.0635 13.2058C13.3883 12.6882 12.4651 13.3149 11.8319 12.3995L11.4757 12.0581C11.4757 12.0581 11.4757 9.98181 10.4733 9.6946C9.47086 9.4074 7.0429 9.96863 6.77939 8.20515C6.77939 8.20515 6.67362 7.71355 7.3991 7.34467C8.12458 6.97578 6.92005 5.52698 6.72632 5C6.72632 5 6.92078 5.53338 7.11342 6.17478C7.42563 7.21518 6.96803 6.85232 6.33959 7.66838C5.74642 8.43739 7.07816 10.2092 8.30959 10.2912C9.54101 10.3733 10.4199 9.93626 10.5267 10.4279C10.6336 10.9194 10.6936 11.894 10.3156 11.9124C9.93756 11.9309 8.75883 11.4844 7.07053 12.7959C7.07053 12.7959 6.06808 12.5952 5.77767 12.1857C5.48726 11.7762 4.71162 11.5895 3.61432 12.1311C2.2953 12.7819 2.48357 11.0395 1.71484 10.1821C1.00935 9.39423 0 9.48984 0 9.48984C0 9.48984 1.02898 9.89072 1.38118 10.3932C1.73337 10.8957 1.97908 12.5519 2.66494 12.6336C3.3508 12.7153 4.86355 12.0509 5.23284 12.3878C5.60212 12.7247 6.5962 13.0801 6.47299 13.3168C6.34977 13.5536 5.13615 15.0107 4.71417 15.5753C4.29218 16.1399 3.93998 15.7014 3.57979 15.867C3.20433 16.039 3.38388 16.4926 2.78816 16.9962C2.8972 16.9771 3.0009 16.9336 3.092 16.8686C3.18309 16.8037 3.25939 16.7189 3.31555 16.6202C3.50891 16.2814 3.43658 16.074 3.86075 16.1471C4.28491 16.2201 4.82793 16.0831 5.09181 15.7281C5.35569 15.3731 5.48763 15.6826 5.65482 15.9829C5.82202 16.2833 6.34941 16.7117 5.95359 17.012C5.55778 17.3124 5.23247 17.9591 5.30299 18.0957C5.30299 18.0957 5.6988 17.4935 6.04155 17.3399C6.3843 17.1863 6.59584 16.9484 6.45481 16.3744C6.31379 15.8004 5.67227 15.5365 5.81293 15.2271C5.95359 14.9177 7.93158 12.0487 9.61989 12.4947C11.3082 12.9408 11.6953 13.4237 12.3372 13.5604C12.7613 13.6471 13.1899 13.7079 13.6209 13.7425C13.6209 13.7425 12.4778 13.8882 12.6098 15.2997C12.7417 16.7113 11.4667 16.6752 11.2286 17.1396C10.9905 17.6041 11.1057 18.3144 11.1057 18.3144C11.1057 18.3144 11.1497 17.504 11.3965 17.3309C11.6433 17.1577 12.8384 16.93 12.9351 16.33C13.0318 15.73 12.8649 14.1092 14.1047 14.2262C15.3445 14.3433 15.6305 15.104 15.6305 15.104Z" fill="currentColor"/>
<path d="M16.6791 15C16.6791 15 16.764 17.4203 16.4978 17.8619C15.8207 18.9815 15.4235 20.2432 16.0112 21.3616C16.5989 22.4801 17.3307 23.9541 16.9331 24.4925C16.5354 25.0308 15.8584 25.9661 15.744 26.8738C15.6297 27.7814 14.2949 27.724 14.0882 28.6875C13.8815 29.6509 13.6909 29.7997 13.5 30.076C13.5 30.076 14.7376 29.1477 15.2246 29.5295C15.7116 29.9113 16.0909 29.7774 16.2021 30.5C16.2021 30.5 16.3931 29.5084 16.0751 28.9982C15.7572 28.488 15.6617 28.2756 16.0112 27.6381C16.3607 27.0006 16.1702 26.0231 16.6629 25.5129C17.1556 25.0027 17.9662 23.4021 17.156 21.7586C16.3458 20.1151 16.6629 18.9393 17.092 18.0891C17.5212 17.2388 17.1845 15.7238 16.6791 15Z" fill="currentColor"/>
<path d="M17.1413 25.5C17.1413 25.5 16.8618 26.2327 16.7936 26.7416C16.7255 27.2505 16.4527 27.4918 16.5071 28.0959C16.5615 28.6999 16.7663 28.9583 16.7525 29.1294L16.739 29.3019C16.739 29.3019 17.5092 29.1119 18 29.5C18 29.5 17.6456 28.8621 17.6729 28.5428C17.7002 28.2235 17.7614 26.3275 17.1413 25.5Z" fill="currentColor"/>
<path d="M28.8143 29.5438C27.8821 29.6641 26.8312 29.117 25.8856 28.4096C24.94 27.7022 22.2871 27.9562 21.5912 27.8761C20.8953 27.7959 20.2523 26.9018 20.0018 25.63C19.7782 24.4902 19.5441 23.435 19.3559 22.7C19.3184 22.5535 19.2633 22.4123 19.192 22.2794C18.6129 21.1992 18.5576 20.1101 18.5876 19.4825C18.5685 19.4041 18.5583 19.3236 18.5572 19.2428C18.5308 18.8156 18.833 17 18.833 17C17.8874 18.3479 17.9793 20.6297 18.0274 21.0701C18.0756 21.5106 18.6227 23.5118 18.5554 24.5262C18.4881 25.5406 19.818 26.9161 19.805 27.4753C19.7919 28.0345 21.8405 28.7162 22.3526 28.7695C22.8646 28.8228 24.6248 28.4493 25.4785 28.9431C26.3321 29.4368 27.1598 29.7972 27.8821 29.9707C28.6044 30.1442 29.9571 29.4902 29.9965 29.4902C30.036 29.4902 29.7468 29.4225 28.8143 29.5438Z" fill="currentColor"/>
<path d="M30.5863 12.0498C30.1322 12.6709 29.4833 12.6275 29.3664 12.6135C29.2495 12.5995 28.9123 12.1907 28.627 11.726C28.3417 11.2613 28.5619 10.7818 28.5619 10.7818C28.2376 11.2749 28.3285 11.9077 28.588 12.1344C28.8476 12.3611 29.2112 12.8103 29.055 12.9939C28.8987 13.1776 27.8222 13.346 27.524 13.8251C27.2258 14.3042 26.8089 14.4171 26.8089 14.4171C25.2258 14.8395 25.2 14.9805 24.1632 16.2344C23.1263 17.4884 22.26 17.9076 20.6511 17.9065C19.8645 17.9065 19 18.5342 19 19.5556C19 20.9362 19.2038 21.6132 19.3429 21.9669C19.3472 21.9781 19.355 21.9875 19.3648 21.9933C19.3747 21.9992 19.3861 22.0013 19.3972 21.9992C19.4082 21.9971 19.4183 21.9911 19.4258 21.9819C19.4333 21.9728 19.4377 21.9612 19.4383 21.949C19.4802 21.0437 19.8445 19.7556 20.1491 19.3906C20.9972 18.3762 21.9314 18.5548 22.3984 18.1872C22.8653 17.8195 24.5221 17.5909 24.9762 16.3086C25.4303 15.0263 26.6674 15.1765 26.6674 15.1765C27.3163 15.0779 27.2644 16.2193 27.5498 16.5011C27.8351 16.783 28.484 16.4448 29.055 16.3602C29.626 16.2756 29.7818 16.4305 29.7818 16.4305C29.4054 15.6416 28.459 16.1199 27.8612 16.0644C27.2634 16.0089 27.6406 14.8527 27.8483 14.3737C28.056 13.8946 29.094 13.3309 29.4443 13.2323C29.7947 13.1337 30.6381 12.4714 30.8845 12.1065C31.1308 11.7415 32 10.5 32 10.5C31.4816 10.6553 31.0404 11.4302 30.5863 12.0498Z" fill="currentColor"/>
<path d="M21.9173 28.6598C21.1429 28.4146 19.8685 28.4183 19.5945 27.4787C19.2052 26.1428 18.073 24.7345 18.2632 23.7122C18.4533 22.6899 17.7605 22.0222 17.7605 21.5587C17.7605 21.0953 17.3533 19.0962 17.9372 17.7922C18.521 16.4883 18.4125 15.4935 18.073 14.7709C17.9954 14.6046 17.9264 14.4344 17.8664 14.2609C17.7328 14.0558 16.9218 10.7306 16.8222 10.3397C16.7226 9.9487 16.5527 9.50254 16.5527 9.50254C16.4487 9.2772 16.2877 9.04699 16.1167 8.62411C15.9131 8.11973 15.5598 6.37526 16.1302 5.91182C16.7006 5.44838 17.3256 4.97292 17.5839 4.91697C17.8421 4.86101 18.3234 4.68036 18.3807 5.28464C18.4574 6.09547 19.6757 6.17058 19.6757 6.17058C19.6757 6.17058 18.7104 5.8461 18.6431 5.32557C18.6169 5.12277 18.6977 4.43963 17.4207 4.58948C17.4207 4.58948 17.1763 4.54892 17.3121 4.26237C17.448 3.97582 17.6381 3.00875 17.4888 2.64071C17.4888 2.64071 17.244 3.93526 17.1628 4.07158C17.0816 4.20791 16.8911 4.3987 16.6601 4.75322C16.4292 5.10775 16.1118 5.19526 15.7544 5.4619C15.5777 5.59372 15.3015 5.84347 15.3153 6.49769C15.3292 7.15192 15.3561 8.10621 15.3561 8.10621C15.3561 8.10621 14.2284 8.22902 14.0656 7.38364C13.9028 6.53825 13.219 4.90495 13.1782 4.42611C13.1374 3.94727 13.0603 3.55369 13.4402 3.19953C13.8201 2.84538 13.6577 2.04094 13.6577 2.04094C13.6577 2.04094 13.4949 2.87243 13.1281 3.06321C12.7613 3.25399 12.7238 3.39483 12.7238 3.39483C12.7238 3.39483 12.4993 2.74511 10.8233 2.60878C10.1368 2.55282 9.96541 2.31397 9.63679 2C9.63679 2 9.6323 2.6407 10.2753 2.78867C10.9977 2.95692 11.997 3.03842 12.3537 3.53979C12.6744 3.98821 13.1281 5.58433 12.9922 6.06129C12.9922 6.06129 12.2062 6.19762 12.0142 6.63364C11.8222 7.06967 11.3544 6.81091 11.263 6.40193C11.263 6.40193 11.3338 5.24821 9.16932 5.0563C8.97245 5.03865 8.79504 4.99809 8.55026 4.56206C8.55026 4.56206 8.21341 5.21253 9.28385 5.46153C10.6896 5.78864 10.5343 6.14316 10.7649 6.76997C10.9954 7.39678 12.0277 7.67131 12.3945 7.04263C12.7613 6.41394 13.2093 6.52473 13.2231 6.71552C13.237 6.9063 13.4949 8.36497 14.2146 8.70598C14.9343 9.04699 15.5051 9.38724 15.9396 10.3825C16.3742 11.3777 16.3615 13.2172 16.5924 13.897C16.8233 14.5767 17.5026 16.4323 17.5026 17.182C17.5026 17.9316 16.6197 19.6761 16.8914 20.6983C17.1632 21.7206 17.5569 22.4022 17.5569 23.3836C17.5569 24.3649 17.1766 25.2918 17.4484 25.6598C17.7201 26.0279 18.1049 26.7046 18.0277 27.4772C17.9506 28.2497 17.5038 29.4624 19.2277 29.8034C20.9516 30.1444 20.681 29.1901 22.2567 29.6806C23.8324 30.171 26.6713 31.2481 27.5 30.9481C27.5 30.9481 25.3812 30.5665 24.8104 29.9806C24.2397 29.3948 22.6916 28.905 21.9173 28.6598Z" fill="currentColor"/>
<path d="M18.2154 10.0965C17.9946 10.0533 17.7766 9.99449 17.563 9.9204C17.5547 9.91739 17.5459 9.91688 17.5374 9.91893C17.5289 9.92097 17.5211 9.92549 17.5148 9.93199C17.5085 9.93849 17.5039 9.94673 17.5017 9.95582C17.4994 9.9649 17.4994 9.97449 17.5018 9.98354C17.5877 10.3041 17.597 10.6521 17.7573 11.2315C17.8639 11.6263 17.9486 12.0277 18.0107 12.4335C18.013 12.4503 18.0203 12.4659 18.0315 12.4778C18.0427 12.4897 18.0573 12.4973 18.0729 12.4994C18.0885 12.5015 18.1043 12.498 18.1179 12.4895C18.1315 12.4809 18.1421 12.4678 18.1481 12.452C18.1931 12.3486 18.2582 12.2568 18.3389 12.183C18.4196 12.1092 18.514 12.055 18.6158 12.0241C19.5773 11.7006 22.0679 10.2042 22.23 8.66758C22.3268 7.75942 22.3679 6.84532 22.3529 5.93129C22.3529 5.93129 23.8607 6.91705 24.8703 6.9542C25.8799 6.99134 26.8276 5.98366 27.5 5.98366C27.5 5.98366 27.0265 5.75449 26.4406 6.078C25.8548 6.40151 24.8452 6.72503 24.3343 6.40151C23.8233 6.078 22.8141 5.53869 22.889 5.30952C22.9638 5.08035 23.8237 4.4181 23.7735 3.73245C23.7234 3.0468 23.5744 2.10152 24.5091 2.14201C25.4438 2.1825 26.0293 2.55986 26.2538 1.83187C26.4784 1.10388 26.2288 1.30593 26.6776 1.11725C26.9425 1.00726 27.1572 0.789586 27.2758 0.51071C27.2758 0.51071 26.0667 0.739879 26.0293 1.25356C25.9918 1.76724 25.805 1.8601 25.5557 1.80624C25.3064 1.75239 24.11 1.42887 23.836 1.84673C23.836 1.84673 23.2004 1.69816 23.1008 1.22682C23.0012 0.755479 23.2382 0.903307 23.3999 0.70088C23.5617 0.498454 23.4621 0 23.4621 0C23.4621 0 23.2128 0.660395 23.0009 0.647023C22.789 0.633652 22.2283 1.06488 22.7516 1.46936C23.2749 1.87384 23.2502 2.00867 23.2251 2.29169C23.2001 2.57472 23.4123 3.2756 23.188 3.59911C22.9638 3.92262 22.6894 3.94974 22.5397 4.44856C22.39 4.94738 22.265 4.96856 22.1036 5.05955C21.9422 5.15055 21.7297 5.51344 21.6424 6.43011C21.5552 7.34679 21.5429 8.02056 21.2438 8.50601C20.9447 8.99146 20.6703 9.51703 20.0598 9.7462C19.4492 9.97537 18.7264 10.2042 18.2154 10.0965Z" fill="currentColor"/>
<path d="M28.9219 23.4404C28.377 23.3845 27.8703 23.3359 27.8073 23.1759C27.7442 23.016 28.3233 22.7372 28.4411 22.6351C28.559 22.5329 28.7921 22.4544 29.0087 22.3798C29.2253 22.3052 29.6145 22.1317 29.6145 22.1317C29.6145 22.1317 28.8829 22.2469 28.5982 22.4049C28.3136 22.5629 27.5507 23.0431 27.2264 22.9912C26.902 22.9394 26.4224 22.923 26.1755 22.5633C26.0801 22.424 25.8728 22.1317 25.6174 21.8054C25.8552 21.8122 26.795 21.8401 26.9662 21.8389C27.1626 21.8389 27.6264 21.5325 27.6264 21.5325C27.4085 21.6265 27.1842 21.7014 26.9557 21.7563C26.5777 21.8469 25.3777 21.5066 25.3651 21.4915C25.0101 21.0643 24.6083 20.6407 24.2876 20.4624C23.7085 20.1409 22.7925 19.9095 21.7889 19.8916C21.7889 19.8916 21.2307 19.6215 21.0963 19.103C21.0918 19.0847 21.084 19.0677 21.0734 19.0529C21.0628 19.038 21.0496 19.0258 21.0345 19.0168C21.0195 19.0078 21.003 19.0023 20.986 19.0006C20.9689 18.9989 20.9518 19.001 20.9356 19.0068C20.7132 19.0898 20.4876 19.1983 20.3374 19.3966C20.0808 19.7348 20.013 20.5473 20.0001 21.0802C19.9996 21.0916 20.0022 21.103 20.0078 21.1126C20.0133 21.1223 20.0214 21.1298 20.031 21.1342C20.0405 21.1386 20.0511 21.1396 20.0611 21.137C20.0712 21.1345 20.0803 21.1286 20.0873 21.1201C20.2797 20.8828 20.5727 20.6195 20.9633 20.5421C21.0094 20.535 21.0566 20.5286 21.1049 20.5222C21.1601 20.5182 21.2109 20.5118 21.2577 20.5038C22.2166 20.3969 23.528 20.4241 24.3384 21.1532H24.341C24.5253 21.3184 24.6773 21.5233 24.7878 21.7555C24.9406 22.079 25.0725 22.499 24.8999 22.7376C24.6624 23.0662 24.008 23.6789 24.2375 24.2533C24.2375 24.2533 24.2685 23.7898 24.4775 23.5241C24.6519 23.3032 24.7017 23.211 24.7795 23.1129C24.7395 23.6023 24.8246 24.28 24.955 24.4962C25.0765 24.6913 25.2274 24.8617 25.4011 25C25.4011 25 25.1168 24.6829 25.0555 24.4312C24.9943 24.1795 24.9395 24.0164 24.95 23.7603C24.95 23.7603 25.1215 23.8229 25.2678 24.1464C25.2721 24.1552 25.4703 24.3618 25.4703 24.3618C25.4399 24.2584 25.3947 24.1612 25.3363 24.0738C25.2447 23.9434 25.1864 23.8345 25.0981 23.6829C25.0098 23.5313 24.9017 23.6255 24.9601 23.2114C25.0184 22.7974 25.0865 22.5517 25.0891 22.2677C25.0891 22.1081 25.1536 22.0419 25.2083 22.0156C25.9554 22.8169 26.3946 23.3742 27.4746 23.5513C28.9096 23.7866 30.3936 23.4799 30.4937 23.4456C30.5939 23.4113 29.4667 23.4958 28.9219 23.4404Z" fill="currentColor"/>
</svg>
