<svg xmlns="http://www.w3.org/2000/svg" xmlns:xlink="http://www.w3.org/1999/xlink"><defs><style>
    .sprite-symbol-usage {display: none;}
    .sprite-symbol-usage:target {display: inline;}
  </style><symbol fill="none" viewBox="0 0 14 10" id="arrows"><path d="M14 5a.5.5 0 0 1-.215.41l-5.5 3.81A.5.5 0 0 1 8 9.31c-.08 0-.16-.02-.23-.06a.5.5 0 0 1-.27-.44V1.19a.5.5 0 0 1 .27-.44.5.5 0 0 1 .5.03l5.5 3.81A.5.5 0 0 1 14 5Zm-7.715-.41L.785.78a.5.5 0 0 0-.5-.03.5.5 0 0 0-.285.44v7.62a.5.5 0 0 0 .27.44c.07.04.15.06.23.06a.5.5 0 0 0 .285-.09l5.5-3.81a.5.5 0 0 0 0-.82Z" fill="#232323" /></symbol><symbol fill="none" viewBox="0 0 25 24" id="attention"><path d="M7.36 6.593C7.39 4.696 6.348 2.39 6.348 2.39s2.578 2.449 4.42 1.595c1.84-.854 2.266-3.463 2.266-3.463s.618 3.13 2.334 3.534c1.382.326 4.332-1.6 4.332-1.6s-2.445 3.433-1.874 4.849c.57 1.415 5.217.652 5.217.652s-3.762 1.956-3.968 3.522c-.206 1.565 1.439 2.549 1.439 2.549s-1.918.085-2.825 1.377M12.608 23.478a1.565 1.565 0 1 0 0-3.13 1.565 1.565 0 0 0 0 3.13Z" stroke="currentColor" stroke-linejoin="round" /><path d="M11.043 8.87a1.565 1.565 0 0 1 3.13 0l-.412 8.186c0 .605-.516 1.205-1.153 1.205s-1.153-.6-1.153-1.205l-.412-8.186ZM3.738 9.913l1.044 1.043M5.826 12l1.044 1.043M6.87 9.913l-1.044 1.043M4.782 12l-1.044 1.043M7.39 16.174v1.044M7.39 19.304v1.044M6.346 18.26H5.303M9.477 18.26H8.434M18.348 18.782v1.044M18.348 20.87v1.043M17.825 20.348H16.78M19.913 20.348h-1.044" stroke="currentColor" stroke-linejoin="round" /></symbol><symbol fill="none" viewBox="0 0 16 16" id="calendar"><g clip-path="url(#calendar_a)" stroke="currentColor" stroke-width=".9"><path d="M14.057 13.448v.342a.343.343 0 0 1-.343.343H.686a.343.343 0 0 1-.343-.342V2.476a.343.343 0 0 1 .343-.343H2.4M12 2.133h1.714a.343.343 0 0 1 .343.343v2.4" stroke-linecap="round" stroke-linejoin="round" /><path d="M.343 4.876h13.714" stroke-linejoin="round" /><path d="M10.971 1.105v1.714M4.457 2.133h5.486M3.429 1.105v1.714" stroke-linecap="round" stroke-linejoin="round" /><path d="M6.171 6.933H7.2M7.886 6.933h1.028M10.629 6.933H9.6M4.457 8.647h1.029M6.171 8.647H7.2M7.886 8.647h1.028M10.629 8.647H9.6M4.457 10.362h1.029M6.171 10.362H7.2M7.886 10.362h1.028" stroke-miterlimit="10" /><path d="M14.057 4.876c0 2.532.355 5.063 1.324 7.055a.34.34 0 0 1-.309.488H2.334a.675.675 0 0 1-.606-.363C.713 10.045.343 7.46.343 4.876" stroke-linejoin="round" /></g><defs></defs></symbol><clipPath id="calendar_a"><path fill="#fff" d="M0 0h16v16H0z" /></clipPath><symbol fill="none" viewBox="0 0 16 17" id="calendar-xs"><g clip-path="url(#calendar-xs_a)" stroke="currentColor" stroke-width="2" stroke-linecap="round" stroke-linejoin="round"><path d="M12.667 3.575H3.333C2.597 3.575 2 4.172 2 4.908v9.333c0 .737.597 1.334 1.333 1.334h9.334c.736 0 1.333-.597 1.333-1.334V4.908c0-.736-.597-1.333-1.333-1.333ZM10.664 2.242v2.666M5.336 2.242v2.666M2 7.575h12" /></g><defs></defs></symbol><clipPath id="calendar-xs_a"><path fill="#fff" transform="translate(0 .908)" d="M0 0h16v16H0z" /></clipPath><symbol fill="none" viewBox="0 0 16 17" id="check"><path d="M13.333 4.5 6 11.833 2.667 8.5" stroke="currentColor" stroke-width="2" stroke-linecap="round" stroke-linejoin="round" /></symbol><symbol fill="none" viewBox="0 0 16 16" id="check-circle"><path d="M14.667 7.387V8a6.666 6.666 0 1 1-3.953-6.093" stroke="currentColor" stroke-linecap="round" stroke-linejoin="round" /><path d="M14.667 2.667 8 9.34l-2-2" stroke="currentColor" stroke-linecap="round" stroke-linejoin="round" /></symbol><symbol fill="none" viewBox="0 0 24 24" id="chevron-left"><path d="m15.002 17.999-6-6 6-6" stroke="currentColor" stroke-width="1.895" stroke-linecap="round" stroke-linejoin="round" /></symbol><symbol fill="none" viewBox="0 0 24 24" id="chevron-right"><path d="m9.002 17.999 6-6-6-6" stroke="currentColor" stroke-width="1.895" stroke-linecap="round" stroke-linejoin="round" /></symbol><symbol fill="none" viewBox="0 0 16 16" id="clock"><path d="M8 14.667A6.667 6.667 0 1 0 8 1.334a6.667 6.667 0 0 0 0 13.333Z" stroke="currentColor" stroke-width="2" stroke-linecap="round" stroke-linejoin="round" /><path d="M8 4v4l2.667 1.333" stroke="currentColor" stroke-width="2" stroke-linecap="round" stroke-linejoin="round" /></symbol><symbol fill="none" viewBox="0 0 16 16" id="close"><path fill="currentColor" d="m16 14.222-1.778 1.777L0 1.777 1.778 0z" /><path fill="currentColor" d="M1.778 16 0 14.222 14.222 0 16 1.778z" /></symbol><symbol fill="none" viewBox="0 0 16 16" id="copy"><path d="M5.332 2.667v8A1.333 1.333 0 0 0 6.665 12H12a1.333 1.333 0 0 0 1.333-1.333v-5.84a1.333 1.333 0 0 0-.401-.952l-2.21-2.162a1.333 1.333 0 0 0-.932-.38H6.665a1.333 1.333 0 0 0-1.333 1.334v0Z" stroke="currentColor" stroke-linecap="round" stroke-linejoin="round" /><path d="M10.666 12v1.333a1.334 1.334 0 0 1-1.333 1.333H3.999a1.334 1.334 0 0 1-1.333-1.333V6a1.333 1.333 0 0 1 1.333-1.333h1.334" stroke="currentColor" stroke-linecap="round" stroke-linejoin="round" /></symbol><symbol fill="none" viewBox="0 0 16 16" id="crown"><path d="m12.472 9.65-.231 1a.45.45 0 0 1-.439.35h-9a.45.45 0 0 1-.438-.35l-.231-1h10.339ZM13.588 4.802l-.91 3.948H1.922L1.01 4.802a.45.45 0 0 1 .662-.492L4.458 5.9l2.467-3.7a.451.451 0 0 1 .73-.027l2.893 3.72L12.9 4.326a.45.45 0 0 1 .688.476Z" fill="currentColor" /></symbol><symbol fill="none" viewBox="0 0 16 17" id="edit"><path d="M11.333 2.5A1.886 1.886 0 0 1 14 5.167l-9 9-3.667 1 1-3.667 9-9Z" stroke="currentColor" stroke-linecap="round" stroke-linejoin="round" /></symbol><symbol fill="none" viewBox="0 0 16 17" id="eye"><g clip-path="url(#eye_a)" stroke="currentColor" stroke-width="2" stroke-linecap="round" stroke-linejoin="round"><path d="M.667 8.538S3.334 3.205 8 3.205c4.667 0 7.334 5.333 7.334 5.333S12.667 13.872 8 13.872c-4.666 0-7.333-5.334-7.333-5.334Z" /><path d="M8 10.539a2 2 0 1 0 0-4 2 2 0 0 0 0 4Z" /></g><defs></defs></symbol><clipPath id="eye_a"><path fill="#fff" transform="translate(0 .539)" d="M0 0h16v16H0z" /></clipPath><symbol fill="none" viewBox="0 0 24 24" id="facebook"><path d="M10.91 9.273v1.09H9.817V12h1.091v4.909h2.182v-4.91h1.451l.185-1.635h-1.636v-.955c0-.442.044-.676.726-.676h.91V7.09h-1.461c-1.746 0-2.357.818-2.357 2.182Z" fill="currentColor" /><path d="M12 0C5.373 0 0 5.373 0 12s5.373 12 12 12 12-5.373 12-12S18.627 0 12 0Zm0 22.91C5.975 22.91 1.09 18.024 1.09 12S5.976 1.09 12 1.09 22.91 5.976 22.91 12 18.024 22.91 12 22.91Z" fill="currentColor" /></symbol><symbol fill="none" viewBox="0 0 17 16" id="faq"><g clip-path="url(#faq_a)" stroke="currentColor"><path d="M8.322 11.307a1.067 1.067 0 1 0 0-2.134 1.067 1.067 0 0 0 0 2.134ZM7.255 6.684c0-.953 1.455-1.955 2.03-2.531A1.127 1.127 0 0 0 9.13 2.42a1.113 1.113 0 0 0-1.571.333c-.092.146-.15.31-.168.481 0 .416-.035.605-.448.605H5.876c-.413 0-.356-.189-.356-.601a2.994 2.994 0 1 1 5.095 2.236c-.42.402-1.578 1.067-1.578 1.565v.71a.324.324 0 0 1-.313.357H7.657a.395.395 0 0 1-.398-.356l-.004-1.067Z" stroke-miterlimit="10" /><path d="M12.589 5.262h1.066a1.422 1.422 0 0 1 1.423 1.422v4.978a1.422 1.422 0 0 1-1.422 1.422h-5.44l-2.49 2.568a.356.356 0 0 1-.611-.246v-2.322H3.337a1.422 1.422 0 0 1-1.422-1.422V6.684a1.422 1.422 0 0 1 1.422-1.422h1.067" stroke-linejoin="round" /></g><defs></defs></symbol><clipPath id="faq_a"><path fill="#fff" transform="translate(.5)" d="M0 0h16v16H0z" /></clipPath><symbol fill="none" viewBox="0 0 24 24" id="filter"><path d="M19.635 20.385a.75.75 0 0 0 .75-.75v-2.332a2.857 2.857 0 0 0 0-5.52V4.365a.75.75 0 1 0-1.5 0v7.425a2.857 2.857 0 0 0 0 5.52v2.333a.75.75 0 0 0 .75.742Zm-1.373-5.842a1.373 1.373 0 1 1 2.746 0 1.373 1.373 0 0 1-2.745 0ZM12 20.385a.75.75 0 0 0 .75-.75V9.24a2.873 2.873 0 1 0-1.5 0v10.395a.75.75 0 0 0 .75.75ZM10.627 6.487a1.373 1.373 0 1 1 2.747-.014 1.373 1.373 0 0 1-2.747.014ZM3.615 14.76v4.875a.75.75 0 0 0 1.5 0V14.76a2.858 2.858 0 0 0 0-5.52V4.365a.75.75 0 0 0-1.5 0V9.24a2.858 2.858 0 0 0 0 5.52Zm.75-4.132a1.373 1.373 0 1 1 .014 2.746 1.373 1.373 0 0 1-.014-2.746Z" fill="currentColor" /></symbol><symbol fill="none" viewBox="0 0 24 24" id="friends"><path d="M6.25 14.182V13.09L2.979 9.273l-.998-1.67c-.344-.872.109-2.4.998-2.694l1.636 2.727 2.182 2.182c.444.36 1 .553 1.571.546H9.59a2.443 2.443 0 0 0 1.57-.546l2.183-2.182 1.636-2.727c.89.295 1.342 1.822.998 2.695l-.998 1.669-3.273 3.818v5.455" stroke="currentColor" stroke-miterlimit="10" /><path d="M8.978 4.909a1.593 1.593 0 0 1 1.637 1.636v.545a1.637 1.637 0 0 1-3.273 0v-.545a1.593 1.593 0 0 1 1.636-1.636ZM16.07 17.454a1.588 1.588 0 0 1-1.637-1.636v-.545a1.636 1.636 0 1 1 3.273 0v.545a1.586 1.586 0 0 1-1.637 1.636Z" stroke="currentColor" stroke-miterlimit="10" /><path d="M12.84 24v-2.727c0-1.8 1.925-2.182 3.273-2.182h.61a4.863 4.863 0 0 0 1.571-.546l2.182-1.09 1.637-3.819c.889.295 1.341 2.368.998 3.24l-1.042 2.215-3.273 2.727V24M7.342 19.09a1.586 1.586 0 0 0 1.636-1.635v-.546a1.636 1.636 0 0 0-3.273 0v.546a1.587 1.587 0 0 0 1.637 1.636ZM4.069 24v-1.09c0-1.8 1.947-2.183 3.273-2.183 1.325 0 3.272.382 3.272 2.182V24M9 2.727V0M11.204 3.273l1.636-1.637M6.84 3.273 5.204 1.636" stroke="currentColor" stroke-miterlimit="10" /></symbol><symbol fill="none" viewBox="0 0 16 16" id="google"><path d="M16 8.01a6.776 6.776 0 0 0-.165-1.602H8.476v2.908h4.321a3.825 3.825 0 0 1-1.601 2.543l-.016.096 2.326 1.803.161.015C15.145 12.408 16 10.397 16 8.01Z" fill="#4285F4" /><path d="M8.476 15.672c2.115 0 3.893-.697 5.191-1.898l-2.472-1.917a4.631 4.631 0 0 1-2.716.783 4.725 4.725 0 0 1-4.46-3.258l-.093.01-2.419 1.87-.03.087a7.813 7.813 0 0 0 7 4.323Z" fill="#34A853" /><path d="M4.016 9.385a4.799 4.799 0 0 1-.26-1.552c.003-.526.09-1.05.254-1.551l-.003-.102-2.45-1.902-.08.037a7.82 7.82 0 0 0 0 7.037l2.54-1.967Z" fill="#FBBC05" /><path d="M8.476 3.03a4.324 4.324 0 0 1 3.03 1.167l2.21-2.159A7.536 7.536 0 0 0 8.474 0a7.83 7.83 0 0 0-7.002 4.321l2.533 1.967A4.743 4.743 0 0 1 8.476 3.03Z" fill="#EB4335" /></symbol><symbol fill="none" viewBox="0 0 16 16" id="graduation"><path d="M14.667 5.9 8.326 3.337a.917.917 0 0 0-.69 0L1.295 5.9a.92.92 0 0 0 0 1.708l6.341 2.56c.221.09.469.09.69 0l6.341-2.56a.92.92 0 0 0 0-1.708Z" fill="currentColor" /><path d="M14.428 10.13a.307.307 0 0 1-.307-.307v-2.45a.307.307 0 1 1 .614 0v2.45a.307.307 0 0 1-.307.306Z" fill="currentColor" /><path d="M14.429 11.357a.92.92 0 1 0 0-1.841.92.92 0 0 0 0 1.841ZM11.818 9.419v1.997a.92.92 0 0 1-.554.844l-2.916 1.268a.915.915 0 0 1-.733 0L4.699 12.26a.92.92 0 0 1-.554-.844V9.419l3.262 1.318c.37.15.781.15 1.15 0l3.261-1.318Z" fill="currentColor" /></symbol><symbol fill="none" viewBox="0 0 16 16" id="graduation-cap"><path d="M14.667 5.9 8.326 3.337a.917.917 0 0 0-.69 0L1.295 5.9a.92.92 0 0 0 0 1.708l6.341 2.561c.221.09.469.09.69 0l6.341-2.56a.92.92 0 0 0 0-1.709Z" fill="currentColor" /><path d="M14.426 10.13a.307.307 0 0 1-.307-.308v-2.45a.307.307 0 0 1 .614 0v2.45a.307.307 0 0 1-.307.307Z" fill="currentColor" /><path d="M14.427 11.357a.92.92 0 1 0 0-1.841.92.92 0 0 0 0 1.841ZM11.818 9.419v1.997a.92.92 0 0 1-.554.844l-2.916 1.268a.915.915 0 0 1-.733 0L4.699 12.26a.92.92 0 0 1-.554-.844V9.419l3.262 1.318c.37.15.781.15 1.15 0l3.261-1.318Z" fill="currentColor" /></symbol><symbol fill="none" viewBox="0 0 24 24" id="instagram"><path d="M12 0C5.373 0 0 5.373 0 12s5.373 12 12 12 12-5.373 12-12S18.627 0 12 0Zm0 22.91C5.975 22.91 1.09 18.024 1.09 12S5.976 1.09 12 1.09 22.91 5.976 22.91 12 18.024 22.91 12 22.91Z" fill="currentColor" /><path d="M12.118 18h-.12c-.94.002-1.81-.022-2.654-.073a3.55 3.55 0 0 1-2.046-.775c-.544-.443-.915-1.042-1.103-1.78-.164-.644-.173-1.275-.181-1.886C6.008 13.048 6 12.53 6 12.001c.001-.53.008-1.05.014-1.487.008-.61.017-1.242.18-1.885.19-.739.56-1.338 1.104-1.781a3.549 3.549 0 0 1 2.046-.775A41.808 41.808 0 0 1 12 6c.94-.002 1.81.022 2.655.073a3.549 3.549 0 0 1 2.045.775c.544.443.915 1.042 1.104 1.78.164.644.173 1.275.181 1.886.006.438.012.957.014 1.485V12c-.002.528-.008 1.047-.014 1.485-.008.61-.017 1.242-.181 1.885-.189.739-.56 1.338-1.104 1.781a3.55 3.55 0 0 1-2.045.775c-.81.049-1.641.073-2.538.073Zm-.12-.938c.926.002 1.776-.02 2.6-.071.587-.036 1.095-.226 1.511-.565.385-.314.65-.747.787-1.287.137-.535.145-1.11.153-1.666.006-.435.012-.95.013-1.473-.001-.523-.007-1.038-.013-1.473-.008-.556-.016-1.131-.152-1.666-.138-.54-.403-.973-.788-1.287-.416-.34-.924-.53-1.51-.565A40.964 40.964 0 0 0 12 6.938a40.85 40.85 0 0 0-2.6.071c-.586.036-1.094.226-1.51.565-.385.314-.65.747-.788 1.287-.137.535-.144 1.11-.152 1.666-.006.435-.012.95-.013 1.474 0 .521.007 1.037.013 1.472.008.556.015 1.13.152 1.666.138.54.403.973.787 1.287.417.34.925.53 1.51.565.826.05 1.676.074 2.599.071Zm-.022-2.132A2.933 2.933 0 0 1 9.046 12a2.933 2.933 0 0 1 2.93-2.93 2.933 2.933 0 0 1 2.93 2.93 2.933 2.933 0 0 1-2.93 2.93Zm0-4.922A1.995 1.995 0 0 0 9.984 12c0 1.098.894 1.992 1.992 1.992A1.995 1.995 0 0 0 13.968 12a1.994 1.994 0 0 0-1.992-1.992Zm3.258-1.875a.703.703 0 1 0 0 1.406.703.703 0 0 0 0-1.406Z" fill="currentColor" stroke="currentColor" stroke-width=".2" /></symbol><symbol fill="none" viewBox="0 0 14 14" id="lamp"><g clip-path="url(#lamp_a)" fill="currentColor"><path d="M7 2.017a.438.438 0 0 1-.438-.438V.438a.438.438 0 0 1 .875 0v1.141A.438.438 0 0 1 7 2.017ZM10.832 3.604a.438.438 0 0 1-.31-.747l.808-.807a.438.438 0 1 1 .619.619l-.807.807a.439.439 0 0 1-.31.128ZM13.563 7.438h-1.141a.438.438 0 0 1 0-.875h1.141a.438.438 0 0 1 0 .875ZM11.64 12.078a.434.434 0 0 1-.31-.128l-.807-.808a.438.438 0 0 1 .619-.619l.807.808a.438.438 0 0 1-.31.747ZM2.36 12.078a.438.438 0 0 1-.31-.747l.807-.808a.438.438 0 1 1 .62.62l-.808.807a.437.437 0 0 1-.31.128ZM1.58 7.438H.436a.438.438 0 0 1 0-.875H1.58a.438.438 0 0 1 0 .875ZM3.167 3.604a.434.434 0 0 1-.31-.128L2.05 2.67a.438.438 0 0 1 .619-.62l.807.808a.438.438 0 0 1-.31.747ZM8.75 12.25v.73c0 .56-.46 1.02-1.02 1.02H6.27c-.49 0-1.02-.373-1.02-1.19v-.56h3.5ZM9.57 3.827a4.099 4.099 0 0 0-3.447-.817c-1.546.32-2.8 1.58-3.12 3.127a4.087 4.087 0 0 0 1.54 4.124c.343.257.583.653.664 1.114v.006c.012-.006.03-.006.041-.006h3.5c.012 0 .018 0 .03.006v-.006c.081-.443.343-.852.746-1.167A4.075 4.075 0 0 0 11.082 7 4.067 4.067 0 0 0 9.57 3.827Zm-.384 3.465a.44.44 0 0 1-.438-.438c0-.886-.717-1.604-1.604-1.604a.44.44 0 0 1-.438-.438.44.44 0 0 1 .438-.437 2.485 2.485 0 0 1 2.48 2.48.44.44 0 0 1-.438.437Z" /><path d="M5.21 11.375h.042c-.012 0-.03 0-.041.006v-.006ZM8.78 11.375v.006c-.013-.006-.018-.006-.03-.006h.03Z" /></g><defs></defs></symbol><clipPath id="lamp_a"><path fill="currentColor" d="M0 0h14v14H0z" /></clipPath><symbol fill="none" viewBox="0 0 32 32" id="leaf"><path d="M21.58 24.555a1.099 1.099 0 0 1 .745-1.734c.795-.107 1.754-.17 2.421.002 0 0-1.663-1.68 1.311-1.748 0 0-.927-.483 1.67-2.307 0 0-1.37.164-1.903-1.209 0 0-2.747.237-2.33-.747.419-.983 2.851-2.548 2.851-2.548s-2.57-.284-.694-2.912c0 0-1.782-.42-.506-2.45 0 0-1.493.987-2.126.528 0 0-1.363 1.484-2.227-.203l-.617 2.212-.79-.08-.125.658a.579.579 0 0 1-.666.462s-.375-4.395.535-5.154c0 0-1.8 1.194-2.022-.54 0 0-.655-.135-.377-1.354 0 0-1.438.492-1.67-1.995.14 2.494-1.354 2.221-1.354 2.221.456 1.164-.173 1.396-.173 1.396.04 1.747-1.918.834-1.918.834 1.013.616 1.296 5.017 1.296 5.017a.579.579 0 0 1-.728-.357l-.221-.631-.769.196-.94-2.096c-.603 1.796-2.172.532-2.172.532-.558.548-2.18-.206-2.18-.206 1.565 1.819-.135 2.499-.135 2.499 2.247 2.32-.253 2.983-.253 2.983s2.638 1.185 3.198 2.095c.56.91-2.192 1.086-2.192 1.086-.322 1.437-1.701 1.479-1.701 1.479 2.84 1.415 1.994 2.032 1.994 2.032 2.952-.375 1.556 1.533 1.556 1.533.635-.268 1.592-.349 2.394-.362a1.099 1.099 0 0 1 .995 1.604 14.53 14.53 0 0 1-.798 1.339c.805-.651 2.951-.894 2.951-.894.89-1.282 1.785-1.76 1.785-1.76l.704-2.65 1.091 2.516s.957.34 2.027 1.474c0 0 2.158-.08 3.051.445 0 0-.524-.565-.987-1.206Z" fill="currentColor" /></symbol><symbol fill="none" viewBox="0 0 24 24" id="linkedin"><path d="M8.728 9.818a1.09 1.09 0 1 0 0-2.182 1.09 1.09 0 0 0 0 2.182ZM9.819 10.364H7.637v6h2.182v-6Z" fill="currentColor" /><path d="M12 0C5.373 0 0 5.373 0 12s5.373 12 12 12 12-5.373 12-12S18.627 0 12 0Zm0 22.91C5.975 22.91 1.09 18.024 1.09 12S5.976 1.09 12 1.09 22.91 5.976 22.91 12 18.024 22.91 12 22.91Z" fill="currentColor" /><path d="M14.924 10.364c-1.637 0-1.833.97-1.833.97v-.97h-2.182v6h2.182V13.09s0-1.09.927-1.09c.546 0 .71.485.71 1.09v3.273h2.181V13.09c0-1.707-.742-2.727-1.985-2.727Z" fill="currentColor" /></symbol><symbol fill="none" viewBox="0 0 17 16" id="location"><path d="M13.25 7.318c0 4.136-5 7.682-5 7.682s-5-3.546-5-7.682c0-1.41.527-2.763 1.464-3.76C5.652 2.56 6.924 2 8.25 2s2.598.56 3.536 1.558c.937.997 1.464 2.35 1.464 3.76Z" stroke="currentColor" stroke-linecap="round" stroke-linejoin="round" /><path d="M8.25 8a1 1 0 1 0 0-2 1 1 0 0 0 0 2Z" fill="currentColor" /></symbol><symbol fill="none" viewBox="0 0 24 24" id="notification"><path d="M15 19a3 3 0 0 1-6 0m3.721-13.997L11.255 5c-3.344-.008-6.247 2.709-6.27 6v3.79c0 .79-.1 1.561-.53 2.218l-.288.438C3.73 18.11 4.2 19 4.985 19h14.03c.785 0 1.254-.89.818-1.554l-.287-.438c-.43-.657-.53-1.429-.53-2.219v-3.788c-.04-3.292-2.95-5.99-6.295-5.998v0Z" stroke="currentColor" stroke-linecap="round" stroke-linejoin="round" /><path d="M12 2a2 2 0 0 1 2 2v1h-4V4a2 2 0 0 1 2-2Z" stroke="currentColor" stroke-linecap="round" stroke-linejoin="round" /></symbol><symbol fill="none" viewBox="0 0 24 24" id="people"><g clip-path="url(#people_a)" stroke="currentColor"><path d="m20.592 9.861-.415.323" stroke-miterlimit="10" stroke-linecap="round" /><path d="M17.122 5.602c-1.166 0-2.037-.97-2.037-2.164v-.764c0-1.196.87-2.164 2.037-2.164 1.166 0 2.036.968 2.036 2.164v.764c0 1.195-.87 2.164-2.036 2.164Z" stroke-miterlimit="10" /><path d="M15.085 12.842v11.09M20.686 13.24v10.692M18.227 12.427s.714.351 1.018.496c.212.101.453.318.93.318h2.037c.942 0 1.474-1.034 1.21-1.786-.265-.751-1.095-2.647-1.095-2.647-.51-1.255-1.091-1.655-2.551-1.676h-5.2c-.946 0-1.87.754-1.651 1.767.121.564.445 1.291.607 1.782.162.49.39 1.071.619 1.287l.784.747c.525.499 1.138.66 1.833.412l2.433-1.163c.608-.288.976-.488.976-1.136v-.644h-3.564l-.335-.745M18.14 16.803v7.128M9.484 18.84c-1.1 0-2.037-1.047-2.037-2.037v-4.074c0-1.682 2.305-2.545 4.074-2.545M9.484 13.24v10.692M13.048 6.11v-.712c0-1.082-.743-1.834-1.782-1.834-1.039 0-1.782.749-1.782 1.834v.916c0 1.082.744 1.833 1.782 1.833M4.392 20.368c-1.1 0-2.037-1.047-2.037-2.037v-2.546c0-1.682 1.796-2.546 3.565-2.546M4.392 16.294v7.638M7.956 9.369v-.917c0-1.082-.743-1.833-1.782-1.833-1.039 0-1.782.749-1.782 1.833v.917c0 1.082.744 1.833 1.782 1.833" stroke-linecap="round" stroke-linejoin="round" /></g><defs></defs></symbol><clipPath id="people_a"><path fill="#fff" d="M0 0h24v24H0z" /></clipPath><symbol fill="none" viewBox="0 0 24 24" id="plus-circle"><g clip-path="url(#plus-circle_a)" stroke="currentColor" stroke-width="2" stroke-linecap="round" stroke-linejoin="round"><path d="M19.07 19.071c3.906-3.905 3.906-10.237 0-14.142-3.905-3.905-10.236-3.905-14.142 0-3.905 3.905-3.905 10.237 0 14.142 3.906 3.905 10.237 3.905 14.143 0ZM12 7.757v8.486M7.758 12h8.485" /></g><defs></defs></symbol><clipPath id="plus-circle_a"><path fill="#fff" d="M0 0h24v24H0z" /></clipPath><symbol fill="none" viewBox="0 0 24 24" id="remove-circle"><path d="M12 22c5.523 0 10-4.477 10-10S17.523 2 12 2 2 6.477 2 12s4.477 10 10 10ZM15 9l-6 6M9 9l6 6" stroke="currentColor" stroke-width="2" stroke-linecap="round" stroke-linejoin="round" /></symbol><symbol fill="none" viewBox="0 0 16 16" id="repeat"><path d="m9.357 3.147-.043-.04a.5.5 0 0 0-.664.04l-.04.043a.5.5 0 0 0 .04.663l.65.649H6.5l-.12.002A3.5 3.5 0 0 0 3 7.999a3.47 3.47 0 0 0 .595 1.95.5.5 0 0 0 .813-.582l-.068-.11A2.498 2.498 0 0 1 6.5 5.502H9.3l-.65.649-.038.043a.5.5 0 0 0 .746.663l1.503-1.501.039-.044a.5.5 0 0 0-.04-.663L9.358 3.147Zm3.038 2.885a.5.5 0 0 0-.808.59 2.5 2.5 0 0 1-2.085 3.874H6.708l.647-.645.041-.048a.5.5 0 0 0-.003-.615l-.038-.044-.048-.042a.5.5 0 0 0-.616.003l-.044.04-1.503 1.5-.041.048a.5.5 0 0 0 .003.616l.038.043 1.503 1.502.048.042a.5.5 0 0 0 .698-.705l-.038-.044-.652-.651H9.5l.12-.002a3.5 3.5 0 0 0 2.774-5.463v.001Z" fill="currentColor" /></symbol><symbol fill="none" viewBox="0 0 24 24" id="search"><path d="M11 19a8 8 0 1 0 0-16 8 8 0 0 0 0 16ZM21 21l-4.35-4.35" stroke="currentColor" stroke-linecap="round" stroke-linejoin="round" /></symbol><symbol fill="none" viewBox="0 0 24 24" id="send"><path d="M22 2 11 13M22 2l-7 20-4-9-9-4 20-7Z" stroke="currentColor" stroke-linecap="round" stroke-linejoin="round" /></symbol><symbol fill="none" viewBox="0 0 16 16" id="share"><path d="M12 5.333a2 2 0 1 0 0-4 2 2 0 0 0 0 4ZM4 10a2 2 0 1 0 0-4 2 2 0 0 0 0 4ZM12 14.666a2 2 0 1 0 0-4 2 2 0 0 0 0 4ZM5.727 9.007l4.553 2.653M10.273 4.34 5.727 6.993" stroke="currentColor" stroke-linecap="round" stroke-linejoin="round" /></symbol><symbol fill="none" viewBox="0 0 24 24" id="shield"><path fill-rule="evenodd" clip-rule="evenodd" d="M13.434 2.653a2.754 2.754 0 0 0-2.868 0l-1.654 1.01a1.245 1.245 0 0 1-.407.16l-3.044.609A2.75 2.75 0 0 0 3.25 7.129v3.689c0 5.147 3.503 9.633 8.496 10.88h.001c.166.043.34.043.506 0h.001a11.216 11.216 0 0 0 8.496-10.88v-3.69a2.75 2.75 0 0 0-2.211-2.696l-3.044-.608a1.245 1.245 0 0 1-.407-.16l-1.654-1.011ZM12 20.215a9.715 9.715 0 0 0 7.25-9.397v-3.69a1.25 1.25 0 0 0-1.005-1.225c-1.082-.216-2.422-.484-3.044-.61a2.73 2.73 0 0 1-.895-.35l-1.654-1.01a1.253 1.253 0 0 0-1.304 0l-1.654 1.01a2.73 2.73 0 0 1-.895.35c-.622.126-1.962.394-3.044.61A1.25 1.25 0 0 0 4.75 7.129v3.689A9.715 9.715 0 0 0 12 20.215Z" fill="currentColor" /><path fill-rule="evenodd" clip-rule="evenodd" d="m11 12.939 3.47-3.47a.749.749 0 1 1 1.06 1.06l-4 4a.749.749 0 0 1-1.06 0l-1.5-1.5a.749.749 0 1 1 1.06-1.06l.97.97Z" fill="currentColor" /></symbol><symbol fill="none" viewBox="0 0 24 24" id="sign-out"><path d="M14 21h6V3h-6M6.5 21l7 2.5h.5V.5h-.5L6.5 3v18ZM12 10.5v2" stroke="currentColor" stroke-linejoin="round" /></symbol><symbol fill="none" viewBox="0 0 16 16" id="star"><path d="M7.537 3.317a.497.497 0 0 1 .926 0l1.035 2.866a.495.495 0 0 0 .463.317h2.543c.47 0 .675.585.306.871L11 9a.484.484 0 0 0-.161.546l.66 2.801c.162.45-.36.837-.753.56l-2.458-1.56a.5.5 0 0 0-.575 0l-2.459 1.56c-.393.277-.915-.11-.754-.56l.661-2.801A.484.484 0 0 0 5.001 9L3.19 7.37c-.37-.286-.165-.871.304-.871H6.04a.494.494 0 0 0 .463-.317l1.035-2.866Z" fill="currentColor" stroke="currentColor" stroke-linecap="round" stroke-linejoin="round" /></symbol><symbol fill="none" viewBox="0 0 17 16" id="support"><g clip-path="url(#support_a)" stroke="currentColor" stroke-linejoin="round"><path d="M5.833 13v-1.667c0-.286-1.766-1.103-2-1.47-.143-.226-2-3.53-2-3.53 0-.526.727-.813 1.334-.333a19.46 19.46 0 0 1 1.667 1.667l.333-1.334L4.11 2a.36.36 0 0 1 .244-.417l.356-.12a.363.363 0 0 1 .457.224l1.667 4.026.333-5.07A.333.333 0 0 1 7.5.333h.333a.333.333 0 0 1 .364.334l.637 5.023.666-4.443C9.527 1.07 9.68 1 9.86 1h.307c.21 0 .377.107.363.317l-.03 4.72 1.334-3.227c.06-.13.333-.223.333-.223.333 0 .703.533.667.756l-1 3.667v2.667c0 1.306-1 1.55-1 2v1.333" /><path d="M8.067 9.666a2.567 2.567 0 0 0-.667-1.31c-.667-.63-1.713-.69-2.56-.69M6.5 15.667C3.237 15.42.833 14.58.833 13.583c0-.816 1.617-1.526 4-1.893M12.166 11.666c2.384.367 4 1.077 4 1.894 0 1.03-2.566 1.893-6 2.106" /><path d="M12.834 13.334c0 .553-2 1-4.5 1s-4.5-.447-4.5-1" /></g><defs></defs></symbol><clipPath id="support_a"><path fill="#fff" transform="translate(.5)" d="M0 0h16v16H0z" /></clipPath><symbol fill="none" viewBox="0 0 32 32" id="tree"><path d="M15.63 15.104s.317 1.49-.171 2.323-.95 2.008-.594 2.91c.357.9.518 2.24.188 2.992-.33.75-.122 2.103-.188 2.772-.065.67-1.279 1.148-1.635 2.008-.356.861-.238 1.23-1.636 1.175-1.398-.054-2.15-.355-3.073.205-.924.56-1.332.997-1.57 1.011 0 0 1.042-.178 1.82-.602.779-.425 2.44.451 3.18.355.738-.096 2.03.027 2.321-1.366.29-1.394.41-1.353 1.042-1.817.633-.465.066-1.024.858-1.94.791-.915-.382-3.335-.462-4.03-.25-2.186.092-2.254.527-3.566.436-1.31.502-3.81-1.173-4.328-1.676-.518-2.599.109-3.232-.806l-.356-.342s0-2.076-1.003-2.363c-1.002-.288-3.43.274-3.694-1.49 0 0-.105-.491.62-.86.726-.37-.479-1.818-.673-2.345 0 0 .195.533.387 1.175.313 1.04-.145.677-.773 1.493-.594.77.738 2.541 1.97 2.623 1.231.082 2.11-.355 2.217.137.107.491.167 1.466-.211 1.484-.378.019-1.557-.428-3.245.884 0 0-1.003-.2-1.293-.61-.29-.41-1.066-.597-2.164-.055-1.319.65-1.13-1.091-1.9-1.949C1.01 9.394 0 9.49 0 9.49s1.029.4 1.381.903c.352.503.598 2.159 1.284 2.24.686.082 2.199-.582 2.568-.245.37.337 1.363.692 1.24.929-.123.237-1.337 1.694-1.759 2.258-.422.565-.774.126-1.134.292-.376.172-.196.626-.792 1.13a.744.744 0 0 0 .304-.128.775.775 0 0 0 .224-.249c.193-.339.12-.546.545-.473.424.073.967-.064 1.23-.419.265-.355.397-.045.564.255.167.3.694.729.299 1.029-.396.3-.722.947-.651 1.084 0 0 .396-.602.739-.756.342-.154.554-.392.413-.966-.141-.574-.783-.837-.642-1.147.14-.31 2.119-3.178 3.807-2.732 1.688.446 2.075.929 2.717 1.065.424.087.853.148 1.284.182 0 0-1.143.146-1.011 1.558.132 1.411-1.143 1.375-1.381 1.84-.238.464-.123 1.174-.123 1.174s.044-.81.29-.983c.247-.173 1.442-.401 1.54-1.001.096-.6-.071-2.22 1.169-2.104 1.24.117 1.525.878 1.525.878Z" fill="currentColor" /><path d="M16.68 15s.084 2.42-.182 2.862c-.677 1.12-1.075 2.381-.487 3.5.588 1.118 1.32 2.592.922 3.13-.398.539-1.075 1.474-1.189 2.382-.114.907-1.45.85-1.656 1.814-.206.963-.397 1.112-.588 1.388 0 0 1.238-.928 1.725-.547.487.382.866.248.977.971 0 0 .191-.992-.127-1.502s-.413-.722-.064-1.36c.35-.637.16-1.615.652-2.125.493-.51 1.303-2.11.493-3.754-.81-1.644-.493-2.82-.064-3.67.43-.85.093-2.365-.413-3.089Z" fill="currentColor" /><path d="M17.141 25.5s-.28.733-.347 1.242c-.069.508-.341.75-.287 1.354.054.604.26.862.245 1.033l-.013.173s.77-.19 1.261.198c0 0-.354-.638-.327-.957.027-.32.088-2.215-.532-3.043ZM28.814 29.544c-.932.12-1.983-.427-2.928-1.134-.946-.708-3.599-.454-4.295-.534-.696-.08-1.339-.974-1.59-2.246a56.507 56.507 0 0 0-.645-2.93 1.871 1.871 0 0 0-.164-.42c-.58-1.08-.634-2.17-.604-2.797a1.075 1.075 0 0 1-.03-.24c-.027-.427.275-2.243.275-2.243-.946 1.348-.854 3.63-.806 4.07.049.44.596 2.442.528 3.456-.067 1.015 1.263 2.39 1.25 2.95-.013.559 2.035 1.24 2.548 1.294.512.053 2.272-.32 3.125.173.854.494 1.682.854 2.404 1.028.722.173 2.075-.48 2.114-.48.04 0-.25-.069-1.182.053Z" fill="currentColor" /><path d="M30.586 12.05a1.341 1.341 0 0 1-1.22.563c-.116-.013-.454-.422-.739-.887s-.065-.944-.065-.944c-.324.493-.234 1.126.026 1.352.26.227.623.676.467.86-.156.184-1.233.352-1.531.831-.298.48-.715.592-.715.592-1.583.422-1.609.563-2.646 1.817s-1.903 1.674-3.512 1.672c-.787 0-1.651.628-1.651 1.65 0 1.38.204 2.057.343 2.41.004.012.012.021.022.027.01.006.021.008.032.006a.049.049 0 0 0 .029-.017.056.056 0 0 0 .012-.033c.042-.905.407-2.193.711-2.558.848-1.015 1.782-.836 2.25-1.204.466-.367 2.123-.596 2.577-1.878.454-1.283 1.691-1.133 1.691-1.133.65-.098.597 1.043.883 1.325.285.282.934-.056 1.505-.14.571-.085.727.07.727.07-.377-.79-1.323-.311-1.92-.367-.599-.055-.221-1.211-.014-1.69.208-.48 1.246-1.043 1.596-1.142.35-.098 1.194-.76 1.44-1.125A211.1 211.1 0 0 1 32 10.5c-.518.155-.96.93-1.414 1.55Z" fill="currentColor" /><path d="M21.917 28.66c-.774-.245-2.049-.242-2.323-1.181-.389-1.336-1.521-2.744-1.33-3.767.19-1.022-.503-1.69-.503-2.153 0-.464-.408-2.463.176-3.767.584-1.304.476-2.299.136-3.021a5.311 5.311 0 0 1-.207-.51c-.133-.205-.944-3.53-1.044-3.921-.1-.391-.27-.837-.27-.837-.103-.226-.264-.456-.435-.879-.204-.504-.557-2.249.013-2.712.57-.464 1.196-.94 1.454-.995.258-.056.74-.237.797.368.076.81 1.295.886 1.295.886s-.966-.325-1.033-.845c-.026-.203.055-.886-1.222-.737 0 0-.245-.04-.109-.327.136-.286.326-1.253.177-1.621 0 0-.245 1.294-.326 1.43-.081.137-.272.328-.503.682-.23.355-.548.442-.906.709-.176.132-.452.381-.439 1.036.014.654.041 1.608.041 1.608s-1.128.123-1.29-.722c-.163-.846-.847-2.479-.888-2.958-.04-.479-.118-.872.262-1.226.38-.355.218-1.16.218-1.16s-.163.832-.53 1.023c-.367.191-.404.332-.404.332s-.225-.65-1.9-.786c-.687-.056-.859-.295-1.187-.609 0 0-.005.64.638.789.723.168 1.722.25 2.079.75.32.45.774 2.045.638 2.522 0 0-.786.137-.978.573-.192.436-.66.177-.751-.232 0 0 .07-1.154-2.094-1.346-.197-.017-.374-.058-.619-.494 0 0-.337.65.734.9 1.406.327 1.25.681 1.48 1.308.231.627 1.264.901 1.63.273.367-.63.815-.518.83-.327.013.19.27 1.649.99 1.99.72.341 1.291.681 1.726 1.677.434.995.421 2.834.652 3.514.231.68.91 2.535.91 3.285s-.882 2.494-.61 3.516c.271 1.023.665 1.704.665 2.686 0 .98-.38 1.908-.109 2.276.272.368.657 1.045.58 1.817-.077.773-.524 1.985 1.2 2.326 1.724.341 1.453-.613 3.029-.122 1.575.49 4.414 1.567 5.243 1.267 0 0-2.119-.381-2.69-.967-.57-.586-2.118-1.076-2.893-1.321Z" fill="currentColor" /><path d="M18.215 10.097a4.808 4.808 0 0 1-.652-.177.044.044 0 0 0-.026-.001.047.047 0 0 0-.022.013.055.055 0 0 0-.013.052c.086.32.095.668.255 1.248.107.394.192.796.254 1.202a.08.08 0 0 0 .02.044.068.068 0 0 0 .086.012.076.076 0 0 0 .031-.038.793.793 0 0 1 .19-.269.721.721 0 0 1 .278-.159c.961-.323 3.452-1.82 3.614-3.356a22.36 22.36 0 0 0 .123-2.737s1.508.986 2.517 1.023c1.01.037 1.958-.97 2.63-.97 0 0-.474-.23-1.06.094-.585.324-1.595.647-2.106.324-.51-.324-1.52-.863-1.445-1.092.075-.23.935-.892.884-1.578-.05-.685-.199-1.63.736-1.59.935.04 1.52.418 1.745-.31.224-.728-.025-.526.424-.715.264-.11.48-.327.598-.606 0 0-1.21.229-1.247.743-.037.513-.224.606-.473.552-.25-.054-1.446-.377-1.72.04 0 0-.636-.148-.735-.62-.1-.47.137-.323.299-.525.162-.203.062-.701.062-.701s-.25.66-.461.647c-.212-.013-.773.418-.25.822.524.405.5.54.474.823-.025.283.187.984-.037 1.307-.224.324-.499.35-.648.85-.15.498-.275.52-.436.61-.162.092-.374.454-.462 1.371-.087.917-.1 1.59-.398 2.076-.3.485-.574 1.011-1.184 1.24-.61.23-1.334.458-1.845.35ZM28.922 23.44c-.545-.056-1.052-.104-1.115-.264-.063-.16.516-.439.634-.54.118-.103.351-.182.568-.256.216-.075.605-.248.605-.248s-.731.115-1.016.273c-.284.158-1.047.638-1.372.586-.324-.052-.804-.068-1.05-.428-.096-.139-.303-.431-.559-.758.238.007 1.178.035 1.35.034.196 0 .66-.306.66-.306a4.128 4.128 0 0 1-.671.223c-.378.09-1.578-.25-1.59-.265-.356-.427-.758-.85-1.078-1.029-.58-.321-1.495-.552-2.5-.57 0 0-.557-.27-.692-.789a.146.146 0 0 0-.023-.05.128.128 0 0 0-.038-.036.117.117 0 0 0-.1-.01c-.222.083-.447.191-.598.39-.256.338-.324 1.15-.337 1.683a.06.06 0 0 0 .008.033c.005.01.013.017.023.021.01.005.02.006.03.003a.05.05 0 0 0 .026-.017c.193-.237.486-.5.876-.578a6.82 6.82 0 0 1 .295-.038c.959-.107 2.27-.08 3.08.65h.003c.184.164.336.37.447.602.153.323.285.743.112.982-.238.328-.892.94-.662 1.515 0 0 .03-.463.24-.729.174-.22.224-.313.301-.411-.04.49.046 1.167.176 1.383.122.195.272.366.446.504 0 0-.284-.317-.346-.569-.06-.252-.116-.415-.105-.67 0 0 .172.062.318.385.004.01.202.216.202.216-.03-.104-.075-.2-.134-.288-.091-.13-.15-.24-.238-.391-.088-.152-.196-.058-.138-.472.058-.414.127-.66.13-.943 0-.16.064-.226.118-.252.747.8 1.187 1.358 2.267 1.535 1.435.236 2.919-.071 3.019-.105.1-.035-1.027.05-1.572-.006Z" fill="currentColor" /></symbol><symbol fill="none" viewBox="0 0 16 17" id="upload"><path d="M10.667 10.669 8.001 8.002l-2.667 2.667M8 8.002v6" stroke="currentColor" stroke-linecap="round" stroke-linejoin="round" /><path d="M13.594 12.262a3.333 3.333 0 0 0-1.593-6.26h-.84a5.333 5.333 0 1 0-9.16 4.866" stroke="currentColor" stroke-linecap="round" stroke-linejoin="round" /><path d="M10.667 10.669 8.001 8.002l-2.667 2.667" stroke="currentColor" stroke-linecap="round" stroke-linejoin="round" /></symbol></defs><use id="arrows-usage" xlink:href="#arrows" class="sprite-symbol-usage" /><use id="attention-usage" xlink:href="#attention" class="sprite-symbol-usage" /><use id="calendar-usage" xlink:href="#calendar" class="sprite-symbol-usage" /><use id="calendar-xs-usage" xlink:href="#calendar-xs" class="sprite-symbol-usage" /><use id="check-usage" xlink:href="#check" class="sprite-symbol-usage" /><use id="check-circle-usage" xlink:href="#check-circle" class="sprite-symbol-usage" /><use id="chevron-left-usage" xlink:href="#chevron-left" class="sprite-symbol-usage" /><use id="chevron-right-usage" xlink:href="#chevron-right" class="sprite-symbol-usage" /><use id="clock-usage" xlink:href="#clock" class="sprite-symbol-usage" /><use id="close-usage" xlink:href="#close" class="sprite-symbol-usage" /><use id="copy-usage" xlink:href="#copy" class="sprite-symbol-usage" /><use id="crown-usage" xlink:href="#crown" class="sprite-symbol-usage" /><use id="edit-usage" xlink:href="#edit" class="sprite-symbol-usage" /><use id="eye-usage" xlink:href="#eye" class="sprite-symbol-usage" /><use id="facebook-usage" xlink:href="#facebook" class="sprite-symbol-usage" /><use id="faq-usage" xlink:href="#faq" class="sprite-symbol-usage" /><use id="filter-usage" xlink:href="#filter" class="sprite-symbol-usage" /><use id="friends-usage" xlink:href="#friends" class="sprite-symbol-usage" /><use id="google-usage" xlink:href="#google" class="sprite-symbol-usage" /><use id="graduation-usage" xlink:href="#graduation" class="sprite-symbol-usage" /><use id="graduation-cap-usage" xlink:href="#graduation-cap" class="sprite-symbol-usage" /><use id="instagram-usage" xlink:href="#instagram" class="sprite-symbol-usage" /><use id="lamp-usage" xlink:href="#lamp" class="sprite-symbol-usage" /><use id="leaf-usage" xlink:href="#leaf" class="sprite-symbol-usage" /><use id="linkedin-usage" xlink:href="#linkedin" class="sprite-symbol-usage" /><use id="location-usage" xlink:href="#location" class="sprite-symbol-usage" /><use id="notification-usage" xlink:href="#notification" class="sprite-symbol-usage" /><use id="people-usage" xlink:href="#people" class="sprite-symbol-usage" /><use id="plus-circle-usage" xlink:href="#plus-circle" class="sprite-symbol-usage" /><use id="remove-circle-usage" xlink:href="#remove-circle" class="sprite-symbol-usage" /><use id="repeat-usage" xlink:href="#repeat" class="sprite-symbol-usage" /><use id="search-usage" xlink:href="#search" class="sprite-symbol-usage" /><use id="send-usage" xlink:href="#send" class="sprite-symbol-usage" /><use id="share-usage" xlink:href="#share" class="sprite-symbol-usage" /><use id="shield-usage" xlink:href="#shield" class="sprite-symbol-usage" /><use id="sign-out-usage" xlink:href="#sign-out" class="sprite-symbol-usage" /><use id="star-usage" xlink:href="#star" class="sprite-symbol-usage" /><use id="support-usage" xlink:href="#support" class="sprite-symbol-usage" /><use id="tree-usage" xlink:href="#tree" class="sprite-symbol-usage" /><use id="upload-usage" xlink:href="#upload" class="sprite-symbol-usage" /></svg>